<svg viewBox="0 0 200 200" xmlns="http://www.w3.org/2000/svg"><path d="m52.47 47.59s-11.47 9.25-23.69 7.41-16.58-18.61-16.58-18.61 4 1.15 19 2.82a47.15 47.15 0 0 1 21.27 8.38z"/><path d="m143.08 48.21s11.92 7.52 24.92 5.57 15.48-16.24 15.48-16.24-1.63.94-17.5 2.84a60.54 60.54 0 0 0 -22.9 7.83z"/><path d="m98.68 40.33a84.48 84.48 0 0 0 -34.27 7.73s15.34 16.42 34.27 16.42 34.32-16.42 34.32-16.42a84.54 84.54 0 0 0 -34.32-7.73zm-7 23.26a5.93 5.93 0 1 1 5.48-5.91 5.71 5.71 0 0 1 -5.43 5.91z"/><path d="m98.68 142.07c-27.75 0-50.25 17.56-50.25 17.56a93.81 93.81 0 0 0 17.26 14.86 14 14 0 0 1 -2.06-7.28c0-9 8.8-16.38 19.66-16.38s19.65 7.34 19.65 16.38c0 7.92-6.75 14.53-15.72 16a8.73 8.73 0 1 0 -14.85-6.21 8.24 8.24 0 0 0 .17 1.59c7.61 4.09 16.56 7.21 26.14 7.21 27.75 0 50.24-26.21 50.24-26.21s-22.49-17.52-50.24-17.52z"/><path d="m102.67 70.76c-35.73 0-68.67 23.57-68.67 23.57s29 31.59 64.7 31.59 64.69-31.59 64.69-31.59-24.98-23.57-60.72-23.57zm-13.79 53.24a8.53 8.53 0 0 0 2-5.43 8.63 8.63 0 0 0 -17.25-.19 20.42 20.42 0 1 1 15.25 5.62z"/><path d="m36.48 115.28c-11.31-3-25.06 12.23-25.06 12.23s4.59 20 15.9 22.91 25.06-12.23 25.06-12.23-4.59-19.96-15.9-22.91zm-8.14 25.72a8.34 8.34 0 1 1 8.34-8.34 8.34 8.34 0 0 1 -8.34 8.34z"/><path d="m158.48 116.23c-11.34 4.11-15.16 22.25-15.16 22.25s14.55 11.49 25.89 7.38 13.42-27.05 13.42-27.05-12.82-6.68-24.15-2.58zm3.31 22.93a8.34 8.34 0 1 1 8.34-8.34 8.33 8.33 0 0 1 -8.34 8.34z"/></svg>