<svg viewBox="0 0 200 200" xmlns="http://www.w3.org/2000/svg"><path d="m173.17 76v114.33h-146.84v-183.33h146.84v65.55c-.23-1.82-.38-3.66-.72-5.46-.42-2.19-.94-4.37-1.56-6.5a11.1 11.1 0 0 0 -2.51-4.52 4.07 4.07 0 0 0 -3-1.4 36.48 36.48 0 0 1 .4 10.77 45.25 45.25 0 0 1 -2.72 11.56 9.71 9.71 0 0 1 -7.68.91 23.57 23.57 0 0 0 -8.75 6 57.38 57.38 0 0 0 -5.11 6.3 47.41 47.41 0 0 0 -5.11 10.22 36.15 36.15 0 0 0 -2.33 10.18 26.27 26.27 0 0 0 1 11.07 11 11 0 0 0 4.18 5.61c3 2.07 6.27 1.8 9.5.62a23.33 23.33 0 0 0 8.7-5.94 57.24 57.24 0 0 0 5.15-6.36 43.87 43.87 0 0 0 5.09-10.15 37.32 37.32 0 0 0 2.52-15.16 2.55 2.55 0 0 1 .21-1.09 40.34 40.34 0 0 0 2.46-10.21c.11-1 .19-2 .28-3zm-17.6 90.64c-.17-1.51-.26-3-.53-4.53a21.46 21.46 0 0 0 -3.2-8.13c-2.83-4.23-6.19-7.64-11.42-8.77a26.24 26.24 0 0 1 -9.1-3.58 20.8 20.8 0 0 1 -6.93-7.06c-1.28-2.31-2.26-4.78-3.33-7.2-.57-1.31-1.06-2.65-1.58-4-1-2.69-2-5.42-4.24-7.46a30.35 30.35 0 0 0 -4.55-3.75 22.37 22.37 0 0 0 -8-3.06 22.59 22.59 0 0 0 -6.62-.11 23 23 0 0 0 -5.41 1.46 13.52 13.52 0 0 0 -5.58 3.66 44.79 44.79 0 0 0 -5.55 8.6c-.8 1.53-1.38 3.18-2.12 4.75-.85 1.78-1.37 3.71-2.6 5.33a21.84 21.84 0 0 1 -5.6 5.54 26.06 26.06 0 0 1 -4.21 2.26c-2.5 1-5.12 1.71-7.64 2.68a24.1 24.1 0 0 0 -13.36 11.9 23.29 23.29 0 0 0 -2 15.2 21.84 21.84 0 0 0 3.07 7.81 23.9 23.9 0 0 0 6.8 7.11 35.81 35.81 0 0 0 7.47 3.5 10.31 10.31 0 0 0 5.6.68c1.4-.25 2.77-.65 4.15-1 3.28-.79 6.11-2.52 9-4.19a78.33 78.33 0 0 1 7.91-3.91 27.33 27.33 0 0 1 9.69-2.17 35.8 35.8 0 0 1 16.08 3.22 65.7 65.7 0 0 1 10 5.5 18.65 18.65 0 0 0 13.45 3 24.47 24.47 0 0 0 12-5.31 23 23 0 0 0 5.2-6.38 24.11 24.11 0 0 0 3.15-11.61zm-33.52-157.5c-.3 1.11-.62 2.09-.82 3.1q-2.17 10.83-4.29 21.66a2 2 0 0 1 -1 1.63 16.89 16.89 0 0 0 -5.68 5.47 21.59 21.59 0 0 0 -2.85 6.72 76.06 76.06 0 0 0 -2.41 9.61c-.37 2.74-.66 5.48-.92 8.22a43.07 43.07 0 0 0 -.28 5.07 37 37 0 0 0 .49 4.68 38.55 38.55 0 0 0 2.09 8.3c1.29 3.38 2.61 6.72 5 9.5a16.14 16.14 0 0 0 5.15 4.32 10 10 0 0 0 10.47-.86 18.69 18.69 0 0 0 5.19-5.56 45.81 45.81 0 0 0 6.07-20.9 49.07 49.07 0 0 0 -.26-10.58 44.61 44.61 0 0 0 -1.63-8 37.69 37.69 0 0 0 -10.2-16.9 2.85 2.85 0 0 1 -.8-1.23c-1.15-8.1-2.23-16.17-3.32-24.25zm-42.37-1.68h-.1c-.15 1-2.55 18.51-3 21.81-.18 1.26-.08 2.62-1.21 3.6-7.81 6.8-11.7 18.45-12 28.44-.21 6 .07 12 1.89 17.76 1.29 4.11 2.66 8.15 5.4 11.59a17.39 17.39 0 0 0 5.07 4.63 10 10 0 0 0 10.2-.11 17.55 17.55 0 0 0 5.07-4.87c2.43-3.12 3.7-6.83 4.95-10.5a31.76 31.76 0 0 0 1.75-12.55 67.13 67.13 0 0 0 -.63-11.68 55.37 55.37 0 0 0 -2.89-10.52 22.5 22.5 0 0 0 -3.89-7.37 15 15 0 0 0 -5.71-4.62.71.71 0 0 1 -.36-.32 31.75 31.75 0 0 1 -2.71-13.09q-1-6.09-1.83-12.2zm-45.54 47.23c-10.08-.55-8.14 28.31-5.23 33.88a48.76 48.76 0 0 1 1.24 10.5 42.37 42.37 0 0 0 4.31 12.07 48 48 0 0 0 5.45 8.31 38.24 38.24 0 0 0 5.52 5.35 18.11 18.11 0 0 0 8 3.77 9 9 0 0 0 8.32-2.49 15.25 15.25 0 0 0 3.31-6.44 13.83 13.83 0 0 0 .56-3.51 34 34 0 0 0 -.91-10.08 48.66 48.66 0 0 0 -5.24-13.38 41.05 41.05 0 0 0 -5.19-7.29 35.55 35.55 0 0 0 -5.28-4.9c-3.69-2.53-7.55-4.23-12.23-3.07-2.71-7.35-4.16-14.84-2.63-22.72z" fill="#fff"/><path d="m173.17 76c-.09 1-.14 2-.28 3a40.34 40.34 0 0 1 -2.47 10.26 2.55 2.55 0 0 0 -.21 1.09 37.32 37.32 0 0 1 -2.52 15.16 43.87 43.87 0 0 1 -5.09 10.15 57.24 57.24 0 0 1 -5.15 6.36 23.33 23.33 0 0 1 -8.7 5.94c-3.23 1.18-6.49 1.45-9.5-.62a11 11 0 0 1 -4.18-5.61 26.27 26.27 0 0 1 -1-11.07 36.15 36.15 0 0 1 2.33-10.18 47.41 47.41 0 0 1 5.11-10.22 57.38 57.38 0 0 1 5.11-6.3 23.57 23.57 0 0 1 8.75-6 9.71 9.71 0 0 0 7.68-.91 45.25 45.25 0 0 0 2.69-11.55 36.48 36.48 0 0 0 -.4-10.77 4.07 4.07 0 0 1 3 1.4 11.1 11.1 0 0 1 2.51 4.52c.62 2.13 1.14 4.31 1.56 6.5.34 1.8.49 3.64.72 5.46z"/><path d="m155.57 166.62a24.11 24.11 0 0 1 -3 11.63 23 23 0 0 1 -5.2 6.38 24.47 24.47 0 0 1 -12 5.31 18.65 18.65 0 0 1 -13.45-3 65.7 65.7 0 0 0 -10-5.5 35.8 35.8 0 0 0 -16.22-3.24 27.33 27.33 0 0 0 -9.7 2.17 78.33 78.33 0 0 0 -7.89 3.93c-2.89 1.67-5.72 3.4-9 4.19-1.38.33-2.75.73-4.15 1a10.31 10.31 0 0 1 -5.6-.68 35.81 35.81 0 0 1 -7.47-3.5 23.9 23.9 0 0 1 -6.8-7.11 21.84 21.84 0 0 1 -3.09-7.83 23.36 23.36 0 0 1 2-15.2 23.86 23.86 0 0 1 13.35-11.9c2.51-1 5.14-1.68 7.64-2.68a26.06 26.06 0 0 0 4.19-2.26 21.84 21.84 0 0 0 5.6-5.54c1.23-1.62 1.75-3.55 2.6-5.33.74-1.57 1.32-3.22 2.12-4.75a44.79 44.79 0 0 1 5.55-8.6 13.52 13.52 0 0 1 5.58-3.66 23 23 0 0 1 5.44-1.45 22.59 22.59 0 0 1 6.62.11 22.37 22.37 0 0 1 8 3.06 30.35 30.35 0 0 1 4.55 3.75c2.25 2 3.2 4.77 4.24 7.46.52 1.33 1 2.67 1.58 4 1.07 2.42 2 4.89 3.33 7.2a20.8 20.8 0 0 0 6.93 7.06 26.24 26.24 0 0 0 9.1 3.58c5.23 1.13 8.59 4.54 11.42 8.77a21.46 21.46 0 0 1 3.2 8.13c.27 1.47.36 2.99.53 4.5z"/><path d="m122.05 9.14q1.64 12.12 3.36 24.21a2.85 2.85 0 0 0 .8 1.23 36.29 36.29 0 0 1 10.2 16.9 40.38 40.38 0 0 1 1.63 8 49.07 49.07 0 0 1 .22 10.56 45.81 45.81 0 0 1 -6.07 20.96 18.69 18.69 0 0 1 -5.19 5.56 10 10 0 0 1 -10.41.86 16.14 16.14 0 0 1 -5.15-4.32c-2.42-2.78-3.74-6.12-5-9.5a38.55 38.55 0 0 1 -2.09-8.3 37 37 0 0 1 -.49-4.68 43.07 43.07 0 0 1 .28-5.07c.26-2.74.55-5.48.92-8.22a76.06 76.06 0 0 1 2.42-9.62 21.59 21.59 0 0 1 2.78-6.71 16.89 16.89 0 0 1 5.63-5.46 2 2 0 0 0 1-1.63q2.13-10.83 4.29-21.66c.25-1.02.57-2 .87-3.11z"/><path d="m79.68 7.46q.82 6.1 1.83 12.2a33.41 33.41 0 0 0 2.71 13.09.75.75 0 0 0 .36.32 15 15 0 0 1 5.71 4.62 22.5 22.5 0 0 1 3.89 7.37 55.37 55.37 0 0 1 2.89 10.52 67.13 67.13 0 0 1 .63 11.68 31.38 31.38 0 0 1 -1.7 12.55c-1.23 3.67-2.52 7.38-4.95 10.5a17.55 17.55 0 0 1 -5.15 4.86 10 10 0 0 1 -10.2.11 17.39 17.39 0 0 1 -5.07-4.63c-2.74-3.44-4.11-7.48-5.4-11.59-1.82-5.81-2.1-11.76-1.89-17.76.35-10.3 4.08-21.5 12-28.44 1.13-1 1-2.34 1.21-3.6.48-3.3 2.88-20.81 3-21.81z"/><path d="m34.14 54.69c-1.53 7.88-.08 15.37 2.6 22.72 4.68-1.16 8.54.54 12.23 3.07a35.55 35.55 0 0 1 5.36 4.9 41.05 41.05 0 0 1 5.19 7.29 48.66 48.66 0 0 1 5.24 13.38 34 34 0 0 1 .91 10.08 13.83 13.83 0 0 1 -.56 3.51 15.25 15.25 0 0 1 -3.31 6.44 9 9 0 0 1 -8.32 2.49 18.11 18.11 0 0 1 -8-3.77 38.24 38.24 0 0 1 -5.52-5.35 48 48 0 0 1 -5.45-8.31 42.37 42.37 0 0 1 -4.31-12.07 48.76 48.76 0 0 0 -1.24-10.5c-2.35-4.4-5.35-34.45 5.18-33.88z"/></svg>