<svg viewBox="0 0 200 200" xmlns="http://www.w3.org/2000/svg"><path d="m155.62 69.26a49.93 49.93 0 0 1 -11.42-1.16l-.84-.17a8.81 8.81 0 0 0 -1.31-1.35c10.76 1.51 23.81 1.52 33.34-4.79h.64a4.78 4.78 0 0 1 -.86 2.23c-2.38 3.81-13.77 4.76-17.76 5.1 1.68 1.41 4.17 1.8 5.19 3.49l-.31.24-.22-.28a16.65 16.65 0 0 1 -6.45-3.31z" fill="#1b1918"/><path d="m153.76 72.41c-2.88 1-6.41-.75-9-1.71a4 4 0 0 0 -.09-.48 5.54 5.54 0 0 0 -.59-1.36c2.92 1.39 6.39 3.14 9.68 3.55z" fill="#1b1918"/><path d="m146 78.3c1.36 4.87 3.38 5.9-1.62 6.07-4.66.17-10.69-4-13.9-7.12.35-.1.7-.2 1-.32.75.64 15.49 7.93 15.28 6-.47-1.49-.9-3-1.29-4.52z" fill="#1b1918"/><path d="m139.14 75.65a37.36 37.36 0 0 1 4.54 4.72 48.46 48.46 0 0 1 -5.07-3.37 2.32 2.32 0 0 0 .53-1.35z" fill="#1b1918"/><path d="m139.63 75.05c9 2.14 13.75.85 22.44-2.45l.22.28c-4.47 3.56-10.48 6.52-16.25 5.42l-.48.13a2.17 2.17 0 0 1 -.07-.24 14.81 14.81 0 0 1 -5.87-3z" fill="#1b1918"/><path d="m110.27 86.36c3.69-1.37 7.44-5.1 11.41-4.83s6.75 4 9.44 6.61c6.25 6 13.94 11.32 19.66 17.72a6 6 0 0 1 -1.2.12v-.33a5.43 5.43 0 0 0 .56.09c-8.23-5.14-14.84-12-22-18.48s-9.83-2.85-17.64 0c-.02-.26-.12-.59-.23-.9z" fill="#1b1918"/><path d="m114.19 51.93a6.93 6.93 0 0 1 .17 5.23c-.18-.27-.37-.53-.56-.79a31.35 31.35 0 0 1 .2-4.06c-.49 1-1 1.87-1.47 2.66-.52-.44-1-.87-1.58-1.3 5.1-8.83 4.68-17.73 16.28-18.1 9.29-.3 22.2 2.16 30.15-4.26l.16.13a11.1 11.1 0 0 1 -2.54 2.19c13.26-1.63 28.19-2.34 41.17 1.5-1.26 5.64-11.71 9.17-16 10.73 14.44 4.36-6.16 10.86-11.18 11.41 3.17 1.81 7.24 2 7.09 4.55h-.64c-2.17-1.84-5.31-2.76-7.67-4.4a93.77 93.77 0 0 1 -22.46-.48 149.82 149.82 0 0 0 22.23 5.81c-.78.05-1.57.08-2.36.08-7 0-14.45-2-20.8-4.6a67.58 67.58 0 0 0 3.86 7c-3.79 0-7.58.62-11.34.55a2.53 2.53 0 0 0 .91.17 8.43 8.43 0 0 0 -1 .54l-.29-.72c-6.13-.21-11.68-6-13.06-12.21-2.21 6.08 8.07 11.56 11 14.72l-.25.22c-4.7-3.86-9.61-4.22-11.41-11.55a9.46 9.46 0 0 1 -1.52 2.88c1.85 3.13 3.49 7.08 6.49 9.25q-2-1.15-4.06-2.19a20.05 20.05 0 0 1 -2.61-6.89 6.19 6.19 0 0 1 -1.1 1c.32 1.72.92 3.37 1.32 5.07a6.28 6.28 0 0 0 -1-.13 14.27 14.27 0 0 1 -1.08-6 25.65 25.65 0 0 0 -2.2-4.52 11.67 11.67 0 0 1 -1 4.23c-.19-.27-.38-.55-.56-.83a17.43 17.43 0 0 0 1.16-4.05 33.2 33.2 0 0 0 -2.25-3z" fill="#1b1918"/><path d="m111 88.94c8.06-3.9 10.56-6.47 17.81.32 5.76 5.41 12.59 15 20.82 16.39v.33a8 8 0 0 1 -2-.28c10.06 8.11 20.28 17.63 27.34 28.74-3.32 3.07-12.19-1.86-15.38-3.51 7.65 12.16-8.18 3.7-12.37.23 1.38 3.31 5.58 7.44 1.6 8.78-3.42 1.15-12-6.36-14.41-8.48.55 2.09 2.07 4 2.06 5.86-5.1-.6-10.42-3-13.62-7.3-1.7 6.45-2.36 5.44-5.67-.13s-5.48-11.33-4.06-17.89c.24-1.11.45-2.22.61-3.35.61 5.54 5.92 9.23 6.06 14.78a72.38 72.38 0 0 0 1.79-8.4c-3.89-4.08-5.54-11.52-3.76-17.09-4.82 3.16 1.87 15.71 1.39 19.42-.2-6.59-5.44-10.17-3.23-17.54a5.17 5.17 0 0 1 -2.25.93v.69a.84.84 0 0 1 -.16-.49.55.55 0 0 1 0-.18l-.14-.66c2.19-.89 3.76-2 4.4-3.46-.4-2.79-1.43-5.52-1.62-8.34-.43.3-.85.62-1.27.91 1.63 3.51 1.8 6.6-.27 9 1.15-3.37.28-5.39-.32-8.66a15.06 15.06 0 0 1 -1.54.81 21.77 21.77 0 0 1 .27 8 11.29 11.29 0 0 1 -.39-3.57l-.28.38-.14-.68c.14-.14.28-.28.41-.43 0-1.2-.12-2.39-.26-3.57l-.18.08a6.46 6.46 0 0 1 -.44 1.68l-.23-1.07.39-.48-.45.19c-.15-.6-.32-1.28-.51-1.96z" fill="#1b1918"/><path d="m110.22 69c.39.35 2.52 2.46 2.92 2.8a29.15 29.15 0 0 1 -5.06 7.2c0-.57 0-1.14 0-1.71.27-1.27.13-1.85.45-3.1 1.29-2.77.24-7.89 1.69-5.19z" fill="#1b1918"/><path d="m110.7 48.21c3.21-6.78 4.66-14 13.06-15.55 4.85-.9 10.52-.22 15.47-.37 6.13-.18 12.7-1.86 18.75-1.4-.14.19-.28.37-.44.55l-.16-.13c-10.09 2.67-20.19 2.64-30.5 3-12.84.46-10.12 10-17.6 18.09a6.66 6.66 0 0 0 -.69-.38 31.13 31.13 0 0 0 2.11-3.81z" fill="#1b1918"/><path d="m95.38 49.54c.28 1.08.12 2.9-3.63 3.18-2-.83-2.32-11.08-3-14.07-1.28-5.44.76-12.32 8.68-13.58 6.54-1.05 10.55 3.64 12 9.31.3 1.13 2.49 7.95 2.75 9 .11.48-.68 2.62-1.68 4.7-1.09 2.25-2.42 4.42-3.1 4.33-3.78-.54-3.21-5-3.21-.71 0 1.51 2.93 0 6.09 3 2.74 2.61 6.31 8.92 8 12.38 6.63-.36 9.65 5.31 16.19 2.78 1.9-.74 2.84-3.2 5.27-2.85 1.06.15 3.56 2 3.87 3.32a.86.86 0 0 1 -.09.69c0-.27-2-.44-3.73.48l-1.79 1.22c-3.9-.07-16.21-.06-20.32-.69-4.7-.73-5.56-2.78-7.9-5.19.12-3.93-.09-1.47-.14-6.59.09 9.8-2.24 10.83-1.88 20.12.78 2 1.48 4 2.08 6.1.48 1.63.9 3.27 1.26 4.9a76.78 76.78 0 0 1 1.6 10.4c.51 6.24-1.21 12.34-3 18.21-1.63 5.23-4.65 10.71-5.12 16.24-.53 6.29.14 11.36-1.4 17.89-1.36 5.76-2.11 10.68-1.08 16.6.31 1.75 4.32 17.57.46 14.27-.32.64-1 .76-1.31 0-.62.07-1-.17-1-.7a1.18 1.18 0 0 1 -1.09-1.28c-.56.07-1-.07-1.09-.67a1.08 1.08 0 0 1 -.88 0c-.16.6-.55.78-1.18.54-.11.93-.75 1-1.35.48-4.19 2-.17-9.45.14-10.77a36.45 36.45 0 0 0 .75-13.45c-.86-5.62-3.14-10.7-2.82-16.53.3-5.24.51-7.84-1-13-3.87-13.28-8-23.84-3.84-37.65 1.86-6.24 4.83-10.48 2.31-16.83a31.25 31.25 0 0 1 -2.48-15l-2.65-.34c1.82-2.94 3.79-5.73 7.28-7 3.67-.33 3.88-1.35 3-3.16a1.81 1.81 0 0 0 -.37-.78.69.69 0 0 0 .09.22c.13.12.23.3.31.48zm3.91 58.38a10.21 10.21 0 0 1 1.13-3 9.85 9.85 0 0 1 -2.42.08 24.16 24.16 0 0 1 1.22 4.23z" fill="#1b1918"/><path d="m100.42 104.91a10.21 10.21 0 0 0 -1.13 3l-.09 1.33a24.16 24.16 0 0 0 -1.2-4.24 9.85 9.85 0 0 0 2.42-.09z" fill="#fff"/><g fill="#1b1918"><path d="m95.38 49.54c-.08-.18-.18-.36-.28-.56a.69.69 0 0 1 -.09-.22 1.81 1.81 0 0 1 .37.78z"/><path d="m85.07 59.69 2.65.34a25.7 25.7 0 0 0 0 9 29.4 29.4 0 0 1 -16.56 7.35c-1.13.13-4.86-2.28-4.86-2.28-1.11-1-1.66-1.14-3.69-2.12-4.12-2-4.06 2.22-7.43-.22-1.44-1 2.48-4.06 3.44-4.25 2.37-.46 2.64 1 4.57 1.61 3.38 1.13 5.35 3.5 9.25 2.39.85-.24 2.19-1.35 6.27-3.94 2.86-1.86 4.54-4.95 6.36-7.88z"/><path d="m77.3 60a19.82 19.82 0 0 1 -2.81 7.28c-2.12 1.06-4.18 3.08-6.65 3.19 4.81-1.66 6.82-6.37 9.29-10.57z"/><path d="m54.72 80.37a37.58 37.58 0 0 1 4.6-4.77 2.5 2.5 0 0 0 .46 1.4 47.76 47.76 0 0 1 -5.06 3.37z"/><path d="m44.64 72.41c3.36-.42 6.89-2.23 9.94-3.65a4 4 0 0 0 -.89 1.93c-2.63.97-6.17 2.74-9.05 1.72z"/><path d="m54 84.37c-5-.17-3-1.2-1.61-6.07l.48.13c-.4 1.52-.82 3-1.29 4.52-.21 1.82 14.18-5.1 15-5.75l.94.45c-3.22 2.94-9.06 6.88-13.52 6.72z"/><path d="m48.1 105.74c8.48-1 15.49-10.95 21.38-16.48 7.38-6.92 9.86-4.05 18-.21-.19.67-.39 1.33-.61 2l-.56-.24.45.58-.3 1a6.88 6.88 0 0 1 -.44-1.68l-.18-.08c-.14 1.18-.23 2.37-.26 3.57l.26.28c0 .2-.11.4-.16.6l-.11-.15a5.69 5.69 0 0 1 -.5 2.68 20.88 20.88 0 0 1 .38-7.16 17.35 17.35 0 0 1 -1.45-.85c-.6 3.27-1.47 5.29-.32 8.66-2.07-2.44-1.9-5.53-.27-9-.42-.29-.84-.61-1.27-.92-.19 2.83-1.22 5.56-1.62 8.35.62 1.41 2.13 2.51 4.23 3.39 0 .32-.08.63-.12.95v-.24a5.22 5.22 0 0 1 -2.25-.93c2.21 7.36-3 11-3.23 17.54-.48-3.72 6.22-16.27 1.39-19.42 1.79 5.56.13 13-3.76 17.09a72.2 72.2 0 0 0 1.79 8.39 0 0 0 0 1 0 0c.15-5.84 5.73-9.67 6.13-15.66.15 1.33.36 2.64.63 3.94l-.09.3.05.06h.12c1.38 6.67-1.18 13.33-4.88 18.85s-3.5 4.8-5-.93c-3.2 4.29-8.51 6.7-13.62 7.3 0-1.83 1.51-3.77 2.06-5.86-2.45 2.12-11 9.63-14.4 8.48-4-1.34.22-5.47 1.59-8.78-4.19 3.46-20 11.93-12.37-.23-3.19 1.65-12.06 6.58-15.37 3.51 7.05-11.11 17.28-20.63 27.33-28.74a7.36 7.36 0 0 1 -2.64.24z"/><path d="m70.08 87.26c-7.14 6.52-13.75 13.34-22 18.48v.2a4.85 4.85 0 0 1 -.55-.08c5.72-6.41 13.4-11.76 19.65-17.72 2.69-2.58 5.53-6.34 9.44-6.61s7.86 3.55 11.62 4.9a8.46 8.46 0 0 0 -.27.95c-7.97-2.64-10.55-6.83-17.89-.12z"/><path d="m52.36 78.3c-5.77 1.11-11.79-1.86-16.26-5.42l.22-.28c8.69 3.3 13.45 4.59 22.44 2.45h.09a6.69 6.69 0 0 1 1.18-1.35 3.2 3.2 0 0 0 -.63 1.3c-.2.07-.39.15-.59.24a14.81 14.81 0 0 1 -5.87 3 2.17 2.17 0 0 1 -.07.24z"/><path d="m40.86 31.44c-.16-.18-.3-.36-.44-.55 10-.76 22.55.65 32.68 1.64 5.68.56 8.13 2 10.78 7.07 1.33 2.56 2 8.31 4.39 9.89.5.9 1 1.81 1.67 2.74l-.66.37c-7.75-7.93-4.74-17.8-17.76-18.27-10.32-.33-20.41-.33-30.52-3.02z"/><path d="m35.8 72.64c1-1.69 3.5-2.08 5.19-3.49-4-.33-15.38-1.29-17.77-5.1a4.86 4.86 0 0 1 -.87-2.23h.66c9.68 6.41 22.93 6.29 33.84 4.72a6.3 6.3 0 0 0 -1.51 1.36 51.09 51.09 0 0 1 -12.56 1.39 16.62 16.62 0 0 1 -6.46 3.34l-.22.28z"/><path d="m22.35 61.82c-.13-2.53 3.95-2.75 7.1-4.55-5-.55-25.61-7.05-11.17-11.41-4.28-1.56-14.77-5.09-16.03-10.73 13-3.83 27.91-3.13 41.17-1.5a10.67 10.67 0 0 1 -2.56-2.19l.16-.13c7.95 6.42 20.86 4 30.15 4.26 11.67.37 11.16 9.39 16.35 18.22a16.48 16.48 0 0 0 -1.52 1.33c-.5-.83-1-1.78-1.56-2.81a29.59 29.59 0 0 1 .2 4.26c-.18.21-.36.43-.53.65a6.94 6.94 0 0 1 .14-5.29l-.11-.23a31.73 31.73 0 0 0 -2.25 3 17.52 17.52 0 0 0 1.13 4c-.19.27-.37.55-.55.84a11.43 11.43 0 0 1 -1-4.18 24.64 24.64 0 0 0 -2.2 4.52c.17 1.89-.52 4.17-1.12 6.22a9.18 9.18 0 0 0 -1.15.2c.48-1.76 1-3.53 1.38-5.33a6.19 6.19 0 0 1 -1.11-1l-.17-.1a.21.21 0 0 0 0-.06 9.35 9.35 0 0 1 -1.52-2.88c-1.81 7.36-6.74 7.69-11.44 11.58l-.14-.22c2.89-3.19 13.23-8.64 11-14.76-1.38 6.16-6.93 12-13.06 12.21l-.37.91a1.71 1.71 0 0 0 -.23-.13l.09-.13-.11.12a5.45 5.45 0 0 0 -1.27-.51 4.24 4.24 0 0 0 1.5-.27c-1.43 0-3-.09-4.63-.21-2-.16-4.26-.34-6.71-.33a70.72 70.72 0 0 0 3.86-7c-6.35 2.58-13.79 4.6-20.8 4.6-.79 0-1.58 0-2.36-.08a149.82 149.82 0 0 0 22.23-5.81 93.77 93.77 0 0 1 -22.46.48c-2.37 1.62-5.5 2.62-7.68 4.41z"/></g><path d="m99.07 16.38c1.75 0 9.6.3 9.6 3.59s-7.85 3.6-9.6 3.6c-1.93 0-9-.21-9.35-3-.44-3.9 7.01-4.19 9.35-4.19z" fill="none" stroke="#000" stroke-miterlimit="10" stroke-width="2"/></svg>
