<svg id="Dragon" xmlns="http://www.w3.org/2000/svg" viewBox="0 0 200 200"><title>Dragon</title><path d="M2,129.19c.64-2.11,1.12-4.54,2.2-6.43,1.28-2.25,3.57-4.09,5.29-5.89,3.72-3.91,7.33-8.41,11.37-11.82,3.33-2.84,8-2.57,12-3,5-.58,10-1.21,15-1.93-.72-1.53-1.64-3.1,0-4.68.56,2,1.08,3.46,3.09,3.78,1.6.27,3-1.12,3.48,1.66,2,.77,4,2.7,5.89,3.83,2.48,1.48,4.8,3.23,7.29,4.72,3.56,2.2,10.25,5.53,14.41,3.59-2.8-3.73,2.13-4.31,3.77-5.39s3.68-2.61,4.48-4.72c1.08-2.75,2.85-7.51,2.65-10.57C92.58,87.69,90.7,83,89.7,78.6c-.64-2.69-2.32-4.76-3.6-7.24a39.74,39.74,0,0,0-4.69-7.87c-2.72-3.1-5-3.82-8.77-4.13-3.36-.32-6.45,1.17-9.85,1.17.4-1.44,1.76-2.52,2.56-3.69,0,.45,0,.81,0,1.26.28-.45.48-.81.76-1.22A7.79,7.79,0,0,1,66.27,58a3.91,3.91,0,0,0,2.37-.81,2.87,2.87,0,0,0,.2.5,6,6,0,0,1,.44-.59,1.92,1.92,0,0,1,.44.36c.2-2.52-5-.76-6.13-1.44,1.4-.13,2.36-1.12,3.77-1.26s2.68,1.49,3.76,1.4c2-.18,2.52-2.88,5.17-1.89.48-1.53.32-1.84-1-1.66L75,51.35H74a5.3,5.3,0,0,0-.16-.63l-.56.32c.12-.41.2-.72.32-1.13-.24,0-.48,0-.72-.09-.12-.9-.28-1-1-.72-.12-.36-.2-.67-.36-1.17-.28.36-.44.59-.68.86-.44-.5.6-2.29-1-1.62-.08-.36-.16-.67-.24-1-.28.23-.52.5-.88.81,0-.4,0-.85-.08-1.53-.36.63-.6,1.13-.88,1.62h-.2c.08-1.17.76-3.19-.85-2.83-.4-1.35,1.49-2.12,2.37-2.25a5.57,5.57,0,0,1,4.76,1.93c1.2,1.31,1.77,3.15,3.29,4.27s1.52.63,3.08.23c.16,1.21,1.68,0,2.12,0-.12.23-.24.45-.4.72a4.52,4.52,0,0,0,2,.5c-.12,3.73,5.65,4.41,7.21,6.92-1.88-.13-2.72-1.3-4.6-1.3.36.45.64.85,1.08,1.44-1.2-.45-1.56.67-2.28,1.08H87.1c-.4.49-.68.85-1,1.21.24.45.24.45,2.44.09-.44.63-.8,1.17-1.28,1.89.64-.22,1.12-.4,1.56-.58l.12.13a13.37,13.37,0,0,0-1,1.17c.72,1,1.32-.49,2,0-.28.4-.6.85-1,1.39a8.17,8.17,0,0,0,1-.18c-.2.27-.32.5-.48.72.88,1.53,2.4.27,3.65-.22,0,.09.08.13.12.22-.72.68-1.45,1.31-2.17,2,.4.45.52.63.68.81.81-.49,1.61-.94,2.37-1.39,0,0,.08.13.12.18-.52.81-1,1.57-1.56,2.43.28.36.52.72.8,1.08.8-.45,1.56-.9,2.32-1.31l.08.09c-.88,1.53-1.88,3.55.4,4.36a89.28,89.28,0,0,0,5.93,10.57c2.68,3.87,4.4,4.32,8.57,5.26,3.12.72,6.48-1.93,9.85-2.11s7.85.76,10.77-2.07c5.65-5.53,2.68-16.23.64-22.75a27.86,27.86,0,0,0-2.72-6.21c-.72-1.12-2.2-2.38-2.28-3.78s1.24-1.93.24-3.37c-.81-1.17-4.33-1.26-5.57-1.48,2.56-.9,7.85-2.39,9.33,1.25,3.08-6.16,7.09-11.55,10.13-17.71,1.44-2.93,2.44-6.61,4.33-9.18,1.6-2.25,4.08-2.83,6.44-3.86,6-2.61,12.06-4.91,18.18-7.06,5.85-2.07,13.06-3.6,18.91-.72,0,.09,0,.18-.08.27-3.41-.41-4.69.81-5.61,4.72a21,21,0,0,0,.76,11.33c2.8,7.55,8.17,12.41,13.42,17.72,0,.09-.08.13-.12.22l-3.13-2.07c-4.36,6.43-8.21,13.4-8.37,21.81a28.16,28.16,0,0,0,2.37,10.93c.92,2.43,4.16,6.66,3.76,9.36-1.32-2.25-1.52-3.29-4-3.33a39.27,39.27,0,0,0-7.65.45,37.36,37.36,0,0,0-12.9,5.08,27.21,27.21,0,0,0-9.45,10.39,70.09,70.09,0,0,0-3.76,8.63c-1.37,3.64-1.85,4.86-.28,8.41a.26.26,0,0,1-.16.09c-1.73-2.79-2.57-3.69-5.49-4.63s-5.73-1.76-8.61-2.47c-5.61-1.4-11.41-2.52-17.18-1.71.44.31.68.49,1,.76-.68,1.08-2.8-.22-3.88,0,.4.4.76.72,1.12,1.07.16-.13.28-.26.48-.4.92,2.16,4.8,6.12,7.13,5.4a31.14,31.14,0,0,0,4.92,3.19c0,.09,0,.18,0,.27.12-.18.28-.36.52-.68,0,2.66,2.17,3.42,3.25,5.45.32-.59.52-1,.76-1.35.08,0,.2,0,.28,0-.64,2,1,2.39,1.72,3.46.4-.4.76-.71,1.2-1.16,0,3.55,3,6.16,5.45,8.49A8.63,8.63,0,0,0,149,131.8c.2-.13.4-.27.76-.54-.6,3.6,2.64,2.48,4.69,4s2,3.78-.76,3.24c1.08,1.17,0,1.57.32,2.74a18.65,18.65,0,0,0,1.76,3.33,62.36,62.36,0,0,1,3.56,8.09c1,2.79,2.32,5.53,3.13,8.37s.76,5.48,1.84,8.09c2.2,5.49,6.77,9.81,10.49,14,1.4,1.57,12,11.78,10.85,13.26h-.44c-7.17-7.37-15.94-13.44-22.34-21.72-3-3.82-4.49-8.27-6.49-12.72a107.47,107.47,0,0,0-15.86-25.55,61.87,61.87,0,0,0-5.37-5.62c-2-1.84-2.12-2.29-3.64-.49-.64.76-3.92,3.19-4,3.87-.12,1.25,2.2,4,2.8,5,1,1.62,2,3.55,3.4,4.31s3.49.23,4.21,2.34c-1.2-.9-2-.4-2.65.59.85,1.66,4.21,1.8,5.73,2.2-.08-.81-.16-1.62-.2-2.38a5.23,5.23,0,0,0,.76-.18c-.2-.54-.36-1-.56-1.53a.26.26,0,0,1,.16-.09c.72.9,1.48,1.8,2.2,2.7a.48.48,0,0,1,.24-.09c0-.63.12-1.22.16-2,1.21,2.57,1.49,6.61-.64,8.73-1.72,1.71-5.32.67-7.24-.14-5.25-2.29-6.37-11.46-12.22-12.23-4.44-.58-14.3,2.83-16.62-3.91-.6-1.76.6-5.62,1.44-7.24,1.57-3,4.89-4.63,7.73-5.58-5.4-1.12-10.29-3.42-13.89-8.36-3.17,4.22-4.49,8.32-6.17,13.44-1.72,5.36-4.41,10.12-2.68,15.7-1.21-1.53-1.65-2.88-3.25-4a30.11,30.11,0,0,0-5.2-2.61c-3.57-1.53-7.09-2.25-10.74-.54A21.17,21.17,0,0,0,66.47,145c-2.08,2.92-3.6,5-1,7.73-1.36-.18-1.88-1.35-2.72-2.38a35.66,35.66,0,0,0-4.32-4.45,20.64,20.64,0,0,0-9.54-4.72c-7.28-1.58-14.93.54-22.1,1.84.16,1,.32,1.84.48,2.7a2.34,2.34,0,0,0-.24.09C25,140.3,21,134,16.26,131a15.36,15.36,0,0,0-8.69-2.29c-1.24,0-3.45.13-4.49,1.08-.68.63-.24,1.44-1,1.84C2,130.68,2,129.91,2,129.19Zm73.24-72.4c-.44-1.21-.76-1.3-1.6-.4C74,57.42,74.64,57,75.24,56.79Zm9.18-.9c.08.09.12.18.2.27.4-.09.76-.18,1.4-.36C85.18,55.13,85.38,55,84.42,55.89Zm38.64,78.88c0,.09,0,.23,0,.31.72-.08,1.44-.17,2.16-.31,0-.09,0-.22,0-.31C124.5,134.55,123.78,134.68,123.06,134.77Z"/></svg>