<svg viewBox="0 0 200 200" xmlns="http://www.w3.org/2000/svg"><path d="m138.23 142.16c0 29.43-34.8 49.3-49.23 49.3s-49.23-19.87-49.23-49.3 22.04-52.29 49.23-52.29 49.23 22.86 49.23 52.29z"/><path d="m56.84 50.59a24.57 24.57 0 0 1 -9.43-3 14.46 14.46 0 0 1 -4-3.47 12.56 12.56 0 0 1 -2.41-4.84 14.74 14.74 0 0 1 1.28-10 21.26 21.26 0 0 1 6-7.32 19.46 19.46 0 0 1 3.95-2.51 22.78 22.78 0 0 1 4.27-1.55 29.72 29.72 0 0 1 8.94-.71 27.75 27.75 0 0 1 8.63 1.94 17.26 17.26 0 0 1 7.14 5 11.21 11.21 0 0 1 2.51 8 18.76 18.76 0 0 1 -2.81 7.9 43.52 43.52 0 0 1 -5.2 6.66c-1 1-2 2-3 2.94l-.77.67-.82.61c-.53.42-1.12.77-1.69 1.14-4.7 2.87-10.27 3.95-15.89 5.75a43.81 43.81 0 0 0 -8.35 3.59 34.87 34.87 0 0 0 -7.41 5.67 46.67 46.67 0 0 0 -5.78 7.23 68.4 68.4 0 0 0 -4.37 8 109.22 109.22 0 0 0 -6.06 16.86 51.08 51.08 0 0 0 -1.64 18.92 55.09 55.09 0 0 0 5.41 18.38 75.79 75.79 0 0 0 10.41 15.7 108.3 108.3 0 0 0 13.17 13 147.22 147.22 0 0 0 14.75 10.78q3.84 2.46 7.82 4.71c1.33.74 2.67 1.48 4 2.19l2.08 1.06c.73.36 1.37.67 2.26 1.07.76-3 1.76-6 2.7-9s2-5.93 3-8.88a133 133 0 0 1 -14.35-7 123.33 123.33 0 0 1 -13.42-8.71c-8.44-6.34-15.92-13.83-20.64-22.47a40.64 40.64 0 0 1 -4.6-13.6 30 30 0 0 1 -.34-3.55 28.67 28.67 0 0 1 0-3.59l.12-1.81c0-.3 0-.6.06-.91l.15-.9.29-1.81a19 19 0 0 1 .35-1.88 95.49 95.49 0 0 1 4.51-15.3 50.2 50.2 0 0 1 3.28-6.84 31.66 31.66 0 0 1 4.2-5.8 26.42 26.42 0 0 1 5.28-4.43 38.19 38.19 0 0 1 6.58-3.28c2.46-1 5.19-1.87 8.09-3a38.74 38.74 0 0 0 8.8-4.72 30.44 30.44 0 0 0 4-3.49c1-1.19 2.09-2.29 3.07-3.53a44.76 44.76 0 0 0 5.35-8.14 22.7 22.7 0 0 0 2.69-10.65l-.08-1.51c-.07-.5-.17-1-.26-1.52a17.6 17.6 0 0 0 -.9-3 16.8 16.8 0 0 0 -3.39-5 8.28 8.28 0 0 0 -1.06-1c-.37-.31-.73-.63-1.1-.92a23.32 23.32 0 0 0 -2.32-1.49l-1.19-.65-1.25-.58a25.58 25.58 0 0 0 -2.45-.87 33.39 33.39 0 0 0 -19.63.07c-.8.29-1.6.54-2.39.91l-1.18.53-1.15.64a22.58 22.58 0 0 0 -2.24 1.46c-.68.53-1.33 1.06-1.94 1.64a23.46 23.46 0 0 0 -5.92 8.39 16.33 16.33 0 0 0 -.68 11 13.81 13.81 0 0 0 2.88 5.07 15.48 15.48 0 0 0 4.42 3.36 24.49 24.49 0 0 0 9.67 2.39z"/><path d="m143.92 31.5a4.51 4.51 0 0 0 2.24.82 2.28 2.28 0 0 0 .89-.12 3.35 3.35 0 0 0 .94-.6 7 7 0 0 0 1.73-2.52 14.49 14.49 0 0 0 1-3.46 21.14 21.14 0 0 0 -.16-7.6 20.4 20.4 0 0 0 -1.15-3.68c-.25-.59-.54-1.16-.84-1.73l-.25-.41-.21-.35c-.14-.24-.32-.47-.48-.71a9.06 9.06 0 0 0 -1-1.16 6 6 0 0 0 -1.29-.83 6.17 6.17 0 0 0 -1.46-.51 8.93 8.93 0 0 0 -1.55-.14 15.22 15.22 0 0 0 -6.49 1.77 34.65 34.65 0 0 0 -11.2 9.22 32.07 32.07 0 0 0 -6.55 13.27 23.52 23.52 0 0 0 -.38 7.59 22.23 22.23 0 0 0 2.29 7.37 19.92 19.92 0 0 0 4.84 6.2 32.26 32.26 0 0 0 6.56 4.25c4.57 2.3 9.12 4.13 12.93 6.84a30.73 30.73 0 0 1 9.18 10.11 52.56 52.56 0 0 1 5.06 13 43.28 43.28 0 0 1 1.28 13.55 43.8 43.8 0 0 1 -3 13.09c-3.31 8.4-8.94 15.9-15.55 22.43a117 117 0 0 1 -22.35 17 119.54 119.54 0 0 1 -12.39 6.43 65.91 65.91 0 0 1 -6.15 2.38 16.33 16.33 0 0 1 -2.49.64h-.16s0 0 0 .17l.07.43c0-.32.19 1.3-.1-.61s0 0 0 0a.25.25 0 0 1 0-.08c0 2.69-.26 5.61-.39 8.84a41.25 41.25 0 0 0 .86 9.78 14 14 0 0 0 1.89-.15 17.89 17.89 0 0 0 1.76-.34c1-.24 1.8-.49 2.57-.75 1.53-.53 2.86-1.08 4.16-1.65 2.59-1.14 5-2.36 7.34-3.64a137.11 137.11 0 0 0 13.42-8.42 129.88 129.88 0 0 0 23.66-21.15 90.92 90.92 0 0 0 9.47-13.18 67.94 67.94 0 0 0 6.67-15.24 55.22 55.22 0 0 0 2.27-16.84 54 54 0 0 0 -3-16.6c-.46-1.28-.87-2.55-1.42-3.81l-.78-1.9-.88-1.89c-.56-1.25-1.28-2.48-1.93-3.72s-1.46-2.44-2.31-3.61a40.69 40.69 0 0 0 -5.72-6.62 39.64 39.64 0 0 0 -7.07-5.19c-5-2.89-10.1-4.49-14.15-6.25a25 25 0 0 1 -5.18-2.93 14.11 14.11 0 0 1 -3.46-4 16.38 16.38 0 0 1 -2-10.9 27.7 27.7 0 0 1 4.82-11.45 31 31 0 0 1 9.26-8.76 19.24 19.24 0 0 1 2.64-1.27 8.2 8.2 0 0 1 2.14-.52 4 4 0 0 1 2 .24 3.82 3.82 0 0 1 .9.46 6.21 6.21 0 0 1 .74.71c.12.15.27.3.37.45l.15.2a4.15 4.15 0 0 1 .24.34 15.11 15.11 0 0 1 .86 1.46 17.46 17.46 0 0 1 1.29 3.22 19.67 19.67 0 0 1 .7 7 13.53 13.53 0 0 1 -.68 3.28 6.87 6.87 0 0 1 -1.32 2.42 3.8 3.8 0 0 1 -.72.62 2.23 2.23 0 0 1 -.72.22 3.89 3.89 0 0 1 -2.26-.51z"/><path d="m100.27 4.53a3.37 3.37 0 0 0 -1.16.19 1.13 1.13 0 0 0 -.61.6 7.42 7.42 0 0 0 -.3 3.59 52.37 52.37 0 0 0 2 8.89c1.78 6 3.87 12 5.47 18.06a75.53 75.53 0 0 1 1.89 9.23 31.33 31.33 0 0 1 0 9.17 13 13 0 0 1 -3.75 7.52 12.35 12.35 0 0 1 -3.41 2.22c-1.21.52-2.81 1-4.26 1.58l-17.84 6.23a144.89 144.89 0 0 0 -18 7.39 43.6 43.6 0 0 0 -8.85 5.86 23.8 23.8 0 0 0 -4 4.52 18.39 18.39 0 0 0 -1.61 2.86c-.24.5-.41 1-.61 1.59a10.28 10.28 0 0 0 -.48 1.64 19.62 19.62 0 0 0 -.4 6.76 27.44 27.44 0 0 0 1.49 6 46.55 46.55 0 0 0 5.23 9.81q5.24-4.69 10.61-9.18a28.68 28.68 0 0 1 -4-6.31 8.94 8.94 0 0 1 -.82-5.15 7.8 7.8 0 0 1 .94-2.34 15 15 0 0 1 2.06-2.54 35.79 35.79 0 0 1 6.35-4.86 150.13 150.13 0 0 1 16-8.27l17.06-7.77 2.15-1c.32-.14.78-.37 1.22-.59s.87-.46 1.3-.73a18.53 18.53 0 0 0 4.72-4 17.24 17.24 0 0 0 3.06-5.43 20.74 20.74 0 0 0 1.11-5.72 36.84 36.84 0 0 0 -1.07-10.45 81.55 81.55 0 0 0 -2.88-9.4c-2.2-6-4.82-11.76-7.11-17.45a53.45 53.45 0 0 1 -2.76-8.37 7.77 7.77 0 0 1 -.13-3.27 1 1 0 0 1 .31-.55 2.39 2.39 0 0 1 1.08-.33z"/><path d="m101.62.05a37.33 37.33 0 0 1 5.83 7 26 26 0 0 1 3.31 8.47 25.91 25.91 0 0 1 .11 8.91 37 37 0 0 1 -2.39 8.34 79.76 79.76 0 0 1 -8.48 14.75l-4.93 7c-.81 1.18-1.62 2.36-2.37 3.64a13.56 13.56 0 0 0 -1.85 4.36 15.77 15.77 0 0 0 .15 6.3 18.14 18.14 0 0 0 2.57 5.8 38.79 38.79 0 0 0 8.4 8.73c6.2 4.88 12.83 8.75 18.83 13a58.37 58.37 0 0 1 8.2 6.65c2.29 2.35 3.91 4.88 4.24 7.07a8 8 0 0 1 -.11 3.27 14.36 14.36 0 0 1 -1.47 3.53 35.44 35.44 0 0 1 -5.93 7.26q5.46 4.36 11.09 8.55a42.88 42.88 0 0 0 7-11.3 24.48 24.48 0 0 0 1.75-7.47 19.64 19.64 0 0 0 -1.14-8.11 23.24 23.24 0 0 0 -3.82-6.64 34.56 34.56 0 0 0 -4.82-4.79 73.16 73.16 0 0 0 -10.12-6.8c-6.72-3.86-13.43-7.06-19.21-10.9a30.91 30.91 0 0 1 -7.24-6.27 10 10 0 0 1 -2.4-7.16 2.3 2.3 0 0 0 0-.39 5.94 5.94 0 0 0 .18-.6c.2-.5.39-1 .67-1.57.52-1.1 1.18-2.29 1.85-3.48l4.28-7.34a84 84 0 0 0 7.48-16.13 39.24 39.24 0 0 0 1.79-9.1 27.93 27.93 0 0 0 -.89-9.48 27.11 27.11 0 0 0 -4.15-8.54 37.88 37.88 0 0 0 -6.41-6.56z"/><path d="m119.68 75.31c-.56-1.61-1.07-3.23-1.47-4.9a13.89 13.89 0 0 1 -.44-5.2 3.88 3.88 0 0 1 .47-1.32 2.93 2.93 0 0 1 1-1 5 5 0 0 1 2.61-.49 31 31 0 0 1 5 .79c6.58 1.26 13.13 3.17 18.68 6.77a33 33 0 0 1 7.37 6.39 31 31 0 0 1 4.92 8.26 34.71 34.71 0 0 1 2.24 9.3 38.21 38.21 0 0 1 .19 4.78c0 .79-.06 1.59-.13 2.37a22.56 22.56 0 0 1 -.3 2.24c1.55.15 3.12.15 4.68.16a40.59 40.59 0 0 0 -.47-10.58 38 38 0 0 0 -3.18-10.05 33.18 33.18 0 0 0 -6-8.67 35.48 35.48 0 0 0 -8.34-6.33c-6.08-3.42-13-4.94-19.56-5.81a30.7 30.7 0 0 0 -5.2-.49 5.69 5.69 0 0 0 -3 .8 3.74 3.74 0 0 0 -1.17 1.33 4.93 4.93 0 0 0 -.44 1.54 9.83 9.83 0 0 0 .14 2.79 23 23 0 0 0 .62 2.54c.54 1.63 1.1 3.22 1.78 4.78z"/><path d="m179.18 52.2a68.09 68.09 0 0 0 2.6-11.94 13.24 13.24 0 0 0 -.61-5.94 6.12 6.12 0 0 0 -1.71-2.41 7.86 7.86 0 0 0 -2.67-1.44 17.25 17.25 0 0 0 -6.12-.58 42.47 42.47 0 0 0 -6.15.83 12.63 12.63 0 0 0 -5.78 2.57 14.2 14.2 0 0 0 -3.74 5.21 32.7 32.7 0 0 0 -2.11 12.5 84.22 84.22 0 0 0 1.11 12.46 153.15 153.15 0 0 0 6 24.29c1.37-.76 2.76-1.48 4.15-2.2a148.64 148.64 0 0 1 -6.82-23.17 75 75 0 0 1 -1.51-11.86 29.36 29.36 0 0 1 1.47-11.41 11.76 11.76 0 0 1 3-4.43c.35-.26.68-.56 1-.81l1.17-.63a11.36 11.36 0 0 1 1.27-.47 10.84 10.84 0 0 1 1.38-.4 42.64 42.64 0 0 1 5.84-1 16.18 16.18 0 0 1 5.63.3 5.62 5.62 0 0 1 3.81 3.15 12.67 12.67 0 0 1 .79 5.53 67.92 67.92 0 0 1 -2 11.85z"/><path d="m26.28 39.5a11.31 11.31 0 0 0 -.55-1.9 5.12 5.12 0 0 0 -.42-.81 2 2 0 0 0 -.52-.57 1.42 1.42 0 0 0 -1.5-.12 4.52 4.52 0 0 0 -1.46 1.16 16.21 16.21 0 0 0 -3.28 7.62 16.68 16.68 0 0 0 .58 8.51 12.9 12.9 0 0 0 5.56 6.74 18.22 18.22 0 0 0 4.1 1.79 26.43 26.43 0 0 1 3.81 1.49c2.41 1.16 4.48 2.94 5 5.1s-.38 4.61-1.73 6.78a27.75 27.75 0 0 1 -5.14 5.92c1.12 1.08 2.33 2.08 3.52 3.09a31.86 31.86 0 0 0 5.38-7.38 16.23 16.23 0 0 0 1.59-4.58 10.11 10.11 0 0 0 -.4-5.23 9.55 9.55 0 0 0 -3.16-4.11 16.46 16.46 0 0 0 -4.15-2.32c-.71-.3-1.43-.51-2.15-.75l-2.14-.56a15.58 15.58 0 0 1 -3.57-1.37 10.9 10.9 0 0 1 -4.95-5.4 15.47 15.47 0 0 1 -1-7.67 18.28 18.28 0 0 1 .85-3.88 12.24 12.24 0 0 1 1.75-3.46 4.48 4.48 0 0 1 1.17-1.1 1.14 1.14 0 0 1 1.18 0 1.53 1.53 0 0 1 .48.44 4.38 4.38 0 0 1 .46.75 10.88 10.88 0 0 1 .69 1.82z"/><path d="m40.92 16.56c4.7 3.72 1.88 10.47.37 9.68-1 2.82-4.81 5.59-9.51 1.87s-7.5-15.33-7.5-15.33 11.94.06 16.64 3.78z"/><path d="m51.87 24.15a4.27 4.27 0 0 1 5.48-5c2.27-1 6.25-1 7 2.58s-4.45 10.48-4.45 10.48-7.32-4.45-8.03-8.06z"/><path d="m46.06 53.69c-3.33-1.55-2.22-4.81.69-6.31 0-3.75 1.31-6.74 4.64-5.19s5.91 9.72 5.91 9.72-7.9 3.33-11.24 1.78z"/><path d="m94.47 7.18c3.61-.68 4.06.68 4.38 2.4s.41 3.14-3.2 3.83-9.87-1.35-9.87-1.35 5.08-4.19 8.69-4.88z"/><path d="m79.91 29.59c3.68-.15 3.92 1.26 4 3s-.06 3.18-3.73 3.33-9.58-2.77-9.58-2.77 5.64-3.41 9.31-3.56z"/><path d="m50.88 75.14c-2.78-2.42-2-3.61-.84-4.93s2.22-2.27 5 .15 5 8.59 5 8.59-6.39-1.4-9.16-3.81z"/><path d="m115.71 13.41c-3.29 1.63-4.09.44-4.87-1.13s-1.24-2.92 2.06-4.55 9.88-1.35 9.88-1.35-3.78 5.4-7.07 7.03z"/><path d="m137.2 45.4c-2.63 5.29-5.23 4.33-8.28 2.82s-5.38-3-2.75-8.31 12.28-10.85 12.28-10.85 1.38 11.04-1.25 16.34z"/><path d="m154.37 21.27c-3.6.71-4.12-1-4.54-3.06s-.56-3.85 3-4.56 10 2 10 2-4.83 4.91-8.46 5.62z"/><path d="m113.92 75.81c-1.2-2.88 1.52-4.35 4.32-3.66 2.33-2.38 5-3.58 6.17-.7s-2.17 9.55-2.17 9.55-7.13-2.31-8.32-5.19z"/><path d="m161.08 50.4c-3.39.77-3.91-.67-4.32-2.51s-.59-3.36 2.8-4.14 9.44 1.34 9.44 1.34-4.53 4.54-7.92 5.31z"/><path d="m151.83 93.47c5.89-.46 6-3.24 5.71-6.63s-.79-6.11-6.68-5.65-14.65 7.33-14.65 7.33 9.73 5.41 15.62 4.95z"/><path d="m21.66 81.56a4.26 4.26 0 0 1 .88 7.37c-.54 2.42-2.81 5.68-6.15 4.15s-6-9.69-6-9.69 7.93-3.39 11.27-1.83z"/><g fill="#fff"><path d="m79.45 147.83a39.1 39.1 0 0 1 -11.85 1.67c-7.1 0-12.85-7.67-12.85-7.67a26.17 26.17 0 0 1 11.85-2.67c12.4 0 12.85 8.67 12.85 8.67z"/><path d="m96.75 147.83a39.1 39.1 0 0 0 11.85 1.67c7.1 0 12.85-7.67 12.85-7.67a26.17 26.17 0 0 0 -11.85-2.67c-12.43 0-12.85 8.67-12.85 8.67z"/></g></svg>