<svg viewBox="0 0 200 200" xmlns="http://www.w3.org/2000/svg"><path d="m26.71 52.86 2 24.15c1.09 5.36 6 9.77 12.22 12.7-7.14 0-14-2.7-17.32-8.22l-19.47-29.7 19.06 10.34c-3.1-11.22-20.82-15.9-13.32-37.94-2.71 7.93 5.72 26.81 16.25 30.46l-.13-1.75z"/><path d="m62.05 57.2-.33 3.29c-1.13-2.25-2.38-5-3.55-8a22 22 0 0 1 3.88 4.71z"/><path d="m56.42 50.93 1.44 8c-1.86-1.19-4.46-2.93-7.45-4.93-2.17-10-2.06-19.47 3.46-23.69-.82 6.24 1.51 14.92 4.3 22.17a21.17 21.17 0 0 0 -1.75-1.55z"/><path d="m26 52.9-1.42-22c6.76 9 17.69 17.47 25.81 23.1a100.47 100.47 0 0 0 6.12 18.56l-29.8-19.7z"/><path d="m40.94 89.71c8 0 16.28-3.18 20.58-9.36a20.91 20.91 0 0 0 .53-23.15l1.84-17.81c3.44 11.67 4.19 19.69 10.8 29.17l2.13-11.36c6.16 10.5 3.9 25.26-4.75 32.6-6.63 5.64-20.75 4.82-31.13-.09z"/><path d="m57.86 59-1.44-8a21.17 21.17 0 0 1 1.75 1.52c1.17 3 2.42 5.79 3.55 8l.33-3.29a20.91 20.91 0 0 1 -.53 23.15c-4.3 6.18-12.62 9.38-20.58 9.36-6.23-2.96-11.13-7.37-12.22-12.74l-2-24.15 29.81 19.68a100.47 100.47 0 0 1 -6.12-18.53c2.99 2 5.59 3.74 7.45 5z"/><ellipse cx="51.38" cy="78.09" fill="#fff" rx="10.34" ry="11.04"/><path d="m48.79 138.07s-15.28-10.14-16.85-2.24-1.82 9.53-1.82 9.53l15.14 14.17 9.06-14.39z"/><path d="m77.3 145.4s-15.25-9.28-17.91-1.68c-1.72 4.88-.09 6.19-.09 6.19l13.7 13.2 7.5-11.18z"/><path d="m97.61 145.94s-14.09-6.68-15.68 1.21a14.48 14.48 0 0 0 0 3.57l12.74 14.57 4.1-13.24z"/><path d="m72.53 176.46s19 6.5 20.54-1.4-.4-9.27-.4-9.27l-11.29-14.19-8.33 14.53z"/><path d="m48.13 169.59s21.13 15 22.7 7.08.27-12.3.27-12.3l-16-18.75-8.08 14.1z"/><path d="m22.7 166.2s22 12 23.52 4.08.16-8.58.16-8.58l-17-15.6-6.27 13.4z"/><path d="m95.18 122a14.54 14.54 0 0 1 -8.47-.19 14.59 14.59 0 0 1 -6.52-5.41 14.59 14.59 0 0 1 8.47.18 14.58 14.58 0 0 1 6.52 5.42z"/><path d="m121.23 57.51c-6.17 10.49-3.91 25.27 4.77 32.61 6.63 5.63 20.76 4.81 31.13-.09-8 0-16.27-3.19-20.57-9.37a20.91 20.91 0 0 1 -.56-23.15l-1.85-17.81c-3.43 11.68-4.19 19.7-10.79 29.17z"/><path d="m136 57.51a20.91 20.91 0 0 0 .54 23.15c4.3 6.18 12.61 9.39 20.57 9.37 6.23-2.94 11.13-7.34 12.22-12.71l2-24.15-29.82 19.68a102.25 102.25 0 0 0 6.12-18.56c-3 2.06-5.58 3.77-7.45 5l1.45-8a19.79 19.79 0 0 0 -1.76 1.52c-1.17 3-2.41 5.8-3.54 8.05z"/><path d="m136 57.51.34 3.3c1.13-2.25 2.37-5 3.54-8.05a22.83 22.83 0 0 0 -3.88 4.75z"/><path d="m141.63 51.24-1.45 8c1.87-1.2 4.46-2.91 7.45-5 2.18-10 2.07-19.47-3.45-23.7.82 6.25-1.51 14.93-4.31 22.17a19.79 19.79 0 0 1 1.76-1.47z"/><path d="m141.51 72.85 29.83-19.68h.68l1.42-22c-6.76 9-17.69 17.47-25.81 23.11a102.25 102.25 0 0 1 -6.12 18.57z"/><path d="m169.32 77.32c-1.09 5.37-6 9.77-12.22 12.71 7.14 0 14-2.71 17.32-8.23l19.49-29.69-19.07 10.33c3.1-11.22 20.82-15.9 13.33-37.94 2.7 7.93-5.72 26.77-16.26 30.47l.11-1.75h-.68z"/><ellipse cx="146.66" cy="78.4" fill="#fff" rx="10.34" ry="11.04"/><path d="m149.25 138.38s15.29-10.14 16.85-2.24 1.82 9.54 1.82 9.54l-15.14 14.17-9.05-14.4z"/><path d="m167.26 135.76 18.41-6.02-4.04 12.51-7.04 14.27-5.16-10.16z"/><path d="m30.71 134.82-18.41-6.03 4.04 12.51 7.04 14.27 5.16-10.15z"/><path d="m122.75 145.71s12.47-9 15.91-1.68c2.13 4.53 1.08 5.19 1.08 5.19l-14.74 14.2-7.49-11.17z"/><path d="m99.61 145.94s9.46-5 15.64.16c2.44 2 .9 3.94.9 3.94l-12.75 15.57-4.1-13.25z"/><path d="m125.51 176.77s-20 6.51-21.54-1.39 1.4-9.28 1.4-9.28l11.29-14.19 8.34 14.54z"/><path d="m103.25 177.29s-9 3.7-9.14-.17a31.2 31.2 0 0 1 1.43-10.55l3.07-11.08 4.25 11.43z"/><path d="m149.91 169.9s-21.13 13-22.7 5.08-.27-11.3-.27-11.3l16-16.74 8.06 13.06z"/><path d="m175.34 166.51s-22.32 9.82-23.89 1.92 3.84-9.58 3.84-9.58l13.34-12.43 6.27 13.39z"/><path d="m102.87 122.31a14.54 14.54 0 0 0 8.47-.19 14.54 14.54 0 0 0 6.51-5.41 12.86 12.86 0 0 0 -15 5.6z"/></svg>