<svg viewBox="0 0 200 200" xmlns="http://www.w3.org/2000/svg"><path d="m161.63 73.92c17.9 3.9 30.68 14.1 30.68 26.08s-12.78 22.18-30.68 26.08a75.19 75.19 0 0 0 -10.21-12.61c-8.83-8.83-21.42-12.27-32.08-13.47 10.66-1.2 23.25-4.64 32.08-13.47a75.19 75.19 0 0 0 10.21-12.61z" fill="#fff"/><path d="m164.89 33.79c8.47 8.47 6.65 24.72-3.26 40.13a76.53 76.53 0 0 0 -16.14-1.69c-12.47 0-23.82 6.48-32.21 13.16 6.72-8.39 13.17-19.73 13.17-32.21a75.63 75.63 0 0 0 -1.7-16.13c15.42-9.92 31.67-11.73 40.14-3.26z" fill="#fff"/><path d="m161.63 126.08c9.91 15.41 11.73 31.66 3.26 40.13s-24.72 6.66-40.14-3.26a75.63 75.63 0 0 0 1.7-16.13c0-12.48-6.47-23.82-13.17-32.21 8.39 6.68 19.74 13.16 32.21 13.16a76.53 76.53 0 0 0 16.14-1.69z" fill="#fff"/><path d="m161.63 73.92a75.19 75.19 0 0 1 -10.21 12.61c-8.83 8.83-21.42 12.27-32.08 13.47a92.09 92.09 0 0 0 -20.65 0 92.36 92.36 0 0 0 14.59-14.59c8.39-6.68 19.74-13.16 32.21-13.16a76.53 76.53 0 0 1 16.14 1.67z"/><path d="m151.42 113.47a75.19 75.19 0 0 1 10.21 12.61 76.53 76.53 0 0 1 -16.14 1.69c-12.47 0-23.82-6.48-32.21-13.16a92.36 92.36 0 0 0 -14.59-14.61 92.09 92.09 0 0 0 20.65 0c10.66 1.2 23.25 4.64 32.08 13.47z"/><path d="m124.75 37.05a75.63 75.63 0 0 1 1.7 16.13c0 12.48-6.47 23.82-13.17 32.21a91.85 91.85 0 0 0 -14.59 14.61 92 92 0 0 0 0-20.64c1.19-10.66 4.64-23.26 13.46-32.08a75.49 75.49 0 0 1 12.6-10.23z"/><path d="m126.45 146.82a75.63 75.63 0 0 1 -1.7 16.13 75.49 75.49 0 0 1 -12.61-10.21c-8.82-8.82-12.27-21.42-13.46-32.08a92 92 0 0 0 0-20.64 91.85 91.85 0 0 0 14.59 14.59c6.73 8.39 13.18 19.73 13.18 32.21z"/><path d="m98.68 6.37c12 0 22.18 12.77 26.07 30.68a75.49 75.49 0 0 0 -12.61 10.21c-8.82 8.82-12.27 21.42-13.46 32.08-1.2-10.67-4.68-23.26-13.47-32.08a75.49 75.49 0 0 0 -12.61-10.21c3.89-17.91 14.09-30.68 26.08-30.68z" fill="#fff"/><path d="m124.75 163c-3.89 17.91-14.09 30.68-26.07 30.68s-22.19-12.82-26.08-30.68a75.49 75.49 0 0 0 12.61-10.21c8.83-8.82 12.27-21.41 13.47-32.08 1.19 10.66 4.64 23.26 13.46 32.08a75.49 75.49 0 0 0 12.61 10.21z" fill="#fff"/><path d="m113.28 85.39a92.36 92.36 0 0 1 -14.59 14.61 91.85 91.85 0 0 1 14.59-14.61z" fill="#fff"/><path d="m98.69 100a92.36 92.36 0 0 1 14.59 14.59 91.85 91.85 0 0 1 -14.59-14.59z" fill="#fff"/><path d="m98.69 100a92.09 92.09 0 0 1 20.65 0 92.09 92.09 0 0 1 -20.65 0z" fill="#fff"/><path d="m98.68 79.34a92 92 0 0 1 0 20.64 90.59 90.59 0 0 1 0-20.64z" fill="#fff"/><path d="m98.68 100a92 92 0 0 1 0 20.64 90.59 90.59 0 0 1 0-20.64z" fill="#fff"/><path d="m98.68 100a91.85 91.85 0 0 0 -14.61-14.61c-6.7-8.39-13.17-19.73-13.17-32.21a75.63 75.63 0 0 1 1.7-16.13 75.49 75.49 0 0 1 12.61 10.21c8.79 8.82 12.27 21.41 13.47 32.08a90.59 90.59 0 0 0 0 20.66z"/><path d="m98.68 100a90.59 90.59 0 0 0 0 20.64c-1.2 10.67-4.64 23.26-13.47 32.08a75.49 75.49 0 0 1 -12.61 10.28 75.63 75.63 0 0 1 -1.7-16.13c0-12.48 6.47-23.82 13.17-32.21a91.85 91.85 0 0 0 14.59-14.66z"/><path d="m98.68 100a92.36 92.36 0 0 0 -14.59 14.59c-8.38 6.68-19.74 13.16-32.21 13.16a76.53 76.53 0 0 1 -16.14-1.69 75.19 75.19 0 0 1 10.21-12.61c8.81-8.81 21.4-12.25 32.05-13.45a92.09 92.09 0 0 0 20.65 0z"/><path d="m98.68 100a92.09 92.09 0 0 0 -20.68 0c-10.66-1.2-23.25-4.64-32.08-13.47a75.19 75.19 0 0 1 -10.2-12.61 76.53 76.53 0 0 1 16.14-1.69c12.47 0 23.83 6.48 32.21 13.16a92.36 92.36 0 0 0 14.59 14.61z"/><path d="m78 100a92.09 92.09 0 0 1 20.65 0 92.09 92.09 0 0 1 -20.65 0z" fill="#fff"/><path d="m84.07 85.39a91.85 91.85 0 0 1 14.59 14.61 92.36 92.36 0 0 1 -14.59-14.61z" fill="#fff"/><path d="m98.66 100a91.85 91.85 0 0 1 -14.59 14.59 92.36 92.36 0 0 1 14.59-14.59z" fill="#fff"/><path d="m70.9 53.18c0 12.48 6.47 23.82 13.17 32.21-8.38-6.68-19.74-13.16-32.21-13.16a76.53 76.53 0 0 0 -16.14 1.69c-9.91-15.41-11.72-31.66-3.26-40.13s24.72-6.66 40.14 3.26a75.63 75.63 0 0 0 -1.7 16.13z" fill="#fff"/><path d="m84.07 114.61c-6.7 8.39-13.17 19.73-13.17 32.21a75.63 75.63 0 0 0 1.7 16.18c-15.42 9.92-31.66 11.73-40.14 3.26s-6.65-24.72 3.26-40.13a76.53 76.53 0 0 0 16.14 1.69c12.47-.05 23.83-6.53 32.21-13.21z" fill="#fff"/><path d="m45.93 86.53c8.83 8.83 21.42 12.27 32.07 13.47-10.66 1.2-23.25 4.64-32.08 13.47a75.19 75.19 0 0 0 -10.21 12.61c-17.89-3.9-30.71-14.08-30.71-26.08s12.82-22.18 30.72-26.08a75.19 75.19 0 0 0 10.21 12.61z" fill="#fff"/><g stroke="#000" stroke-miterlimit="10"><path d="m35.72 73.92c-9.91-15.41-11.72-31.66-3.26-40.13s24.72-6.66 40.14 3.26" fill="none"/><path d="m35.72 126.08c-17.9-3.9-30.72-14.08-30.72-26.08s12.82-22.18 30.72-26.08a76.53 76.53 0 0 1 16.14-1.69c12.47 0 23.83 6.48 32.21 13.16" fill="none"/><path d="m72.6 163c-15.42 9.92-31.66 11.73-40.14 3.26s-6.65-24.72 3.26-40.13a75.19 75.19 0 0 1 10.21-12.61c8.83-8.88 21.42-12.32 32.07-13.52a92.09 92.09 0 0 1 20.65 0" fill="none"/><path d="m124.75 163c-3.89 17.91-14.09 30.68-26.07 30.68s-22.19-12.82-26.08-30.68a75.63 75.63 0 0 1 -1.7-16.13c0-12.48 6.47-23.82 13.17-32.21a92.36 92.36 0 0 1 14.59-14.66" fill="none"/><path d="m161.63 126.08c9.91 15.41 11.73 31.66 3.26 40.13s-24.72 6.66-40.14-3.26a75.49 75.49 0 0 1 -12.61-10.21c-8.82-8.82-12.27-21.42-13.46-32.08a90.59 90.59 0 0 1 0-20.64" fill="none"/><path d="m161.63 73.92c17.9 3.9 30.68 14.1 30.68 26.08s-12.78 22.18-30.68 26.08a76.53 76.53 0 0 1 -16.14 1.69c-12.47 0-23.82-6.48-32.21-13.16a91.85 91.85 0 0 1 -14.59-14.61" fill="none"/><path d="m124.75 37.05c15.42-9.92 31.67-11.73 40.14-3.26s6.65 24.72-3.26 40.13a75.19 75.19 0 0 1 -10.21 12.61c-8.83 8.83-21.42 12.27-32.08 13.47a92.09 92.09 0 0 1 -20.65 0" fill="none"/><path d="m124.75 37.05a75.63 75.63 0 0 1 1.7 16.13c0 12.48-6.47 23.82-13.17 32.21a92.36 92.36 0 0 1 -14.59 14.61 92.36 92.36 0 0 1 -14.62-14.61c-6.7-8.39-13.17-19.73-13.17-32.21a75.63 75.63 0 0 1 1.7-16.13c3.89-17.91 14.09-30.68 26.08-30.68s22.18 12.77 26.07 30.68z" fill="none"/><path d="m145.62 100.29s-22.78 30.85-51.28 31.15-51.91-30.07-51.91-30.07 22.77-30.85 51.27-31.15 51.92 30.07 51.92 30.07z"/><circle cx="95.04" cy="100.55" fill="#fff" r="26.64"/><circle cx="93.21" cy="97.68" r="9.95"/></g></svg>