<svg viewBox="0 0 200 300" xmlns="http://www.w3.org/2000/svg" xmlns:xlink="http://www.w3.org/1999/xlink"><symbol id="a" viewBox="0 0 51.9 17.56"><path d="m15.8 3.24 8.83-1.56 1 .2 5.59 7.71q2.86 3.69 6.32 3.69a7.51 7.51 0 0 0 6.66-3.5q2.33-3.49 2.7-9.65l.81-.13 3.89 2.14.3.91a18 18 0 0 1 -1.77 7.28 13.6 13.6 0 0 1 -4.33 5.28 10.14 10.14 0 0 1 -6 1.95 12.45 12.45 0 0 1 -5.44-1.1 13 13 0 0 1 -3.79-2.69 45.44 45.44 0 0 1 -3.49-4.31c-.91-1.21-1.6-2.1-2.08-2.66l-.66-.19-6.99 1.39-.59-.2-1.25-3.98zm-14.59-.42a4.7 4.7 0 0 1 3-.94 4.9 4.9 0 0 1 3.21 1.12 3.59 3.59 0 0 1 1.33 2.9 3.32 3.32 0 0 1 -1.21 2.72 4.62 4.62 0 0 1 -3 1 4.8 4.8 0 0 1 -3.22-1.17 3.68 3.68 0 0 1 -1.32-2.94 3.18 3.18 0 0 1 1.21-2.69z"/></symbol><path d="m0 0h200v300h-200z" fill="#e6e6e6"/><path d="m100 0v300.16m-69.84-300.16 139.97 300.16m.13-300.16-139.89 300.16m169.63-49.35-200-201.4m0 201.4 200-201.4m-200.02 77.52 200 .08m-200 51.25 200 .08" fill="none" stroke="#000" stroke-miterlimit="10"/><circle cx="100" cy="150" fill="#b3b3b3" r="50.5"/><g fill="none" stroke-miterlimit="10"><circle cx="100" cy="150" r="50.5" stroke="#fff" stroke-width="5"/><circle cx="100" cy="150" r="50.5" stroke="#000" stroke-width="6"/><path d="m0 0h200v300h-200z" stroke="#000" stroke-width="4"/></g><use height="17.56" transform="matrix(-.23 -1.68 2.07 -.28 91.67 195.89)" width="51.9" xlink:href="#a"/></svg>