<svg xmlns="http://www.w3.org/2000/svg" viewBox="0 0 200 300">
  <path fill="#1a1a1a" d="M0 0h200v300H0z"/>
  <path fill="none" stroke="#000" stroke-miterlimit="10" d="M100 0v300.16M30.16 0l139.97 300.16M170.26 0L30.37 300.16M200 250.81L0 49.41M0 250.81l200-201.4M-.02 126.93l200 .08M-.02 178.26l200 .08"/>
  <circle cx="100" cy="150" r="50.5" fill="#0d0d0d"/>
  <circle cx="100" cy="150" r="50.5" fill="none" stroke="#fff" stroke-miterlimit="10" stroke-width="5"/>
  <circle cx="100" cy="150" r="50.5" fill="none" stroke="#000" stroke-miterlimit="10" stroke-width="6"/>
  <path d="M148.24 146.6l.29.91a18.27 18.27 0 0 1-1.76 7.29 13.77 13.77 0 0 1-4.34 5.28 10.16 10.16 0 0 1-6 1.94 12.45 12.45 0 0 1-5.44-1.1 12.67 12.67 0 0 1-3.78-2.69 42.75 42.75 0 0 1-3.49-4.31c-.89-1.21-1.57-2.09-2.06-2.65l-.66-.2-7 1.36-.58-.19-1.25-4 .29-.59 8.82-1.55 1 .19 5.59 7.71c1.91 2.46 4 3.7 6.32 3.7a7.5 7.5 0 0 0 6.65-3.5q2.31-3.5 2.68-9.66l.81-.13zM136.46 120.32a13.74 13.74 0 0 1 .67 6.8 10.16 10.16 0 0 1-2.89 5.64 12.47 12.47 0 0 1-4.62 3.07 13 13 0 0 1-4.58.77 44.11 44.11 0 0 1-5.52-.57c-1.48-.24-2.59-.38-3.33-.43l-.61.33-4 5.9-.56.28-3.67-1.91-.21-.62 5.14-7.34.87-.59 9.4 1.5q4.64.58 7.08-1.85a7.51 7.51 0 0 0 2.23-7.18q-.84-4.11-4.93-8.72l.48-.67 4.27-1.24.85.43a18.11 18.11 0 0 1 3.93 6.4zM135.27 177.44l1.24 4.27-.43.85a18.11 18.11 0 0 1-6.4 3.9 13.74 13.74 0 0 1-6.8.67 10.16 10.16 0 0 1-5.64-2.89 12.47 12.47 0 0 1-3.07-4.62 13 13 0 0 1-.77-4.58 44.11 44.11 0 0 1 .57-5.52c.24-1.48.38-2.59.43-3.33l-.33-.61-5.9-4-.28-.56 1.91-3.67.62-.21 7.34 5.14.59.87-1.5 9.4q-.59 4.63 1.85 7.08a7.51 7.51 0 0 0 7.18 2.23q4.11-.84 8.72-4.93zM112 113.6a12.45 12.45 0 0 1-1.1 5.44 12.67 12.67 0 0 1-2.69 3.78 42.75 42.75 0 0 1-4.31 3.49c-1.21.89-2.09 1.57-2.65 2.06l-.2.66 1.36 7-.19.58-3.95 1.25-.59-.29-1.55-8.82.19-1 7.71-5.59c2.46-1.91 3.7-4 3.7-6.32a7.5 7.5 0 0 0-3.5-6.65q-3.5-2.31-9.66-2.68l-.13-.81 2.14-3.9.91-.29a18.27 18.27 0 0 1 7.29 1.76 13.77 13.77 0 0 1 5.28 4.34 10.16 10.16 0 0 1 1.94 5.99zM105.41 193.53l.13.81-2.14 3.9-.91.29a18.27 18.27 0 0 1-7.29-1.76 13.77 13.77 0 0 1-5.28-4.34 10.16 10.16 0 0 1-1.94-6 12.45 12.45 0 0 1 1.1-5.44 12.67 12.67 0 0 1 2.69-3.78 42.75 42.75 0 0 1 4.31-3.49c1.21-.89 2.09-1.57 2.65-2.06l.2-.66-1.36-7 .19-.58 3.95-1.25.59.29 1.55 8.82-.19 1-7.66 5.6c-2.46 1.91-3.7 4-3.7 6.32a7.5 7.5 0 0 0 3.5 6.65q3.45 2.31 9.61 2.68zM105.14 149a3.85 3.85 0 0 1 .24 1.38 3.26 3.26 0 0 1-1 2.52 3.48 3.48 0 0 0 .3-1.82 2.51 2.51 0 0 0 0-.27 4.26 4.26 0 0 0 .49-1.55 2.09 2.09 0 0 0-.03-.26zM104.06 146.45a3.27 3.27 0 0 1 1.08 2.53 3.4 3.4 0 0 0-1.08-1.54l-.23-.17a4.13 4.13 0 0 0-.75-1.44 1.94 1.94 0 0 0-.2-.21 3.8 3.8 0 0 1 1.18.83z" fill="#fff"/>
  <path d="M105.14 149a2.09 2.09 0 0 1 0 .25 4.26 4.26 0 0 1-.49 1.55 4.59 4.59 0 0 0-.6-1.67v-.3a5 5 0 0 0-.22-1.54l.23.17a3.4 3.4 0 0 1 1.08 1.54zM104.68 151.06a3.48 3.48 0 0 1-.3 1.82 1.94 1.94 0 0 1-.21.2 4.13 4.13 0 0 1-1.44.75 4.28 4.28 0 0 0 .75-1.6 2.19 2.19 0 0 0 .23-.21 5.25 5.25 0 0 0 .93-1.23 2.51 2.51 0 0 1 .04.27z" fill="#fff"/>
  <path d="M104.64 150.78a5.25 5.25 0 0 1-.93 1.23 2.19 2.19 0 0 1-.23.21 5.11 5.11 0 0 0 .18-1.38 5.14 5.14 0 0 0 .38-1.74 4.59 4.59 0 0 1 .6 1.68zM104.17 153.08a1.94 1.94 0 0 0 .21-.2 3.8 3.8 0 0 1-.83 1.18 3.27 3.27 0 0 1-2.53 1.08 3.4 3.4 0 0 0 1.54-1.08 2 2 0 0 0 .17-.23 4.13 4.13 0 0 0 1.44-.75zM104.05 148.81v.3a5 5 0 0 0-.85-1.08 4.82 4.82 0 0 0-1-1.51 4.28 4.28 0 0 1 1.6.75 5 5 0 0 1 .25 1.54z" fill="#fff"/>
  <path d="M104 149.11a5.14 5.14 0 0 1-.38 1.74 5.31 5.31 0 0 0-.15-1.29.75.75 0 0 0 0-.15 4.44 4.44 0 0 0-.32-1.35 5 5 0 0 1 .85 1.05z" fill="#fff"/>
  <path d="M103.66 150.82a4.47 4.47 0 0 1-.74 1.19.47.47 0 0 1-.1.1 4.39 4.39 0 0 0 .54-1.34.14.14 0 0 0 0-.06 3.44 3.44 0 0 0 .13-1.21 5.31 5.31 0 0 1 .17 1.32z" fill="#fff"/>
  <path d="M103.66 150.85a5.11 5.11 0 0 1-.18 1.38 4.82 4.82 0 0 1-1.51 1 5.53 5.53 0 0 0 .82-1 .47.47 0 0 0 .1-.1 4.47 4.47 0 0 0 .77-1.28zM103.51 149.53a3.44 3.44 0 0 1-.13 1.21 1.86 1.86 0 0 0 .06-.34 2.9 2.9 0 0 0-.31-1.76 3.24 3.24 0 0 0-.27-.6 4.45 4.45 0 0 1 .65 1.49z" fill="#fff"/>
  <path d="M103.51 149.38a.75.75 0 0 1 0 .15 4.45 4.45 0 0 0-.65-1.49l-.14-.19a3.27 3.27 0 0 0-.58-.66 5.53 5.53 0 0 1 1 .82 4.44 4.44 0 0 1 .37 1.37zM103.48 152.23a4.28 4.28 0 0 1-.75 1.6 5 5 0 0 1-1.54.22h-.3a.24.24 0 0 0 .11-.05 4.23 4.23 0 0 0 .67-.49l.3-.28a4.82 4.82 0 0 0 1.51-1z" fill="#fff"/>
  <path d="M103.13 148.64a2.9 2.9 0 0 1 .31 1.76 1.86 1.86 0 0 1-.06.34.14.14 0 0 1 0 .06c0 .14-.1.27-.16.4a4.13 4.13 0 0 0-.07-2.56zM103.08 145.83a4.13 4.13 0 0 1 .75 1.44 4.28 4.28 0 0 0-1.6-.75 2.19 2.19 0 0 0-.21-.23 5.09 5.09 0 0 0-1.24-.93h.28a3.48 3.48 0 0 1 1.82.3 1.94 1.94 0 0 1 .2.17z" fill="#fff"/>
  <path d="M103.37 150a3.89 3.89 0 0 1-.17 1.17 4.26 4.26 0 0 1-.84 1.18 3.7 3.7 0 0 1-1 .73 4.13 4.13 0 0 1-2.56.07 4.26 4.26 0 0 1-1.18-.84 3.7 3.7 0 0 1-.73-1 4.13 4.13 0 0 1-.07-2.56 4.26 4.26 0 0 1 .84-1.18 3.7 3.7 0 0 1 1-.73 4.13 4.13 0 0 1 2.56-.07 4.26 4.26 0 0 1 1.18.84 3.7 3.7 0 0 1 .73 1 3.9 3.9 0 0 1 .24 1.39z"/>
  <path d="M103.36 150.8a4.39 4.39 0 0 1-.54 1.34 3.27 3.27 0 0 1-.66.58 3.08 3.08 0 0 0 1-1.5c.1-.15.15-.28.2-.42zM103.19 148a5.53 5.53 0 0 0-1-.82.47.47 0 0 0-.1-.1 4.47 4.47 0 0 0-1.19-.74 5.11 5.11 0 0 1 1.38.18 4.82 4.82 0 0 1 .91 1.48z" fill="#fff"/>
  <path d="M102.86 148a3.24 3.24 0 0 1 .27.6 3.7 3.7 0 0 0-.73-1 4.26 4.26 0 0 0-1.18-.84 3.08 3.08 0 0 1 1.5 1zM102.73 153.83a2 2 0 0 1-.17.23 3.4 3.4 0 0 1-1.54 1.08h-.25a4.26 4.26 0 0 1-1.55-.49 4.37 4.37 0 0 0 1.66-.6h.3a5 5 0 0 0 1.55-.22z" fill="#fff"/>
  <path d="M102.36 152.4a4.26 4.26 0 0 0 .84-1.18 3.08 3.08 0 0 1-1 1.5l-.19.14a3.24 3.24 0 0 1-.6.27 3.7 3.7 0 0 0 .95-.73z"/>
  <path d="M102.14 147.18a3.27 3.27 0 0 1 .58.66 3.08 3.08 0 0 0-1.5-1l-.4-.16a4.39 4.39 0 0 1 1.32.5z" fill="#fff"/>
  <path d="M102.16 152.72a3.27 3.27 0 0 0 .66-.58 5.53 5.53 0 0 1-.82 1 4.74 4.74 0 0 1-1.35.31.48.48 0 0 1-.12 0 4.59 4.59 0 0 0 1.46-.65l.19-.14z"/>
  <path d="M102 146.29a2.19 2.19 0 0 1 .21.23 5.11 5.11 0 0 0-1.38-.18 5.14 5.14 0 0 0-1.74-.38 4.59 4.59 0 0 1 1.67-.6 5.09 5.09 0 0 1 1.24.93zM102 147.08a.47.47 0 0 1 .1.1 4.39 4.39 0 0 0-1.34-.54h-.06a3.44 3.44 0 0 0-1.21-.13 5.31 5.31 0 0 1 1.29-.15 4.47 4.47 0 0 1 1.22.72z" fill="#fff"/>
  <path d="M102 153.2l-.3.28a4.23 4.23 0 0 1-.67.49l-.1.06a5.09 5.09 0 0 1-1.73-.38 5.31 5.31 0 0 0 1.29-.15.48.48 0 0 0 .12 0 4.74 4.74 0 0 0 1.39-.3z"/>
  <path d="M102.88 145.62a3.48 3.48 0 0 0-1.82-.3h-.28a4.26 4.26 0 0 0-1.55-.49H99a3.85 3.85 0 0 1 1.38-.24 3.26 3.26 0 0 1 2.5 1.03zM101.65 153.49z" fill="#fff"/>
  <path d="M101.36 153.13a3.24 3.24 0 0 0 .6-.27 4.59 4.59 0 0 1-1.46.65 3.44 3.44 0 0 1-1.21-.13 1.86 1.86 0 0 0 .34.06 2.9 2.9 0 0 0 1.73-.31z"/>
  <path d="M100.8 146.64l.4.16a4.13 4.13 0 0 0-2.56.07 2.9 2.9 0 0 1 1.76-.31 1.86 1.86 0 0 1 .34.06zM100.77 155.13h.23a3.85 3.85 0 0 1-1.38.24 3.26 3.26 0 0 1-2.52-1 3.48 3.48 0 0 0 1.82.3h.28a4.26 4.26 0 0 0 1.57.46zM100.88 154l.1-.06a.24.24 0 0 1-.09.06h-.01z" fill="#fff"/>
  <path d="M100.85 146.34a5.31 5.31 0 0 0-1.29.15.75.75 0 0 0-.15 0 4.44 4.44 0 0 0-1.35.32 5 5 0 0 1 1.08-.85 5.14 5.14 0 0 1 1.71.38z" fill="#fff"/>
  <path d="M100.74 146.62a1.86 1.86 0 0 0-.34-.06 2.9 2.9 0 0 0-1.76.31 3.24 3.24 0 0 0-.6.27 4.45 4.45 0 0 1 1.49-.65 3.44 3.44 0 0 1 1.21.13z" fill="#fff"/>
  <path d="M99.26 153.38a3.44 3.44 0 0 0 1.21.13 5.31 5.31 0 0 1-1.29.15 4.47 4.47 0 0 1-1.19-.74.47.47 0 0 1-.1-.1 4.39 4.39 0 0 0 1.34.54z"/>
  <path d="M100 153.37a3.9 3.9 0 0 0 1.39-.24 2.9 2.9 0 0 1-1.76.31 1.86 1.86 0 0 1-.34-.06h-.06l-.4-.16a3.89 3.89 0 0 0 1.17.15z"/>
  <path d="M99.23 144.87a4.26 4.26 0 0 1 1.55.49 4.59 4.59 0 0 0-1.67.6h-.3a5 5 0 0 0-1.54.22 2 2 0 0 1 .17-.23 3.4 3.4 0 0 1 1.56-1.09zM99.38 146.49a.75.75 0 0 1 .15 0 4.45 4.45 0 0 0-1.49.65l-.18.13a3.27 3.27 0 0 0-.66.58 5.53 5.53 0 0 1 .82-1 4.44 4.44 0 0 1 1.36-.36z" fill="#fff"/>
  <path d="M100.88 154a4.25 4.25 0 0 1-1.79.53 5.18 5.18 0 0 1-1.11-.86 2.19 2.19 0 0 1-.21-.23 5.11 5.11 0 0 0 1.38.18 5.09 5.09 0 0 0 1.73.38z"/>
  <path d="M99.09 154.57a4.25 4.25 0 0 0 1.79-.53 4.37 4.37 0 0 1-1.66.6z" fill="#fff"/>
  <path d="M99.09 154.57l.13.07h-.28a3.48 3.48 0 0 1-1.82-.3 1.94 1.94 0 0 1-.2-.21 4.13 4.13 0 0 1-.75-1.44 4.28 4.28 0 0 0 1.6.75 2.19 2.19 0 0 0 .21.23 5.18 5.18 0 0 0 1.11.9zM98.81 146h.3a5 5 0 0 0-1.08.85 4.82 4.82 0 0 0-1.51 1 4.28 4.28 0 0 1 .75-1.6 5 5 0 0 1 1.54-.25zM96.45 145.94a3.27 3.27 0 0 1 2.55-1.08 3.4 3.4 0 0 0-1.54 1.08 2 2 0 0 0-.17.23 4.13 4.13 0 0 0-1.44.75 1.94 1.94 0 0 0-.21.2 3.8 3.8 0 0 1 .81-1.18z" fill="#fff"/>
  <path d="M98.8 153.2l.4.16a4.39 4.39 0 0 1-1.34-.54 3 3 0 0 1-.58-.67 3 3 0 0 0 1.5 1z"/>
  <path d="M98 147.14a3.24 3.24 0 0 1 .6-.27 3.7 3.7 0 0 0-1 .73 4.26 4.26 0 0 0-.84 1.18 3.08 3.08 0 0 1 1-1.5l.18-.13z" fill="#fff"/>
  <path d="M98 152.92a4.47 4.47 0 0 0 1.19.74 5.11 5.11 0 0 1-1.38-.18 4.82 4.82 0 0 1-1-1.51 5.53 5.53 0 0 0 1 .82.47.47 0 0 0 .19.13z"/>
  <path d="M98 147.15l-.18.13zM98 146.81a5.53 5.53 0 0 0-.82 1 .47.47 0 0 0-.1.1 4.47 4.47 0 0 0-.74 1.19 5.11 5.11 0 0 1 .18-1.38 4.82 4.82 0 0 1 1.48-.91z" fill="#fff"/>
  <path d="M97.6 152.36a4.26 4.26 0 0 0 1.18.84 3 3 0 0 1-1.5-1l-.14-.19a3.24 3.24 0 0 1-.27-.6 3.7 3.7 0 0 0 .73.95z"/>
  <path d="M97.18 147.86a3.27 3.27 0 0 1 .66-.58 3.08 3.08 0 0 0-1 1.5c-.06.13-.11.26-.16.4a4.39 4.39 0 0 1 .5-1.32z" fill="#fff"/>
  <path d="M97.28 152.15a3 3 0 0 0 .58.67 5.53 5.53 0 0 1-1-.82 4.44 4.44 0 0 1-.32-1.35.75.75 0 0 1 0-.15 4.45 4.45 0 0 0 .65 1.49z"/>
  <path d="M97.08 148a.47.47 0 0 1 .1-.1 4.39 4.39 0 0 0-.54 1.34.14.14 0 0 1 0 .06 3.44 3.44 0 0 0-.13 1.21 5.31 5.31 0 0 1-.15-1.29 4.47 4.47 0 0 1 .72-1.22zM96.92 154.17a1.94 1.94 0 0 0 .2.21 3.8 3.8 0 0 1-1.18-.83 3.27 3.27 0 0 1-1.08-2.55 3.4 3.4 0 0 0 1.08 1.54l.23.17a4.13 4.13 0 0 0 .75 1.46z" fill="#fff"/>
  <path d="M96.87 151.36a3.24 3.24 0 0 0 .27.6 4.45 4.45 0 0 1-.65-1.49 3.44 3.44 0 0 1 .13-1.21 1.86 1.86 0 0 0-.06.34 2.9 2.9 0 0 0 .31 1.76z"/>
  <path d="M96.81 152a4.82 4.82 0 0 0 1 1.51 4.28 4.28 0 0 1-1.6-.75 5 5 0 0 1-.22-1.54v-.3a5 5 0 0 0 .82 1.08zM96.64 149.2c0-.14.1-.27.16-.4a4.13 4.13 0 0 0 .07 2.56 2.9 2.9 0 0 1-.31-1.76 1.86 1.86 0 0 1 .06-.34.14.14 0 0 0 .02-.06zM97.27 146.17a4.28 4.28 0 0 0-.75 1.6 2.19 2.19 0 0 0-.23.21 5.25 5.25 0 0 0-.93 1.23 2.51 2.51 0 0 1 0-.27 3.48 3.48 0 0 1 .3-1.82 1.94 1.94 0 0 1 .21-.2 4.13 4.13 0 0 1 1.4-.75z" fill="#fff"/>
  <path d="M96.49 150.62a4.44 4.44 0 0 0 .32 1.35 5 5 0 0 1-.85-1.08 5.14 5.14 0 0 1 .38-1.74 5.31 5.31 0 0 0 .15 1.29.75.75 0 0 0 0 .18z" fill="#fff"/>
  <path d="M96.29 148a2.19 2.19 0 0 1 .23-.21 5.11 5.11 0 0 0-.18 1.38 5.14 5.14 0 0 0-.38 1.74 4.59 4.59 0 0 1-.6-1.67 5.25 5.25 0 0 1 .93-1.24z" fill="#fff"/>
  <path d="M96.17 152.73l-.23-.17a3.4 3.4 0 0 1-1.08-1.56 2.09 2.09 0 0 1 0-.25 4.26 4.26 0 0 1 .49-1.55 4.59 4.59 0 0 0 .6 1.67v.3a5 5 0 0 0 .22 1.56z" fill="#fff"/>
  <path d="M95.36 149.21a4.26 4.26 0 0 0-.49 1.55 2.09 2.09 0 0 0 0 .25 3.85 3.85 0 0 1-.24-1.38 3.26 3.26 0 0 1 1-2.52 3.48 3.48 0 0 0-.3 1.82 2.51 2.51 0 0 0 .03.28zM92.62 159.8l.21.62-5.14 7.34-.87.59-9.4-1.5q-4.64-.58-7.08 1.85a7.51 7.51 0 0 0-2.23 7.18Q69 180 73 184.6l-.48.67-4.27 1.24-.85-.43a18.11 18.11 0 0 1-3.9-6.4 13.74 13.74 0 0 1-.67-6.8 10.16 10.16 0 0 1 2.89-5.64 12.47 12.47 0 0 1 4.62-3.07 13 13 0 0 1 4.66-.77 44.11 44.11 0 0 1 5.52.57c1.48.24 2.59.38 3.33.43l.61-.33 4-5.9.56-.28zM91.83 138.39l.28.56-1.91 3.67-.62.21-7.34-5.14-.59-.87 1.5-9.4q.59-4.64-1.85-7.08a7.51 7.51 0 0 0-7.18-2.23Q70 119 65.4 123l-.67-.48-1.24-4.27.43-.85a18.11 18.11 0 0 1 6.4-3.9 13.74 13.74 0 0 1 6.8-.67 10.16 10.16 0 0 1 5.64 2.89 12.47 12.47 0 0 1 3.07 4.62 13 13 0 0 1 .77 4.66 44.11 44.11 0 0 1-.57 5.52c-.24 1.48-.38 2.59-.43 3.33l.33.61zM86.6 147.76l1.25 4-.29.59-8.82 1.55-1-.19-5.62-7.71c-1.91-2.46-4-3.7-6.32-3.7a7.5 7.5 0 0 0-6.65 3.5q-2.31 3.5-2.68 9.66l-.81.13-3.9-2.14-.29-.91a18.27 18.27 0 0 1 1.76-7.29 13.77 13.77 0 0 1 4.34-5.28 10.16 10.16 0 0 1 6-1.94 12.45 12.45 0 0 1 5.44 1.1 12.67 12.67 0 0 1 3.78 2.69 42.75 42.75 0 0 1 3.49 4.31c.89 1.21 1.57 2.09 2.06 2.65l.66.2 7-1.36z" fill="#fff"/>
  <path d="M112.44 147.7l8.82-1.55 1 .19 5.59 7.71c1.91 2.46 4 3.7 6.32 3.7a7.5 7.5 0 0 0 6.65-3.5q2.31-3.5 2.68-9.66l.81-.13 3.9 2.14.29.91a18.27 18.27 0 0 1-1.76 7.29 13.77 13.77 0 0 1-4.34 5.28 10.16 10.16 0 0 1-6 1.94 12.45 12.45 0 0 1-5.44-1.1 12.67 12.67 0 0 1-3.78-2.69 42.75 42.75 0 0 1-3.49-4.31c-.89-1.21-1.57-2.09-2.06-2.65l-.66-.2-7 1.36-.58-.19-1.25-4zM105.14 149a3.85 3.85 0 0 1 .24 1.38 3.26 3.26 0 0 1-1 2.52M107.17 139.58l5.14-7.34.87-.59 9.4 1.5q4.64.58 7.08-1.85a7.51 7.51 0 0 0 2.23-7.18q-.84-4.11-4.93-8.72l.48-.67 4.27-1.24.85.43a18.11 18.11 0 0 1 3.9 6.4 13.74 13.74 0 0 1 .67 6.8 10.16 10.16 0 0 1-2.89 5.64 12.47 12.47 0 0 1-4.62 3.07 13 13 0 0 1-4.58.77 44.11 44.11 0 0 1-5.52-.57c-1.48-.24-2.59-.38-3.33-.43l-.61.33-4 5.9-.56.28-3.67-1.91z" fill="none" stroke="#000" stroke-miterlimit="10" stroke-width=".5"/>
  <path d="M102.88 145.62a3.8 3.8 0 0 1 1.18.83 3.27 3.27 0 0 1 1.08 2.53 2.09 2.09 0 0 1 0 .25 4.26 4.26 0 0 1-.49 1.55M97.7 137.56l-1.55-8.82.19-1 7.71-5.59c2.46-1.91 3.7-4 3.7-6.32a7.5 7.5 0 0 0-3.5-6.65q-3.5-2.31-9.66-2.68l-.13-.81 2.14-3.9.91-.29a18.27 18.27 0 0 1 7.29 1.76 13.77 13.77 0 0 1 5.28 4.34 10.16 10.16 0 0 1 1.94 6 12.45 12.45 0 0 1-1.1 5.44 12.67 12.67 0 0 1-2.69 3.78 42.75 42.75 0 0 1-4.31 3.49c-1.21.89-2.09 1.57-2.65 2.06l-.2.66 1.36 7-.19.58-3.95 1.25z" fill="none" stroke="#000" stroke-miterlimit="10" stroke-width=".5"/>
  <path d="M99 144.86a3.85 3.85 0 0 1 1.38-.24 3.26 3.26 0 0 1 2.52 1 1.94 1.94 0 0 1 .2.21 4.13 4.13 0 0 1 .75 1.44 5 5 0 0 1 .22 1.54v.3M89.58 142.83l-7.34-5.14-.59-.87 1.5-9.4q.59-4.64-1.85-7.08a7.51 7.51 0 0 0-7.18-2.23Q70 119 65.4 123l-.67-.48-1.24-4.27.43-.85a18.11 18.11 0 0 1 6.4-3.9 13.74 13.74 0 0 1 6.8-.67 10.16 10.16 0 0 1 5.64 2.89 12.47 12.47 0 0 1 3.07 4.62 13 13 0 0 1 .77 4.66 44.11 44.11 0 0 1-.57 5.52c-.24 1.48-.38 2.59-.43 3.33l.33.61 5.9 4 .28.56-1.91 3.67z" fill="none" stroke="#000" stroke-miterlimit="10" stroke-width=".5"/>
  <path d="M95.62 147.12a3.8 3.8 0 0 1 .83-1.18 3.27 3.27 0 0 1 2.55-1.08h.25a4.26 4.26 0 0 1 1.55.49 5.09 5.09 0 0 1 1.24.93 2.19 2.19 0 0 1 .21.23 4.82 4.82 0 0 1 1 1.51M87.56 152.3l-8.82 1.55-1-.19-5.62-7.66c-1.91-2.46-4-3.7-6.32-3.7a7.5 7.5 0 0 0-6.65 3.5q-2.31 3.5-2.68 9.66l-.81.13-3.9-2.14-.29-.91a18.27 18.27 0 0 1 1.76-7.29 13.77 13.77 0 0 1 4.34-5.28 10.16 10.16 0 0 1 6-1.94 12.45 12.45 0 0 1 5.44 1.1 12.67 12.67 0 0 1 3.78 2.69 42.75 42.75 0 0 1 3.49 4.31c.89 1.21 1.57 2.09 2.06 2.65l.66.2 7-1.36.58.19 1.25 4z" fill="none" stroke="#000" stroke-miterlimit="10" stroke-width=".5"/>
  <path d="M94.86 151a3.85 3.85 0 0 1-.24-1.38 3.26 3.26 0 0 1 1-2.52 1.94 1.94 0 0 1 .21-.2 4.13 4.13 0 0 1 1.44-.75 5 5 0 0 1 1.54-.22h.3a5.14 5.14 0 0 1 1.74.38 4.47 4.47 0 0 1 1.19.74.47.47 0 0 1 .1.1M92.83 160.42l-5.14 7.34-.87.59-9.4-1.5q-4.64-.58-7.08 1.85a7.51 7.51 0 0 0-2.23 7.18Q69 180 73 184.6l-.48.67-4.27 1.24-.85-.43a18.11 18.11 0 0 1-3.9-6.4 13.74 13.74 0 0 1-.67-6.8 10.16 10.16 0 0 1 2.89-5.64 12.47 12.47 0 0 1 4.62-3.07 13 13 0 0 1 4.66-.77 44.11 44.11 0 0 1 5.52.57c1.48.24 2.59.38 3.33.43l.61-.33 4-5.9.56-.28 3.67 1.91z" fill="none" stroke="#000" stroke-miterlimit="10" stroke-width=".5"/>
  <path d="M97.12 154.38a3.8 3.8 0 0 1-1.18-.83 3.27 3.27 0 0 1-1.08-2.55 2.09 2.09 0 0 1 0-.25 4.26 4.26 0 0 1 .49-1.55 5.25 5.25 0 0 1 .93-1.23 2.19 2.19 0 0 1 .23-.21 4.82 4.82 0 0 1 1.51-1 4.44 4.44 0 0 1 1.35-.32M102.3 162.44l1.55 8.82-.19 1-7.66 5.62c-2.46 1.91-3.7 4-3.7 6.32a7.5 7.5 0 0 0 3.5 6.65q3.5 2.31 9.66 2.68l.13.81-2.14 3.9-.91.29a18.27 18.27 0 0 1-7.29-1.76 13.77 13.77 0 0 1-5.28-4.34 10.16 10.16 0 0 1-1.94-6 12.45 12.45 0 0 1 1.1-5.44 12.67 12.67 0 0 1 2.69-3.78 42.75 42.75 0 0 1 4.31-3.49c1.21-.89 2.09-1.57 2.65-2.06l.2-.66-1.36-7 .19-.58 3.95-1.25zM110.42 157.17l7.34 5.14.59.87-1.5 9.4q-.59 4.63 1.85 7.08a7.51 7.51 0 0 0 7.18 2.23q4.11-.84 8.72-4.93l.67.48 1.24 4.27-.43.85a18.11 18.11 0 0 1-6.4 3.9 13.74 13.74 0 0 1-6.8.67 10.16 10.16 0 0 1-5.64-2.89 12.47 12.47 0 0 1-3.07-4.62 13 13 0 0 1-.77-4.58 44.11 44.11 0 0 1 .57-5.52c.24-1.48.38-2.59.43-3.33l-.33-.61-5.9-4-.28-.56 1.91-3.67z" fill="none" stroke="#000" stroke-miterlimit="10" stroke-width=".5"/>
  <path d="M100.8 146.64a4.39 4.39 0 0 1 1.34.54 5.53 5.53 0 0 1 1 .82 5 5 0 0 1 .85 1.08 4.59 4.59 0 0 1 .6 1.67 2.51 2.51 0 0 1 0 .27 3.48 3.48 0 0 1-.3 1.82 3.8 3.8 0 0 1-.83 1.18 3.27 3.27 0 0 1-2.53 1.08h-.25a4.26 4.26 0 0 1-1.55-.49l-.13-.07a5.18 5.18 0 0 1-1.11-.86 2.19 2.19 0 0 1-.21-.23 4.82 4.82 0 0 1-1-1.51 4.44 4.44 0 0 1-.32-1.35.75.75 0 0 1 0-.15 3.44 3.44 0 0 1 .13-1.21.14.14 0 0 0 0-.06c0-.14.1-.27.16-.4a4.26 4.26 0 0 1 .84-1.18 3.7 3.7 0 0 1 1-.73 2.9 2.9 0 0 1 1.76-.31 1.86 1.86 0 0 1 .34.06" fill="none" stroke="#000" stroke-miterlimit="10" stroke-width=".5"/>
  <path d="M101.22 146.8a4.26 4.26 0 0 1 1.18.84 3.7 3.7 0 0 1 .73 1 2.9 2.9 0 0 1 .31 1.76 1.86 1.86 0 0 1-.06.34.14.14 0 0 1 0 .06 4.39 4.39 0 0 1-.54 1.34 5.53 5.53 0 0 1-.82 1l-.3.28a4.23 4.23 0 0 1-.67.49l-.1.06a4.25 4.25 0 0 1-1.79.53M99.38 146.49a.75.75 0 0 1 .15 0 3.44 3.44 0 0 1 1.21.13h.06l.4.16" fill="none" stroke="#000" stroke-miterlimit="10" stroke-width=".5"/>
  <path d="M102.72 147.84l.14.19a4.45 4.45 0 0 1 .65 1.49 5.31 5.31 0 0 1 .15 1.29 5.11 5.11 0 0 1-.18 1.38 4.28 4.28 0 0 1-.75 1.6 2 2 0 0 1-.17.23 3.4 3.4 0 0 1-1.54 1.08 3.85 3.85 0 0 1-1.38.24 3.26 3.26 0 0 1-2.52-1 1.94 1.94 0 0 1-.2-.21 4.13 4.13 0 0 1-.75-1.44 5 5 0 0 1-.22-1.54v-.3a5.14 5.14 0 0 1 .38-1.74 4.47 4.47 0 0 1 .74-1.19.47.47 0 0 1 .1-.1 3.27 3.27 0 0 1 .66-.58l.18-.13a3.24 3.24 0 0 1 .6-.27 4.13 4.13 0 0 1 2.56-.07 3.08 3.08 0 0 1 1.55 1.07z" fill="none" stroke="#000" stroke-miterlimit="10" stroke-width=".5"/>
  <path fill="none" stroke="#000" stroke-miterlimit="10" stroke-width="4" d="M0 0h200v300H0z"/>
</svg>
