<svg version="1" xmlns="http://www.w3.org/2000/svg" viewBox="0 0 500 500"><path d="M10.6 306.5c1.6-4.7 2.8-10.1 5.5-14.3 3.2-5 8.9-9.1 13.2-13.1 9.3-8.7 18.3-18.7 28.4-26.3 8.3-6.3 20-5.7 30-6.7 12.5-1.3 25-2.7 37.5-4.3-1.8-3.4-4.1-6.9-.1-10.4 1.4 4.4 2.7 7.7 7.7 8.4 4 .6 7.5-2.5 8.7 3.7 4.9 1.7 10 6 14.7 8.5 6.2 3.3 12 7.2 18.2 10.5 8.9 4.9 25.6 12.3 36 8-7-8.3 5.3-9.6 9.4-12 4.3-2.5 9.2-5.8 11.2-10.5 2.7-6.1 7.1-16.7 6.6-23.5-.8-10.3-5.5-20.7-8-30.5-1.6-6-5.8-10.6-9-16.1-3.4-6-6.9-12.5-11.7-17.5-6.8-6.9-12.5-8.5-21.9-9.2-8.4-.7-16.1 2.6-24.6 2.6 1-3.2 4.4-5.6 6.4-8.2 0 1 .1 1.8.1 2.8.7-1 1.2-1.8 1.9-2.7.2 1.1.3 1.9.3 2.4 2.7-.3 3.4-.3 5.9-1.8 0 .1.2.5.5 1.1.4-.5.7-.9 1.1-1.3.4.2.8.5 1.1.8.5-5.6-12.4-1.7-15.3-3.2 3.5-.3 5.9-2.5 9.4-2.8 3.5-.3 6.7 3.3 9.4 3.1 4.9-.4 6.3-6.4 12.9-4.2 1.2-3.4.8-4.1-2.5-3.7l-.6-2.7h-2.7c-.1-.4-.2-.9-.4-1.4l-1.4.7c.3-.9.5-1.6.8-2.5-.6-.1-1.2-.1-1.8-.2-.3-2-.7-2.3-2.4-1.6-.3-.8-.5-1.5-.9-2.6-.7.8-1.1 1.3-1.7 1.9-1.1-1.1 1.5-5.1-2.5-3.6-.2-.8-.4-1.5-.6-2.2-.7.5-1.3 1.1-2.2 1.8-.1-.9-.1-1.9-.2-3.4-.9 1.4-1.5 2.5-2.2 3.6h-.5c.2-2.6 1.9-7.1-2.1-6.3-1-3 3.7-4.7 5.9-5 4.6-.5 9 1.4 11.9 4.3 3 2.9 4.4 7 8.2 9.5 4.1 2.8 3.8 1.4 7.7.5.4 2.7 4.2 0 5.3-.1-.3.5-.6 1-1 1.6 1.6.7 3.3 1.1 5.1 1.1-.3 8.3 14.1 9.8 18 15.4-4.7-.3-6.8-2.9-11.5-2.9.9 1 1.6 1.9 2.7 3.2-3-1-3.9 1.5-5.7 2.4h4.3c-1 1.1-1.7 1.9-2.4 2.7.6 1 .6 1 6.1.2-1.1 1.4-2 2.6-3.2 4.2 1.6-.5 2.8-.9 3.9-1.3l.3.3c-.8.8-1.6 1.6-2.4 2.6 1.8 2.3 3.3-1.1 5.1 0-.7.9-1.5 1.9-2.4 3.1.9-.1 1.5-.2 2.5-.4-.5.6-.8 1.1-1.2 1.6 2.2 3.4 6 .6 9.1-.5.1.2.2.3.3.5-1.8 1.5-3.6 2.9-5.4 4.4 1 1 1.3 1.4 1.7 1.8 2-1.1 4-2.1 5.9-3.1.1.1.2.3.3.4-1.3 1.8-2.5 3.5-3.9 5.4.7.8 1.3 1.6 2 2.4 2-1 3.9-2 5.8-2.9l.2.2c-2.2 3.4-4.7 7.9 1 9.7 4.7 8 9 16.2 14.8 23.5 6.7 8.6 11 9.6 21.4 11.7 7.8 1.6 16.2-4.3 24.6-4.7 8.7-.4 19.6 1.7 26.9-4.6 14.1-12.3 6.7-36.1 1.6-50.6-1.7-4.9-3.9-9.5-6.8-13.8-1.8-2.5-5.5-5.3-5.7-8.4-.3-3.2 3.1-4.3.6-7.5-2-2.6-10.8-2.8-13.9-3.3 6.4-2 19.6-5.3 23.3 2.8 7.7-13.7 17.7-25.7 25.3-39.4 3.6-6.5 6.1-14.7 10.8-20.4 4-5 10.2-6.3 16.1-8.6 14.9-5.8 30.1-10.9 45.4-15.7 14.6-4.6 32.6-8 47.2-1.6-.1.2-.1.4-.2.6-8.5-.9-11.7 1.8-14 10.5-2.1 7.9-1.2 17.7 1.9 25.2 7 16.8 20.4 27.6 33.5 39.4-.1.2-.2.3-.3.5-2.5-1.5-5.1-3-7.8-4.6-10.9 14.3-20.5 29.8-20.9 48.5-.2 8.5 2.5 16.6 5.9 24.3 2.3 5.4 10.4 14.8 9.4 20.8-3.3-5-3.8-7.3-10-7.4-6.2-.1-12.9 0-19.1 1-11 1.7-22.4 5.9-32.2 11.3-9.8 5.5-17.9 13.5-23.6 23.1-3.6 6.1-6.7 12.6-9.4 19.2-3.4 8.1-4.6 10.8-.7 18.7-.1.1-.3.2-.4.2-4.3-6.2-6.4-8.2-13.7-10.3-7.1-2-14.3-3.9-21.5-5.5-14-3.1-28.5-5.6-42.9-3.8 1.1.7 1.7 1.1 2.6 1.7-1.7 2.4-7-.5-9.7.1 1 .9 1.9 1.6 2.8 2.4.4-.3.7-.6 1.2-.9 2.3 4.8 12 13.6 17.8 12 3.8 2.9 8 4.9 12.3 7.1 0 .2-.1.4-.1.6.3-.4.7-.8 1.3-1.5.1 5.9 5.4 7.6 8.1 12.1.8-1.3 1.3-2.2 1.9-3 .2 0 .5.1.7.1-1.6 4.5 2.4 5.3 4.3 7.7 1-.9 1.9-1.6 3-2.6 0 7.9 7.6 13.7 13.6 18.9.2 1.4 2.2 4.2 5.8 7.6.5-.3 1-.6 1.9-1.2-1.5 8 6.6 5.5 11.7 8.8 4.9 3.2 5 8.4-1.9 7.2 2.7 2.6-.1 3.5.8 6.1.9 2.6 2.9 5 4.4 7.4 3.5 5.8 6.3 11.7 8.9 18 2.6 6.2 5.8 12.3 7.8 18.6 1.9 6 1.9 12.2 4.6 18 5.5 12.2 16.9 21.8 26.2 31.1 3.5 3.5 30 26.2 27.1 29.5H468c-17.9-16.4-39.8-29.9-55.8-48.3-7.4-8.5-11.2-18.4-16.2-28.3-5.3-10.7-11.4-20.9-18.3-30.7-6.5-9.1-13.6-18-21.3-26.1-4.2-4.4-8.6-8.6-13.4-12.5-5.1-4.1-5.3-5.1-9.1-1.1-1.6 1.7-9.8 7.1-9.9 8.6-.3 2.8 5.5 9 7 11.1 2.5 3.6 4.9 7.9 8.5 9.6 3.3 1.5 8.7.5 10.5 5.2-3-2-4.9-.9-6.6 1.3 2.1 3.7 10.5 4 14.3 4.9-.2-1.8-.4-3.6-.5-5.3.7-.1 1.2-.2 1.9-.4-.5-1.2-.9-2.3-1.4-3.4.1-.1.3-.2.4-.2 1.8 2 3.7 4 5.5 6 .2-.1.4-.2.6-.2.1-1.4.3-2.7.4-4.5 3 5.7 3.7 14.7-1.6 19.4-4.3 3.8-13.3 1.5-18.1-.3-13.1-5.1-15.9-25.5-30.5-27.2-11.1-1.3-35.7 6.3-41.5-8.7-1.5-3.9 1.5-12.5 3.6-16.1 3.9-6.6 12.2-10.3 19.3-12.4-13.5-2.5-25.7-7.6-34.7-18.6-7.9 9.4-11.2 18.5-15.4 29.9-4.3 11.9-11 22.5-6.7 34.9-3-3.4-4.1-6.4-8.1-8.8-4-2.4-8.7-4.2-13-5.8-8.9-3.4-17.7-5-26.8-1.2-7.5 3.1-14.4 8.7-19.5 15-5.2 6.5-9 11.2-2.4 17.2-3.4-.4-4.7-3-6.8-5.3-3.2-3.6-7-6.9-10.8-9.9-6.7-5.5-15.3-8.8-23.8-10.5-18.2-3.5-37.3 1.2-55.2 4.1.4 2.2.8 4.1 1.2 6-.2.1-.4.1-.6.2-5.1-12.2-15.1-26.3-27-32.9-6.5-3.6-14.3-5.4-21.7-5.1-3.1.1-8.6.3-11.2 2.4-1.7 1.4-.6 3.2-2.5 4.1-.2-2.1-.2-3.8-.2-5.4zm182.9-161c-1.1-2.7-1.9-2.9-4-.9.8 2.3 2.5 1.4 4 .9zm22.9-2c.2.2.3.4.5.6 1-.2 1.9-.4 3.5-.8-2.1-1.5-1.6-1.9-4 .2zm96.5 175.4c0 .2.1.5.1.7 1.8-.2 3.6-.4 5.4-.7 0-.2-.1-.5-.1-.7-1.8.2-3.6.5-5.4.7z"/></svg>