<svg xmlns="http://www.w3.org/2000/svg" viewBox="0 0 29.65 34.16"><defs><clipPath id="a"><path d="M.79 8.6l14-8 14.4 8.07v16.5l-14.26 8.4L.51 25.14z" fill="red" stroke="#000" stroke-miterlimit="10"/></clipPath></defs><path d="M.79 8.6l14-8 14.4 8.07v16.5l-14.26 8.4L.51 25.14z" fill="red"/><g clip-path="url(#a)"><path d="M25.52 20.43l-21.26.08L14.68 4.8zM14.74.86l-.06 3.94m13.9 4.26L14.68 4.8m13.9 4.26l-3.06 11.37m3.35 4.64l-3.35-4.64m-21.26.08L1.55 9.06 14.68 4.8M4.26 20.51L.81 24.94M14.9 33L4.26 20.51m21.26-.08L14.9 33" fill="none" stroke="#000" stroke-miterlimit="10" stroke-width=".5" opacity=".38"/></g><path d="M.79 8.6l14-8 14.4 8.07v16.5l-14.26 8.4L.51 25.14z" fill="none" stroke="#000" stroke-miterlimit="10"/><text transform="matrix(.95 0 0 1 13.51 26.67)" font-size="6.41" fill="#fff" font-family="Alegreya-Black, Alegreya">5</text><text transform="matrix(1.05 0 0 1 8.51 18.74)" font-size="6.49" fill="#fff" font-family="Alegreya-Medium, Alegreya">SRD</text></svg>