<svg xmlns="http://www.w3.org/2000/svg">
  <defs>
    <symbol id='card-frame'>
      <path d='m4.93 294.06h217.67v42h-217.67z' fill='#fff' stroke='#000' strokeMiterlimit='10' />
      <path d='m227.39 5v328.51a5 5 0 0 1 -5 5h-217.39a5 5 0 0 1 -5-5v-328.51a5 5 0 0 1 5-5h217.39a5 5 0 0 1 5 5zm-7 317.24v-304.49a12 12 0 0 0 -12-12h-189.39a12 12 0 0 0 -12 12v304.49a12 12 0 0 0 12 12h189.36a12 12 0 0 0 12-12zm-143.96-316.49c2.84 16 18.47 28.32 37.34 28.32s34.49-12.28 37.33-28.32z' />
      <path d='m15.12 14.68h197.05v273.55h-197.05z' fill='none' stroke='#000' strokeLinecap='round' strokeLinejoin='round' />
      <circle cx='25.8' cy='24.35' fill='#fff' r='15.25' stroke='#000' strokeMiterlimit='10' />
      <ellipse cx='17.03' cy='284.73' fill='#fff' rx='7.47' ry='7.5' stroke='#000' strokeMiterlimit='10' />
      <g>
        <path d='m197.21 15.08 9.79-5.58 10 5.65v11.5l-10 5.85-10-5.92z' fill='#f00' stroke='#000' strokeMiterlimit='10' />
        <text fontFamily='Alegreya-Medium,Alegreya' fill='#fff' fontSize='12' transform='matrix(1.1 0 0 1 203.97 23.83)'>5</text>
      </g>
    </symbol>
    <symbol id="dragon" viewBox="0 0 200 200">
      <path d="M2,129.19c.64-2.11,1.12-4.54,2.2-6.43,1.28-2.25,3.57-4.09,5.29-5.89,3.72-3.91,7.33-8.41,11.37-11.82,3.33-2.84,8-2.57,12-3,5-.58,10-1.21,15-1.93-.72-1.53-1.64-3.1,0-4.68.56,2,1.08,3.46,3.09,3.78,1.6.27,3-1.12,3.48,1.66,2,.77,4,2.7,5.89,3.83,2.48,1.48,4.8,3.23,7.29,4.72,3.56,2.2,10.25,5.53,14.41,3.59-2.8-3.73,2.13-4.31,3.77-5.39s3.68-2.61,4.48-4.72c1.08-2.75,2.85-7.51,2.65-10.57C92.58,87.69,90.7,83,89.7,78.6c-.64-2.69-2.32-4.76-3.6-7.24a39.74,39.74,0,0,0-4.69-7.87c-2.72-3.1-5-3.82-8.77-4.13-3.36-.32-6.45,1.17-9.85,1.17.4-1.44,1.76-2.52,2.56-3.69,0,.45,0,.81,0,1.26.28-.45.48-.81.76-1.22A7.79,7.79,0,0,1,66.27,58a3.91,3.91,0,0,0,2.37-.81,2.87,2.87,0,0,0,.2.5,6,6,0,0,1,.44-.59,1.92,1.92,0,0,1,.44.36c.2-2.52-5-.76-6.13-1.44,1.4-.13,2.36-1.12,3.77-1.26s2.68,1.49,3.76,1.4c2-.18,2.52-2.88,5.17-1.89.48-1.53.32-1.84-1-1.66L75,51.35H74a5.3,5.3,0,0,0-.16-.63l-.56.32c.12-.41.2-.72.32-1.13-.24,0-.48,0-.72-.09-.12-.9-.28-1-1-.72-.12-.36-.2-.67-.36-1.17-.28.36-.44.59-.68.86-.44-.5.6-2.29-1-1.62-.08-.36-.16-.67-.24-1-.28.23-.52.5-.88.81,0-.4,0-.85-.08-1.53-.36.63-.6,1.13-.88,1.62h-.2c.08-1.17.76-3.19-.85-2.83-.4-1.35,1.49-2.12,2.37-2.25a5.57,5.57,0,0,1,4.76,1.93c1.2,1.31,1.77,3.15,3.29,4.27s1.52.63,3.08.23c.16,1.21,1.68,0,2.12,0-.12.23-.24.45-.4.72a4.52,4.52,0,0,0,2,.5c-.12,3.73,5.65,4.41,7.21,6.92-1.88-.13-2.72-1.3-4.6-1.3.36.45.64.85,1.08,1.44-1.2-.45-1.56.67-2.28,1.08H87.1c-.4.49-.68.85-1,1.21.24.45.24.45,2.44.09-.44.63-.8,1.17-1.28,1.89.64-.22,1.12-.4,1.56-.58l.12.13a13.37,13.37,0,0,0-1,1.17c.72,1,1.32-.49,2,0-.28.4-.6.85-1,1.39a8.17,8.17,0,0,0,1-.18c-.2.27-.32.5-.48.72.88,1.53,2.4.27,3.65-.22,0,.09.08.13.12.22-.72.68-1.45,1.31-2.17,2,.4.45.52.63.68.81.81-.49,1.61-.94,2.37-1.39,0,0,.08.13.12.18-.52.81-1,1.57-1.56,2.43.28.36.52.72.8,1.08.8-.45,1.56-.9,2.32-1.31l.08.09c-.88,1.53-1.88,3.55.4,4.36a89.28,89.28,0,0,0,5.93,10.57c2.68,3.87,4.4,4.32,8.57,5.26,3.12.72,6.48-1.93,9.85-2.11s7.85.76,10.77-2.07c5.65-5.53,2.68-16.23.64-22.75a27.86,27.86,0,0,0-2.72-6.21c-.72-1.12-2.2-2.38-2.28-3.78s1.24-1.93.24-3.37c-.81-1.17-4.33-1.26-5.57-1.48,2.56-.9,7.85-2.39,9.33,1.25,3.08-6.16,7.09-11.55,10.13-17.71,1.44-2.93,2.44-6.61,4.33-9.18,1.6-2.25,4.08-2.83,6.44-3.86,6-2.61,12.06-4.91,18.18-7.06,5.85-2.07,13.06-3.6,18.91-.72,0,.09,0,.18-.08.27-3.41-.41-4.69.81-5.61,4.72a21,21,0,0,0,.76,11.33c2.8,7.55,8.17,12.41,13.42,17.72,0,.09-.08.13-.12.22l-3.13-2.07c-4.36,6.43-8.21,13.4-8.37,21.81a28.16,28.16,0,0,0,2.37,10.93c.92,2.43,4.16,6.66,3.76,9.36-1.32-2.25-1.52-3.29-4-3.33a39.27,39.27,0,0,0-7.65.45,37.36,37.36,0,0,0-12.9,5.08,27.21,27.21,0,0,0-9.45,10.39,70.09,70.09,0,0,0-3.76,8.63c-1.37,3.64-1.85,4.86-.28,8.41a.26.26,0,0,1-.16.09c-1.73-2.79-2.57-3.69-5.49-4.63s-5.73-1.76-8.61-2.47c-5.61-1.4-11.41-2.52-17.18-1.71.44.31.68.49,1,.76-.68,1.08-2.8-.22-3.88,0,.4.4.76.72,1.12,1.07.16-.13.28-.26.48-.4.92,2.16,4.8,6.12,7.13,5.4a31.14,31.14,0,0,0,4.92,3.19c0,.09,0,.18,0,.27.12-.18.28-.36.52-.68,0,2.66,2.17,3.42,3.25,5.45.32-.59.52-1,.76-1.35.08,0,.2,0,.28,0-.64,2,1,2.39,1.72,3.46.4-.4.76-.71,1.2-1.16,0,3.55,3,6.16,5.45,8.49A8.63,8.63,0,0,0,149,131.8c.2-.13.4-.27.76-.54-.6,3.6,2.64,2.48,4.69,4s2,3.78-.76,3.24c1.08,1.17,0,1.57.32,2.74a18.65,18.65,0,0,0,1.76,3.33,62.36,62.36,0,0,1,3.56,8.09c1,2.79,2.32,5.53,3.13,8.37s.76,5.48,1.84,8.09c2.2,5.49,6.77,9.81,10.49,14,1.4,1.57,12,11.78,10.85,13.26h-.44c-7.17-7.37-15.94-13.44-22.34-21.72-3-3.82-4.49-8.27-6.49-12.72a107.47,107.47,0,0,0-15.86-25.55,61.87,61.87,0,0,0-5.37-5.62c-2-1.84-2.12-2.29-3.64-.49-.64.76-3.92,3.19-4,3.87-.12,1.25,2.2,4,2.8,5,1,1.62,2,3.55,3.4,4.31s3.49.23,4.21,2.34c-1.2-.9-2-.4-2.65.59.85,1.66,4.21,1.8,5.73,2.2-.08-.81-.16-1.62-.2-2.38a5.23,5.23,0,0,0,.76-.18c-.2-.54-.36-1-.56-1.53a.26.26,0,0,1,.16-.09c.72.9,1.48,1.8,2.2,2.7a.48.48,0,0,1,.24-.09c0-.63.12-1.22.16-2,1.21,2.57,1.49,6.61-.64,8.73-1.72,1.71-5.32.67-7.24-.14-5.25-2.29-6.37-11.46-12.22-12.23-4.44-.58-14.3,2.83-16.62-3.91-.6-1.76.6-5.62,1.44-7.24,1.57-3,4.89-4.63,7.73-5.58-5.4-1.12-10.29-3.42-13.89-8.36-3.17,4.22-4.49,8.32-6.17,13.44-1.72,5.36-4.41,10.12-2.68,15.7-1.21-1.53-1.65-2.88-3.25-4a30.11,30.11,0,0,0-5.2-2.61c-3.57-1.53-7.09-2.25-10.74-.54A21.17,21.17,0,0,0,66.47,145c-2.08,2.92-3.6,5-1,7.73-1.36-.18-1.88-1.35-2.72-2.38a35.66,35.66,0,0,0-4.32-4.45,20.64,20.64,0,0,0-9.54-4.72c-7.28-1.58-14.93.54-22.1,1.84.16,1,.32,1.84.48,2.7a2.34,2.34,0,0,0-.24.09C25,140.3,21,134,16.26,131a15.36,15.36,0,0,0-8.69-2.29c-1.24,0-3.45.13-4.49,1.08-.68.63-.24,1.44-1,1.84C2,130.68,2,129.91,2,129.19Zm73.24-72.4c-.44-1.21-.76-1.3-1.6-.4C74,57.42,74.64,57,75.24,56.79Zm9.18-.9c.08.09.12.18.2.27.4-.09.76-.18,1.4-.36C85.18,55.13,85.38,55,84.42,55.89Zm38.64,78.88c0,.09,0,.23,0,.31.72-.08,1.44-.17,2.16-.31,0-.09,0-.22,0-.31C124.5,134.55,123.78,134.68,123.06,134.77Z"/>
    </symbol>
    <symbol id="aberration" viewBox="0 0 200 200">
      <path d="m52.47 47.59s-11.47 9.25-23.69 7.41-16.58-18.61-16.58-18.61 4 1.15 19 2.82a47.15 47.15 0 0 1 21.27 8.38z"/><path d="m143.08 48.21s11.92 7.52 24.92 5.57 15.48-16.24 15.48-16.24-1.63.94-17.5 2.84a60.54 60.54 0 0 0 -22.9 7.83z"/><path d="m98.68 40.33a84.48 84.48 0 0 0 -34.27 7.73s15.34 16.42 34.27 16.42 34.32-16.42 34.32-16.42a84.54 84.54 0 0 0 -34.32-7.73zm-7 23.26a5.93 5.93 0 1 1 5.48-5.91 5.71 5.71 0 0 1 -5.43 5.91z"/><path d="m98.68 142.07c-27.75 0-50.25 17.56-50.25 17.56a93.81 93.81 0 0 0 17.26 14.86 14 14 0 0 1 -2.06-7.28c0-9 8.8-16.38 19.66-16.38s19.65 7.34 19.65 16.38c0 7.92-6.75 14.53-15.72 16a8.73 8.73 0 1 0 -14.85-6.21 8.24 8.24 0 0 0 .17 1.59c7.61 4.09 16.56 7.21 26.14 7.21 27.75 0 50.24-26.21 50.24-26.21s-22.49-17.52-50.24-17.52z"/><path d="m102.67 70.76c-35.73 0-68.67 23.57-68.67 23.57s29 31.59 64.7 31.59 64.69-31.59 64.69-31.59-24.98-23.57-60.72-23.57zm-13.79 53.24a8.53 8.53 0 0 0 2-5.43 8.63 8.63 0 0 0 -17.25-.19 20.42 20.42 0 1 1 15.25 5.62z"/><path d="m36.48 115.28c-11.31-3-25.06 12.23-25.06 12.23s4.59 20 15.9 22.91 25.06-12.23 25.06-12.23-4.59-19.96-15.9-22.91zm-8.14 25.72a8.34 8.34 0 1 1 8.34-8.34 8.34 8.34 0 0 1 -8.34 8.34z"/><path d="m158.48 116.23c-11.34 4.11-15.16 22.25-15.16 22.25s14.55 11.49 25.89 7.38 13.42-27.05 13.42-27.05-12.82-6.68-24.15-2.58zm3.31 22.93a8.34 8.34 0 1 1 8.34-8.34 8.33 8.33 0 0 1 -8.34 8.34z"/>
    </symbol>
    <symbol id="beast" viewBox="0 0 200 200">
      <path d="m173.17 76v114.33h-146.84v-183.33h146.84v65.55c-.23-1.82-.38-3.66-.72-5.46-.42-2.19-.94-4.37-1.56-6.5a11.1 11.1 0 0 0 -2.51-4.52 4.07 4.07 0 0 0 -3-1.4 36.48 36.48 0 0 1 .4 10.77 45.25 45.25 0 0 1 -2.72 11.56 9.71 9.71 0 0 1 -7.68.91 23.57 23.57 0 0 0 -8.75 6 57.38 57.38 0 0 0 -5.11 6.3 47.41 47.41 0 0 0 -5.11 10.22 36.15 36.15 0 0 0 -2.33 10.18 26.27 26.27 0 0 0 1 11.07 11 11 0 0 0 4.18 5.61c3 2.07 6.27 1.8 9.5.62a23.33 23.33 0 0 0 8.7-5.94 57.24 57.24 0 0 0 5.15-6.36 43.87 43.87 0 0 0 5.09-10.15 37.32 37.32 0 0 0 2.52-15.16 2.55 2.55 0 0 1 .21-1.09 40.34 40.34 0 0 0 2.46-10.21c.11-1 .19-2 .28-3zm-17.6 90.64c-.17-1.51-.26-3-.53-4.53a21.46 21.46 0 0 0 -3.2-8.13c-2.83-4.23-6.19-7.64-11.42-8.77a26.24 26.24 0 0 1 -9.1-3.58 20.8 20.8 0 0 1 -6.93-7.06c-1.28-2.31-2.26-4.78-3.33-7.2-.57-1.31-1.06-2.65-1.58-4-1-2.69-2-5.42-4.24-7.46a30.35 30.35 0 0 0 -4.55-3.75 22.37 22.37 0 0 0 -8-3.06 22.59 22.59 0 0 0 -6.62-.11 23 23 0 0 0 -5.41 1.46 13.52 13.52 0 0 0 -5.58 3.66 44.79 44.79 0 0 0 -5.55 8.6c-.8 1.53-1.38 3.18-2.12 4.75-.85 1.78-1.37 3.71-2.6 5.33a21.84 21.84 0 0 1 -5.6 5.54 26.06 26.06 0 0 1 -4.21 2.26c-2.5 1-5.12 1.71-7.64 2.68a24.1 24.1 0 0 0 -13.36 11.9 23.29 23.29 0 0 0 -2 15.2 21.84 21.84 0 0 0 3.07 7.81 23.9 23.9 0 0 0 6.8 7.11 35.81 35.81 0 0 0 7.47 3.5 10.31 10.31 0 0 0 5.6.68c1.4-.25 2.77-.65 4.15-1 3.28-.79 6.11-2.52 9-4.19a78.33 78.33 0 0 1 7.91-3.91 27.33 27.33 0 0 1 9.69-2.17 35.8 35.8 0 0 1 16.08 3.22 65.7 65.7 0 0 1 10 5.5 18.65 18.65 0 0 0 13.45 3 24.47 24.47 0 0 0 12-5.31 23 23 0 0 0 5.2-6.38 24.11 24.11 0 0 0 3.15-11.61zm-33.52-157.5c-.3 1.11-.62 2.09-.82 3.1q-2.17 10.83-4.29 21.66a2 2 0 0 1 -1 1.63 16.89 16.89 0 0 0 -5.68 5.47 21.59 21.59 0 0 0 -2.85 6.72 76.06 76.06 0 0 0 -2.41 9.61c-.37 2.74-.66 5.48-.92 8.22a43.07 43.07 0 0 0 -.28 5.07 37 37 0 0 0 .49 4.68 38.55 38.55 0 0 0 2.09 8.3c1.29 3.38 2.61 6.72 5 9.5a16.14 16.14 0 0 0 5.15 4.32 10 10 0 0 0 10.47-.86 18.69 18.69 0 0 0 5.19-5.56 45.81 45.81 0 0 0 6.07-20.9 49.07 49.07 0 0 0 -.26-10.58 44.61 44.61 0 0 0 -1.63-8 37.69 37.69 0 0 0 -10.2-16.9 2.85 2.85 0 0 1 -.8-1.23c-1.15-8.1-2.23-16.17-3.32-24.25zm-42.37-1.68h-.1c-.15 1-2.55 18.51-3 21.81-.18 1.26-.08 2.62-1.21 3.6-7.81 6.8-11.7 18.45-12 28.44-.21 6 .07 12 1.89 17.76 1.29 4.11 2.66 8.15 5.4 11.59a17.39 17.39 0 0 0 5.07 4.63 10 10 0 0 0 10.2-.11 17.55 17.55 0 0 0 5.07-4.87c2.43-3.12 3.7-6.83 4.95-10.5a31.76 31.76 0 0 0 1.75-12.55 67.13 67.13 0 0 0 -.63-11.68 55.37 55.37 0 0 0 -2.89-10.52 22.5 22.5 0 0 0 -3.89-7.37 15 15 0 0 0 -5.71-4.62.71.71 0 0 1 -.36-.32 31.75 31.75 0 0 1 -2.71-13.09q-1-6.09-1.83-12.2zm-45.54 47.23c-10.08-.55-8.14 28.31-5.23 33.88a48.76 48.76 0 0 1 1.24 10.5 42.37 42.37 0 0 0 4.31 12.07 48 48 0 0 0 5.45 8.31 38.24 38.24 0 0 0 5.52 5.35 18.11 18.11 0 0 0 8 3.77 9 9 0 0 0 8.32-2.49 15.25 15.25 0 0 0 3.31-6.44 13.83 13.83 0 0 0 .56-3.51 34 34 0 0 0 -.91-10.08 48.66 48.66 0 0 0 -5.24-13.38 41.05 41.05 0 0 0 -5.19-7.29 35.55 35.55 0 0 0 -5.28-4.9c-3.69-2.53-7.55-4.23-12.23-3.07-2.71-7.35-4.16-14.84-2.63-22.72z" fill="none"/><path d="m173.17 76c-.09 1-.14 2-.28 3a40.34 40.34 0 0 1 -2.47 10.26 2.55 2.55 0 0 0 -.21 1.09 37.32 37.32 0 0 1 -2.52 15.16 43.87 43.87 0 0 1 -5.09 10.15 57.24 57.24 0 0 1 -5.15 6.36 23.33 23.33 0 0 1 -8.7 5.94c-3.23 1.18-6.49 1.45-9.5-.62a11 11 0 0 1 -4.18-5.61 26.27 26.27 0 0 1 -1-11.07 36.15 36.15 0 0 1 2.33-10.18 47.41 47.41 0 0 1 5.11-10.22 57.38 57.38 0 0 1 5.11-6.3 23.57 23.57 0 0 1 8.75-6 9.71 9.71 0 0 0 7.68-.91 45.25 45.25 0 0 0 2.69-11.55 36.48 36.48 0 0 0 -.4-10.77 4.07 4.07 0 0 1 3 1.4 11.1 11.1 0 0 1 2.51 4.52c.62 2.13 1.14 4.31 1.56 6.5.34 1.8.49 3.64.72 5.46z"/><path d="m155.57 166.62a24.11 24.11 0 0 1 -3 11.63 23 23 0 0 1 -5.2 6.38 24.47 24.47 0 0 1 -12 5.31 18.65 18.65 0 0 1 -13.45-3 65.7 65.7 0 0 0 -10-5.5 35.8 35.8 0 0 0 -16.22-3.24 27.33 27.33 0 0 0 -9.7 2.17 78.33 78.33 0 0 0 -7.89 3.93c-2.89 1.67-5.72 3.4-9 4.19-1.38.33-2.75.73-4.15 1a10.31 10.31 0 0 1 -5.6-.68 35.81 35.81 0 0 1 -7.47-3.5 23.9 23.9 0 0 1 -6.8-7.11 21.84 21.84 0 0 1 -3.09-7.83 23.36 23.36 0 0 1 2-15.2 23.86 23.86 0 0 1 13.35-11.9c2.51-1 5.14-1.68 7.64-2.68a26.06 26.06 0 0 0 4.19-2.26 21.84 21.84 0 0 0 5.6-5.54c1.23-1.62 1.75-3.55 2.6-5.33.74-1.57 1.32-3.22 2.12-4.75a44.79 44.79 0 0 1 5.55-8.6 13.52 13.52 0 0 1 5.58-3.66 23 23 0 0 1 5.44-1.45 22.59 22.59 0 0 1 6.62.11 22.37 22.37 0 0 1 8 3.06 30.35 30.35 0 0 1 4.55 3.75c2.25 2 3.2 4.77 4.24 7.46.52 1.33 1 2.67 1.58 4 1.07 2.42 2 4.89 3.33 7.2a20.8 20.8 0 0 0 6.93 7.06 26.24 26.24 0 0 0 9.1 3.58c5.23 1.13 8.59 4.54 11.42 8.77a21.46 21.46 0 0 1 3.2 8.13c.27 1.47.36 2.99.53 4.5z"/><path d="m122.05 9.14q1.64 12.12 3.36 24.21a2.85 2.85 0 0 0 .8 1.23 36.29 36.29 0 0 1 10.2 16.9 40.38 40.38 0 0 1 1.63 8 49.07 49.07 0 0 1 .22 10.56 45.81 45.81 0 0 1 -6.07 20.96 18.69 18.69 0 0 1 -5.19 5.56 10 10 0 0 1 -10.41.86 16.14 16.14 0 0 1 -5.15-4.32c-2.42-2.78-3.74-6.12-5-9.5a38.55 38.55 0 0 1 -2.09-8.3 37 37 0 0 1 -.49-4.68 43.07 43.07 0 0 1 .28-5.07c.26-2.74.55-5.48.92-8.22a76.06 76.06 0 0 1 2.42-9.62 21.59 21.59 0 0 1 2.78-6.71 16.89 16.89 0 0 1 5.63-5.46 2 2 0 0 0 1-1.63q2.13-10.83 4.29-21.66c.25-1.02.57-2 .87-3.11z"/><path d="m79.68 7.46q.82 6.1 1.83 12.2a33.41 33.41 0 0 0 2.71 13.09.75.75 0 0 0 .36.32 15 15 0 0 1 5.71 4.62 22.5 22.5 0 0 1 3.89 7.37 55.37 55.37 0 0 1 2.89 10.52 67.13 67.13 0 0 1 .63 11.68 31.38 31.38 0 0 1 -1.7 12.55c-1.23 3.67-2.52 7.38-4.95 10.5a17.55 17.55 0 0 1 -5.15 4.86 10 10 0 0 1 -10.2.11 17.39 17.39 0 0 1 -5.07-4.63c-2.74-3.44-4.11-7.48-5.4-11.59-1.82-5.81-2.1-11.76-1.89-17.76.35-10.3 4.08-21.5 12-28.44 1.13-1 1-2.34 1.21-3.6.48-3.3 2.88-20.81 3-21.81z"/><path d="m34.14 54.69c-1.53 7.88-.08 15.37 2.6 22.72 4.68-1.16 8.54.54 12.23 3.07a35.55 35.55 0 0 1 5.36 4.9 41.05 41.05 0 0 1 5.19 7.29 48.66 48.66 0 0 1 5.24 13.38 34 34 0 0 1 .91 10.08 13.83 13.83 0 0 1 -.56 3.51 15.25 15.25 0 0 1 -3.31 6.44 9 9 0 0 1 -8.32 2.49 18.11 18.11 0 0 1 -8-3.77 38.24 38.24 0 0 1 -5.52-5.35 48 48 0 0 1 -5.45-8.31 42.37 42.37 0 0 1 -4.31-12.07 48.76 48.76 0 0 0 -1.24-10.5c-2.35-4.4-5.35-34.45 5.18-33.88z"/>
    </symbol>
    <symbol id="celestial" viewBox="0 0 200 200">
      <path d="m84.7 110.5c.1-.47.17-.92.23-1.37-9.69 2.56-13 2.45-19.46 10.12-5.15 6.13-10.56 15.15-19.5 20.4 7.77-7.23 13.42-14.43 19.72-21.76 6.46-7.55 10.12-6.79 19.31-9.89a2.87 2.87 0 0 1 .08-.64c-4.35 1.38-9.34 1.53-13.62 3.91s-6.41 5.83-8.76 8.66c-5.45 6.55-12.58 13.58-17.36 20.07l.61-.26a20 20 0 0 0 2.8-1.59c-9.08 9.77-18.06 20.38-23.25 30 4.24-.25 12.75-7.72 15.84-10.34-5.61 10.54 9.64-2.63 13.41-6.75-.76 2.48-4.4 7 .2 5.43 3.94-1.3 11.52-9.92 13.71-12.38-.14 1.39-1.36 3.24-1 4.18 5.39-3.15 10.6-7.34 13.12-11.34 2.88 2.13 2.82 2.62 5.62-2.3s4.1-9.78 1.16-12.46c.08.07-3.08-11.63-2.86-11.69z"/><path d="m115.1 107.88c-.1-.5-.18-1-.24-1.48 11 .55 14.72-.36 22 6.71 5.77 5.64 11.79 14.47 21.87 18.22-8.73-6.25-15.05-13-22.09-19.71-7.24-6.92-11.4-5.19-21.83-6.44a3 3 0 0 0 -.09-.7c4.93.52 10.59-.5 15.42 1.14s7.2 5 9.82 7.62c6.11 6.05 14.1 12.24 19.44 18.38-.23 0-.45-.1-.69-.15a17.27 17.27 0 0 1 -3.15-1.12c10.18 8.8 20.23 18.55 26 28.15-4.82.74-14.38-5.62-17.84-7.82 6.22 10.48-10.92-.65-15.15-4.37.83 2.6 4.91 6.75-.3 6.14-4.45-.52-12.94-8.38-15.39-10.62.14 1.53 1.5 3.31 1 4.46-6.08-2.24-11.94-5.7-14.75-9.58-3.3 3.07-3.23 3.61-6.34-1.24s-4.53-10-1.15-13.7c-.04 0 3.71-13.87 3.46-13.89z"/><path d="m159.81 67.36c5.19 1.06 28.19 10.64 16.76-1.56 5.16-.8 17.43-2.24 22.13-10.46-10.29-10.86-25.25-15.44-39.15-18a15.67 15.67 0 0 0 3.83-2.4c.26-.22.51-.44.76-.68-5.61-3-13-2.92-19.1-5-4.91-1.65-10-4.86-15.28-5.31-9.13-.77-14.92 9.78-22.17 19-1.39 1.77-2.85 3.51-4.38 5.1a8.45 8.45 0 0 1 .44.85c12.17-9.49 15.35-25.3 28.13-21.13 10.27 3.33 20.08 7.22 31.52 6.94-11.64 6.88-22.71-1.82-31.93-4.89-11.52-3.82-15.9 8.52-26.24 20.18.26.87.51 1.73.75 2.61a33.38 33.38 0 0 1 2.84-2.53c.67-.58 5.11-5.88 5.11-5.88v1.16l-.61 7.81.14 2s2-1.65 7.83-10.19c-2.41 10 .34 16.15 6.18 18.81 0 .4 8.07 2.19 11.76 3.63 0-4.28-.76-3.48-.4-7.27 4.62 6.37 21.08 7.21 21.08 7.21z"/><path d="m42.08 90.34c13.73-3.54 10.85-21.34 12.71-30.16l.21 6.12s2.09 8.17 3 12.61a54.42 54.42 0 0 1 6.4-3.72c1.61-.87 4.39-2.6 4.39-2.6l.37-.27c5.36-4.15 5-16.12.51-25.95 0 0 5.83 9.12 10 8.7.2-.17 0-1-.26-2.06s-1.68-7-1.68-7 8.76 6.62 10.88 6.5a9.13 9.13 0 0 0 3.21-2.17c.2-.58-.28-1-1-1.82-15.46-6.65-21.32-22.08-32.26-15.3-8.71 5.38-18.14 17.05-31.32 12.7 11.64-2.44 20.76-8.81 30.49-14.73 12.27-7.47 18.69 8.81 33.09 15.45.08-.33.17-.64.26-1-7.08-3.5-13.65-11.64-17.24-14.53-7.12-5.73-10.67-6.27-16.35-3.53-10.11 4.91-22.79 10.72-31.18 18.1.3.19.59.36.91.53a14.57 14.57 0 0 0 4.35 1.58c-13.57 5.94-22.28 20.21-30.5 33.92 6.38 7.41 21.27-1.3 26.64-1.74-9.06 15.39 8.08 13.3 13.14 11z"/><path d="m98.63 22.75c3.45 0 14.71-.34 14.71-4.75s-11.26-4.75-14.71-4.75c-3.74 0-10.42.34-13.14 2.61a3 3 0 0 0 -1.21 2.84c.56 3.52 9.23 4.05 14.35 4.05zm-11.07-5.51c1.7-1.42 6.83-1.92 11.07-1.92 5.74 0 11.93 1 11.93 2.68 0 1.85-7 2.68-11.93 2.68-6.41 0-11.39-.95-11.59-2.21a1.26 1.26 0 0 1 .52-1.23z"/><path d="m124.33 88.29c-3.58-4.6-6.88-5.74-9.13-11.41-2.79-4.6-4.18-4.32-6.15-9.46-.51-2.7-.91-2.84-1.29.61-.7 4.76-3.48 9.67-2.4 14.45 1.83 3.48 4.5 6.57 5.45 11.24 1.3 6.31.39 9.07-.83 15.51-1.26 6.68-.85 17.22-2.15 23.87-.5 5.94.62 11.86.08 17.79-.39 2.44-1.14 4.8-.33 7.22.65 3 .31 6.44 1.24 9.31 1.62 1.55 3.61 3.63 2.55 6.32-1.13 4.7.56 8.93 0 13.68.68 3.6-1.9 5.09-3.56 2.22-1.44-2-1.35-3.76-1.72-6.25 0-3.68 1-8.94-.77-12.32-2.08-9.29-1.75-3.76-2.54-.16-1.81 4.12-.67 8.82-1.68 13.14 0 3 .47 7.07-2.57 8.39-1.55-.27-1.85.32-3.34.36-1.37.23-3.3-.57-2.09-3 .85-3.2 2.54-6.1 3-9.48a49.58 49.58 0 0 1 2.48-8.32c.85-6.61-.14-13.4-.08-20.06-.87-3.47-2.43-6.68-3.15-10.23-.81-4-.53-11-2.47-14.73-2.93-8.76-5.32-14.76-6.47-24.15a62.23 62.23 0 0 1 .5-11.29c.22-4.45 5-17.31 2.8-20.23-1.11 3.34-3.18 11.94-5.65 14.38-4.52 4.53-6 4.25-10.84 8.12-2.54.53-4.39.52-5.25 3-1.91.8-.57-2.9.54-3.54-2.12-.9-3.61.75-6 1-2.91 0-1.93-2 1-2.76 2.25-.93 2.88-1.67 6.24-1.07 3 .76 6.5-4.4 8-7 2.71-4.26 1.53-.37 4-6 2.07-6.8 3-10.09 3.28-17-.13-2.45.37-7.43 3.29-7.07 2.46-.19 5.11-.34 6-3.74.68-2.33-.73-4.38-1.22-6.5.3-1.8-2.74-2-1.89-4.91-2-4.65 1-9.93 4.43-12.15 2.87-.47 6.67-1.33 8.58 1.88 1.47 4.59 2.81 10 .17 14.45-1.73.21-2 3.28-2.47 5-.59 4.49 4.28 5 7.23 4.86 3.09.35 3.21 4.68 4.26 7.27 1.76 6.71 2.62 6.65 5.18 12.8.94 2.26 4.85 10 9.09 14.75 2.63-.08 4-.26 5.93.8 2.1.21 5.35 4.38 3.35 3.14-3.16-.8-3.49-1.25-5.49-1.13-3.25.56 4.12 3.88.79 3.25-2-1.54-3.15-2.06-4.77-1.83-2.27-.32-1.58-.83-1.85-.91z"/>
    </symbol>
    <symbol id="construct" viewBox="0 0 200 200">
      <path d="m51.91 99c4 .93 6.63-3.11 4.66 24.35s-26.31 66.81-30.86 63.29 16.59-38.34 14.82-64.86 7.39-23.86 11.27-22.94z"/><path d="m51.59 64c7.46-.3 14 5.9 14.46 13.69s-5.37 14.53-12.83 14.83-14-5.89-14.46-13.68 5.37-14.51 12.83-14.84z"/><path d="m103.41 80.7c24.8 2.2 32.46 7.2 31.13 28.42-.5 7.27-3.58 19.94-5 23.41-6 16.13-18.32-9.06-30.82-9.81-11.94-.82-23.63 19.13-28 5.55-1.2-3.7-2.27-16.87-1.55-25 1.72-21 9.33-24.83 34.13-22.62z"/><path d="m100.85 184.69c20.44 1.71 24.25-2.23 28.87-10.81 2.7-5.13 2.85-15.08 2.22-17.84-2.93-12.81-21.3 3.47-32.71 2.23-11.1-1.34-20.85-18-26.93-8.66-1.66 2.53-5.49 12.4-3.21 18.41 2.85 7.82 11.32 15 31.91 16.69z"/><path d="m104.72 18.15c11.6-.15 21.08 8.69 21.25 22s-16.48 28.45-25.59 28.57-16.17-14.82-16.38-28.08 9.11-22.34 20.72-22.49z"/><path d="m158.72 93.58c3.75.3 5.43-3.79 9 21.38s-10.51 64.04-15.35 61.54 7.35-36.89.55-60.63 1.93-22.6 5.68-22.3z"/><path d="m148.47 62c8.31 1.28 14.26 8.42 13.14 15.76s-9 12.37-17.26 11.1-14.26-8.42-13.13-15.76 8.94-12.37 17.25-11.1z"/><path d="m95.52 130.14h8.6v22.15h-8.6z"/>
    </symbol>
    <symbol id="elemental" viewBox="0 0 200 200">
      <path d="m155.04 6.86v.01z"/><path d="m161.83 106.1c.44-6.86-1.5-13.65-4-20.06s-5.6-12.6-7.62-19.17a63.26 63.26 0 0 1 5.55-49.48 235 235 0 0 1 -29.63 43.18c-5.77 6.67-11.95 13.06-16.77 20.44s-8.23 16-7.73 24.8a30.22 30.22 0 0 0 9.37 20.06 30.27 30.27 0 0 0 41.34.21 30.19 30.19 0 0 0 9.49-19.98zm-45.29 3.11c-2.29.94-6.88 1.39-8.57-.41s-2.45-6.3-2.22-8.76a30.55 30.55 0 0 1 4.67-12.8 103.36 103.36 0 0 1 8.23-11c9.11-11.24 4.83-11.1 5.84 6 .3 5 1.07 10.09.27 15.06-.4 2.48-5.88 10.95-8.22 11.91z"/><path d="m18.19 179.69a21.87 21.87 0 0 1 -13-12.92c-2.35-6.5-.33-18.77 4.19-25.77 6.11-9.46 20.23-17 35.71-19 18.51-2.41 30.52 2.7 55.09 23.47a215.94 215.94 0 0 0 17.52 13.53c14.67 9.65 26 10.61 41 3.48 12.05-5.73 18.54-13.34 20.87-24.46a36.51 36.51 0 0 0 .1-14.43c-.34-2.13-.47-4-.27-4.1 1.19-.73 3.44 5.22 4.22 11.14a34 34 0 0 1 -7.26 26.1c-5.67 7-16.24 13.44-26.69 16.4a36 36 0 0 1 -17 .89c-11.74-1.81-19.34-6-39.92-22-6.29-4.88-13.55-10.29-16.14-12-13.15-8.8-23-10.52-37.9-6.64-12.71 3.35-21.89 11.62-23.93 21.43-1.88 9.12 1.69 15.57 10.13 18.29 7 2.25 16.11-.47 19.13-5.69 3.54-6.13 2.08-12.88-3.46-16.1-4.39-2.55-12.06-2.08-15.36.95-2.71 2.49-2.73 7.25 0 9.42 1.62 1.3 4.82 1.58 7 .61 1.92-.83 2.53-.39 1.29.91-2.91 3.06-9 2.64-12-.83-2.35-2.68-2.89-4.73-2.17-8.24.52-2.53.85-3.22 2.21-4.61 3.22-3.28 7.55-4.88 13.61-5 9.38-.24 17.19 5.93 18.35 14.5a19.15 19.15 0 0 1 -3.86 14.62c-2 2.47-8.13 6.3-11.7 7.31-4.76 1.35-13.67.8-19.78-1.21zm103.74 9.95c-14.44-4.33-23.34-10.59-37.39-26.3-12.1-13.53-18.35-17.9-29.58-20.65a10.11 10.11 0 0 1 -3.14-1.09c-.72-1.61 7.34-1 13.06 1 8.3 2.89 14 7 26.94 19.42 10.49 10.06 15.76 14.12 22.73 17.46 14.26 6.85 31.86 7 45.85.3 10.51-5 20.75-14.53 28.29-26.31a15.73 15.73 0 0 1 2.73-3.46c.77-.47.78-.33.08 1.61-.43 1.17-1.24 3.44-1.8 5-1.82 5.13-7.09 12.71-12.78 18.37-12.85 12.8-29.35 18.21-48 15.76-3.12-.41-6.26-.92-7-1.14zm5.54-33.48c-8.81-3-16.37-7.84-29.92-19.29-11.69-9.88-17.7-14.16-25-17.77-11.94-5.93-24.4-6.08-38.89-.47-4.38 1.7-6.49 2.7-14.12 6.73a22.26 22.26 0 0 1 -4.18 1.91c-2.6-.41 9.44-8.7 18.33-12.62 15.67-6.91 30.51-6.35 45.23 1.7 6.35 3.47 11.12 7 24.08 18 17 14.33 23.53 18.23 33.32 19.82 6.15 1 10.56.7 17.15-1.16 5-1.39 5.54-1.46 5.36-.58-.23 1.09-7 3.81-12 4.79a39.54 39.54 0 0 1 -19.44-1z"/><path d="m48.17 6.25 2.45 4.12c4.71 8 6.2 13.93 6.38 25.44.14 9.42-.2 11.84-2.8 20.3s-2.89 10.47-2.35 17.56l.59 8-2-4.33c-2.29-4.9-2.62-10.24-1.75-28.88l.55-11.9-3.09-6c-3.16-6.19-11-14.83-9.62-10.67 1 3-1.43 9.75-7.31 20.61-7.29 13.49-8.79 18.73-8.08 27.73.86 10.88 6.46 20.7 16 28.05 3.11 2.41 5.69 3.63 7.61 3.59h2.9l-4.13-4.39a36.33 36.33 0 0 1 -9.86-21.91c-.46-5-.31-6.61.5-6.12a3.12 3.12 0 0 1 1.12 2.41c.06 2.76 5.64 12.79 9.65 17.35a67.6 67.6 0 0 0 9.42 8.3c5.47 3.92 6 4.11 12.38 4 3.67-.07 6.5-.45 6.29-.85-6-11.35-6.28-12.29-6.41-20.06-.12-7.19.22-8.53 4.14-17.59 4.88-11.26 6-16.24 5.91-24.53-.21-12-6-21-17-26.06a62.54 62.54 0 0 0 -8.79-3.62zm40.59 30.89-.65 4.39c-.93 6.24-2.18 9.23-7.54 18.14a102 102 0 0 0 -5.93 11.09c-1.89 5-.56 15.13 2.86 21.81l2.84 5.57 1.11-4.22c.85-3.23 2.85-6 8.54-11.72 8.26-8.32 9.45-11 9.25-21-.15-7.35-2.2-13-6.88-19.23l-3.6-4.79z"/>
    </symbol>
    <symbol id="giant" viewBox="0 0 200 200">
      <path d="m146 168.73c-1-1.5-2.84-3.2-2.2-5 .28-.75 1.48-1.73 2-2.45a5.36 5.36 0 0 1 1.22-1.58c1.16-.89 2.68-1 3.77-2.07 1.35-1.34 1.49-3.13 1.82-4.93.65-3.62 3.09-7.82 2.05-11.45s-3.53-7.11-5.27-10.38-3.43-6.56-3.53-10.4a30.57 30.57 0 0 1 2.12-10.45c.79-2.11 1.69-3.69 2.05-6 .28-1.82.57-3.63.8-5.46.45-3.59-1.1-5.83-2.13-9.11s-3-7.4-3-10.91c0-3.68 0-6.68-1.78-10-1.1-2-2.31-2.46-1.25-4.69a37.3 37.3 0 0 0 1.85-4.43c.91-2.84 2-6.48 1.34-9.5s-3.69-5.72-5.88-7.66c-2.51-2.24-5.33-2.29-8.1-3.86-1.45-.83-2.14-2.16-3.29-3.32a13.11 13.11 0 0 0 -4.11-2.59c-3.13-1.46-4.63-3.75-6.53-6.63-1-1.57-1.73-2.38-1.8-4.25-.06-1.71-.54-3.26-.65-4.95-.2-3.41 2.26-5 3.2-7.85-.82.26-2.48 1.16-3.34.89-1.07-.33-1.25-1.83-1.56-2.82-.64-2.06-.79-4.3-2.5-5.74-3.53-2.87-9.17-3.52-13.3-2.04-3.81 1.37-5.81 4.37-6.43 8.35-.3 2-.62 2.91-2.61 2.29-.57-.18-1.61-1.1-2-.35s.69 1.64 1 2.2c1.5 2.46.11 4-1.43 6.13a13.39 13.39 0 0 1 -4.1 3.73c-3.87 2.35-8.41 3.29-12.39 5.42-2 1.09-3.71 2.64-6.08 2.81-2 .14-3.85-.11-5.83.52-4 1.27-7 4.8-9.37 8.19a22.52 22.52 0 0 0 -4.25 11.54c-.17 2.44-.89 2.69-2.09 4.69-1.09 1.84-1.21 4.07-1.44 6.16-.55 5-.44 9.92-2.1 14.7-1.59 4.57-5.11 8.12-6.29 12.84s.09 9.41 1.14 13.93a28.46 28.46 0 0 1 .08 14.23 34.82 34.82 0 0 1 -2.81 6.75 32.59 32.59 0 0 0 -2 6.1c-.67 2.31-2.41 4.59-3.54 6.72s-1.14 3.56-.9 6a42.72 42.72 0 0 0 1.66 7.76c.68 2.3 2 3 3.23 4.87 1 1.58.82 3.57 1.58 5.29a9.6 9.6 0 0 0 4 4.43c1.31.7 1.35.54 2-.66.34-.66.37-1.39.76-2 1.07-1.79 2.41-2.66 2.52-5s-1-3.9-.6-6.13c.2-1 1.84-4.72 1.41-5.6a11.11 11.11 0 0 1 1.24 5.94c-.14 1.87-.53 3.4.71 5 3.7 4.72 5.52-2.2 5.85-5.36.26-2.4-.26-4.76-.16-7.15s.86-4.5 1-6.8a16 16 0 0 0 -.94-6.36c-.71-1.92-1.86-3.47-1.75-5.62.23-4.75 3.77-8.07 5-12.38 1.37-4.8 3.23-9.43 5.05-14.08 1.75-4.48 3.61-8.73 3.59-13.64 0-2.18-.45-4.68.36-6.73a33.3 33.3 0 0 1 3.71-6c1.89 2.7 2.52 6.25 4.48 9 1.2 1.68 2.22 2.31 1.2 4.34-.81 1.64-2.14 3.1-3.11 4.65a9.86 9.86 0 0 0 -1.64 5c-.05 1.37.57 3 .23 4.27s-1.65 2.42-2.32 3.62c-.84 1.53-1.56 3.16-2.3 4.75-3.46 7.33-4.11 15.18-3.57 23.2.24 3.52 1.4 7.29.57 10.74-.94 3.93-3.06 7.22-4.56 10.9a18.88 18.88 0 0 0 -1.29 10 9.17 9.17 0 0 1 -2.29 7.58c-2.12 2.58-4.57 4.65-6.37 7.52a33.63 33.63 0 0 0 -3.58 8c-1 3.27-1.82 7.2 0 10.36 1.48 2.57 3.77 2.39 5.86.74 1.86-1.47 5.89-2.72 8.22-1.51 1 .51 1.63 1.85 2.39 2.66a10.69 10.69 0 0 0 3.52 2.52c3.2 1.34 5.89-.08 8.52-2a64.15 64.15 0 0 1 7.26-4.48c3.32-1.76 4.73-3.29 3.5-7.09a8 8 0 0 1 -.68-4c.31-1.73.94-3 .8-4.86-.25-3.33-1.64-6.12.09-9.33 1.55-2.86 3.83-4.38 4.62-7.75a19.08 19.08 0 0 0 -.44-10.77c-.84-2.54-1.15-4.78.49-7.08 2-2.74 4.22-4.65 5.58-7.87 1.12-2.65 1.35-5.57 2.42-8.19a14.46 14.46 0 0 1 2.53-3.81c1.22-1.42 1.38-1.8 2.77-.54a47.76 47.76 0 0 1 6.3 7.23c4 5.47 6.4 10.78 5.31 17.7-.88 5.59-.73 13 4.09 16.77 5.41 4.26.39 13.2-.25 18.77-.44 3.89 2.25 4.7 5.38 5.73 2.94 1 5.77 1.55 8.41 3.21 2.84 1.79 6.53 2.35 9.79 2.77a43.61 43.61 0 0 0 5 .41c1.77 0 2 0 2-1.91 0-1.31-.51-2.78.84-3.35 1.11-.46 3.48.27 4.66.37a32.93 32.93 0 0 0 10-.2c-2.99-7.9-8.64-14.25-13.21-21.17zm-109.73-4.38c-2.8-.45-6.24-5.71-5.34-7.94 4.07.59 6.8 4.59 5.34 7.94zm11.39-10.87c-.57 1.69-1 4.24-3.07 3.17-3.34-1.76-2.37-6.47 1.41-6.45 2.28.01 2.22 1.59 1.66 3.28zm-2.4 43.06c-3 2.08-4.58-.17-4.9-3.09.36-3 .46-7.63 2.87-9.8 2.25-2 5.08-.73 5 2.16-.08 3.38.04 8.59-2.97 10.73zm25.74-1.06c-.31 1-2 1.73-2.74 2.26-1.62 1.12-3.28 2.5-5.32 2.45a9.22 9.22 0 0 1 -5.57-2.19 26.16 26.16 0 0 1 -2.57-4.28c1-4 1.42-9.93 6.6-10.11s7.07 4.1 8.61 8.27c.35.91 1.34 2.58.99 3.6zm72.26-1.5c-.54 1-1.32.59-2.41.44-2.61-.36-5.23-.66-7.83-1.13s-7.29-.61-5.73-4.36c1.45-3.49 4.5-9.35 8.87-8.78 6.21-.23 6.78 4.47 7 9.76.03.9.55 3.3.12 4.09zm-1.48-29.5c-2.06-2.23 1.89-3.56 3.46-3.38a7.55 7.55 0 0 1 -3.44 3.38zm7.15 24.52c-.71-.92-.71-3.89-.9-5.08s-.85-3.13-.15-4.38c3.56-6.33 9.85 7.56 10.56 10-2.07.33-8.04 1.35-9.51-.54z"/>
    </symbol>
    <symbol id="humanoid" viewBox="0 0 200 200">
      <path d="m124.56 13.6c-9.82 0-17.78 9.41-17.78 21a22.86 22.86 0 0 0 5.66 15.4l-13.89-4-21.81 6.5-8.61 21-8.32-6.26-10.76 11.29 19.67 13 18.11-27.26 5.8 1.58-8.95 45.53.07.18-24.37 25.31-34-35.56-17.95 30.49 21.31-6.62 24.11 34.71 45.83-20.69 23.69-6.81 14.33 49.2 29-17.25-21.58-5.46-6-43.22-27.42-5.27 11.64-34 26.36 11.52 21.06-31 12.73 1.6 4.57-17.75-14.53-5-29.81 31.76-16.32-12c8.95-1.09 15.93-10 15.93-20.9 0-11.61-8-21-17.78-21z"/>
    </symbol>
    <symbol id="monstrosity" viewBox="0 0 200 200">
      <path d="m176.18 98.32c-1.77 5.57-7.1-3.58-8.8-4.76a6.9 6.9 0 0 0 -7-.71c-1.86 1-2.5 2.94-3.76 4.44-1.48 1.75-3 2.7-3.64 5.13a13.17 13.17 0 0 0 .75 7.74c2 5.43 7.34 10.7 7.06 16.78-.32 7-7.74 6.16-12.15 3.66-2.4-1.36-4.44-3.32-6.94-4.53-3.11-1.49-4.24-1.29-5.55-4.42-1.84-4.38-6.15-7.67-9.8-10.49-1.27-1-10.23-5.87-10-7.32-.06.35 6.41 1.8 7.33 1.24 2-1.21-.55-4.9-1.53-6.35 2.68.5 4.21 2.52 7.26 2.35.91-.06 3.71-1.72 3.84-.7a6.29 6.29 0 0 0 -1.22-4.06c-.25-.37-2.46-2.41-2.39-2.53.49-.9 4.22.56 4.59.2a6 6 0 0 1 -1.52.27c2.35.61 10.75-1 10.64-4.47 0 .75-3.42-1.48-3.41-1.49.3-.65 5.66-1.77 6.55-2.2 1.13-.54 3.19-1.25 3.91-2.32.1-.14 1.16-2.6 0-1.7-.32-.35.93-.57.51-.88-1.12-.83-4.45.56-5.8.18 3.46-.41 8-4 10.85-5.83 2.55-1.62 9-4.89 9-8.39 0 .83-6.89 2.46-8 2.18 4.07-2.91 13.29-4.94 13.76-11.27-.87.69-3.79 1.6-4.83 2-.85.31-3.16 1.29-4.05 1a42.87 42.87 0 0 0 15.56-12.33c1-1.31 3.45-4.48.27-4.32-2.11.11-3.87 3.86-6.08 4 .92-1.75 4.21-4.13 5.59-5.67 1.95-2.18 3.8-4.36 5.54-6.72 1.6-2.17 3.35-4.29 4.82-6.55.34-.53 1.81-2.49 1.44-3.25-.65-1.3-.82 0-1.73.25a3.08 3.08 0 0 0 .7-.87c-2.69.88-4.9 5-7.48 6.38 1.8-3.25 4.18-6.16 5.84-9.49 1.11-2.22 4.54-7.27 4.15-9.83-.51-3.25-3.19 2.95-3.83 3.85a82.93 82.93 0 0 1 -7.21 9.26.56.56 0 0 0 .05-.69c.41.33-15.05 17.54-16.89 18.35.41-.93 2.69-5.11 1.52-6.1-.11.67-.25.72-.4.17-.2-.72-.59-.58-1.17.44-.87.44-1.72 1.82-2.42 2.5-1.37 1.35-3 3.62-4.7 4.46-.7-3 3.22-6.35 4.82-8.93.61-1 6.92-11.53 3.18-11.22-.75 1.14-2.86 5.08-4.31 5.38 0-2.06 3.28-5.78 4.29-7.76a49.49 49.49 0 0 0 3.9-9.72c.12-.44 1.6-5.79-.86-4.37-.34.2-1.05 2.86-1.26 3.27a46.41 46.41 0 0 0 -2.13 4.3l.73-.85c-1 2-2.2 3.92-3.37 5.84-.48.79-1 1.57-1.46 2.38-.17.33-1.28 1.57-.49 1.24-.78.32-1.62 2.4-2.16 3.11-1 1.29-2 2.57-3.06 3.83-2.17 2.67-4.8 6.15-7.63 8.13.57-1.19 5.29-7.68 2.52-8 .11 0-3.18 4.28-3.35 4.47-1.65 1.86-3.17 3.87-4.93 5.64-2.1 2.1-5.27 5.69-8.16 6.6.83-2.09 3.55-3.31 2.56-5.88-2.41 2.91-6 4.66-9.59 6-2 .72-4 1.3-6 2-2.8.93-5.7 2.69-8.55 3.33a25.29 25.29 0 0 1 1.31-3.07 2.24 2.24 0 0 1 .12-1.15 1.93 1.93 0 0 0 1-.68 14.93 14.93 0 0 0 1.13-7.34c-.15-1.56-1.75-4.21-1.52-5.58.28-1.64 3.72-3.11 5-3.27-.09-.37-.18-.41-.57-.38.59-.35-1-1.2-.79-1.11.75-1.09 2.12-1.88 2.58-3.11s-.33-1.59-.18-2.34c.26-1.27 1.83-2.19 2.42-3.46.81-1.75-.07-2.65.18-4.21-.35-.06-2.56 3.79-3.1 4.32-1.75 1.7-4 3.9-6.44 4.45 0-.38 1.18-1.09.57-1.53a.73.73 0 0 1 -.76.56c-.08 0 .71-1.28.64-1.65a1.91 1.91 0 0 0 -.8.38c.12-.41 1.23-2.25.1-1.22a32.43 32.43 0 0 0 1-3.52c.08-.45-.38-1.1-.41-1.59-.06-.84.6-1.24.16-2.22-1.77-3.93-1.69 1.81-1.93 2.47a10.57 10.57 0 0 1 -6.81 5.66c-2.3.45-3.38-.79-5.43-1.35-1.86-.51-2.79.18-4.47.6a8.83 8.83 0 0 1 -2.77.62c-1.73-.12-3.3-1-5.07-1.09a6.13 6.13 0 0 0 -6.82 5.62c0 .41-.17 3.27.92 3.14.29 0 1.54-2.14 2.54-2.4a6.24 6.24 0 0 1 4.34.79c.26.13 3.07 2.38 2.34 2.54 2.32-.48 3.43.35 4 2.55-1.41-.84-11-5.34-12.14-2.5.43-1.1 10.36 2.25 10.58 4.33-.81-.14-11.65-1.68-10.89.09.11.25 7.45.67 8.82 1.27 2.85 1.26 5.14 3.1 3 5.9a12.82 12.82 0 0 1 -6.22 4.14c-1.4.44-3 .29-4.36.73-1.23.39-2.08 1.2-3.41 1.42s-2.93-.22-4.46.05-2.67.53-4.14.7a37.46 37.46 0 0 0 -7.78 2.21 12.29 12.29 0 0 0 -3.29 1.94c-1.26 1-2.22 3-3.65 1.94-2.86-2.17 1.62-3.52 2.3-4.61-2.66-1.82-5 .89-7 2.1a15.3 15.3 0 0 0 -.78-3.84c-.25-1-1.15-2.48-1.32-3.2-.65-2.72-.35-5.56-1.4-8.3.53-.28 1.7-.81 1.1-1.73a1.59 1.59 0 0 1 -.76 1c.68-2.26 1-.3 2.06-1.8.6-.85 1.09-1.87 1.48-2.53 1.1-1.9 2.36-3.35 3-5.37a4.18 4.18 0 0 0 -.74-3.8 3.12 3.12 0 0 0 -2-1.2 22.77 22.77 0 0 0 0-2.74 6.45 6.45 0 0 0 -2.51-2.89c-.8-.45-1.43-.38-1.88.2s-.05.92 1 .76c0 .66-1.7 1.56-1.9 2.81-.14.89 0 2 0 3-.07 1.38-.3 8.43-2 8.93a27.93 27.93 0 0 1 -.53-3.93c-.33-1.85-.64-3.65-1.07-5.46s-.7-3.87-2.87-4.81c-1.25-.54-3.3-.8-3.12 1.24.42.1.61-.32 1.1-.1a34.32 34.32 0 0 0 1.22 8.69c.74 2.75 2.19 5.95 1.92 8.87-.2 2.23-2.44 5.19-3.67 7.38a11 11 0 0 1 -2.65 3.53c-.37.27-3.12 1.13-3.05.48 1.8 3.57 4.16 3.7 7 1a13.19 13.19 0 0 0 3-3.45c.66-1.32 1.18-3.54 2.3-4.56.77 2.82 1.31 5.75 1.95 8.61.28 1.24 1.12 3 .21 3.71-.26.2-2.43.29-2.24.68a6.09 6.09 0 0 1 1.54.63 2.2 2.2 0 0 0 -1.86.1c1.13.59 2.68.26 3.18 1.91-1.09-.22-5.9-1.43-5.83 1.15 0 .34 3.78.93 4.43 2.08.87 1.53-1.24 2.51-1.78 4.57-.6 2.33.78 3.85.63 5.82-4 0-8.91-4.9-11.92-7-2.65-1.85-8-3.92-6.45-8 .39-1 1.22-1.74 1.55-2.92a1.15 1.15 0 0 1 -.09-1.51 2 2 0 0 0 .81-1.29c.18-.89-.06-2 .13-2.86.38-1.6 1.29-2.06.67-3.91a4.18 4.18 0 0 0 -1.8-2.32 1.56 1.56 0 0 0 -1.71-.06 3.77 3.77 0 0 0 -1.15-1.82c-.87-.84-4.31-2.19-5-.57.85.67 1.83 0 2.8.84-2.86-.28-1.66 7.77-2 9.59a17.47 17.47 0 0 0 -1.94-1.81c-1-1-1.57-1.91-3.07-2.3-1.32-.34-5.82.49-4.75 2.92a5.55 5.55 0 0 1 1.69-1c1.43 2.2 3.21 4.44 4.7 6.81.87 1.38 1.61 2.79 2.58 4.11a13.39 13.39 0 0 1 1.51 1.82 2.79 2.79 0 0 0 -.87 1.06c-.43 2.91-1.53 13.68-6.16 11.83-.49 2.21 3.84 2.17 4.78 2a5.33 5.33 0 0 0 3.68-3c1.08-2.3.13-7.62 2.27-8.89.71 2.27 5.62 4.34 7.41 5.69 2.52 1.91 5.09 4.42 7.74 5.75-.07.75-2.2 2.73-1.74 3.5 1.58-.25 4.35-1.62 5.83-.13a6.22 6.22 0 0 0 -3.68 4.19c-.24.91-.43 3.82 1.15 4 .37-5.23 6.32-2.13 9.31-.57 2.51 1.32 1.3 1.6 1.86 4.2.51 2.4 1.35 2.78-.13 5.17.59 0 .9-.54 1.36-.67 1.25-.32 2.17-.41 3-1.78a6 6 0 0 0 .63-3.07c.51 0 1.89 4.57 2.26 5.34.56 1.16 1.27 1.91 1.87 3.19a12.33 12.33 0 0 0 2.64 3.34c4.31 4.45 7.73 7.88 13.52 10.26 2.88 1.19 5.8 2.16 8.72 3.23 2 .73 5.42 1.59 6.69 3.37 1.69 2.37 1.1 6.26 1.45 8.92a23.93 23.93 0 0 0 2.4 8c2.82 5.29 5.3 10.1 9.53 14.4 2.17 2.21 4.26 4.84 7 6.36 1.82 1 4.2 1.34 5.86 2.59s2.87 4 4 5.82a35.46 35.46 0 0 1 3 6.83c.79 2.22 2 6.13.9 7.76s-1.72.61-3.55.55c.91-.3-1.5-.62-1.8-.61a4.56 4.56 0 0 0 -3 1.6c-1.78 2.43.91 2.87 2.28 3.92a5.54 5.54 0 0 0 1.47 1.58 20.91 20.91 0 0 0 4.53 1c-1.64 1.88.88 3 1.87 4 .08.08 1 1.45.95 1.42.24.13 1.32.21.74-.22.72-.38 3 1.07 3.79 1.21 2.21.38 3.61-.81 5.51-.95.65-.05 1.8.53 2.26.4 1.68-.49 1-1.71 2.3-1.69-1-4.16 2.61-6.51 3.64-9.57a4.79 4.79 0 0 1 -2.75-.28c.82-1.18 1.94-1.78.58-2.64.25 1.64-1.91.85-2.67.13a4.33 4.33 0 0 0 3.12-2.8 3.39 3.39 0 0 1 -1.83.5 1.58 1.58 0 0 0 -1.19-1.86l1.37.34c-1.48-2.59-3.42-5.06-3.88-8.08-.35-2.31.57-4.74-.12-7-1.2-3.93-8.46-5.48-7-10.33a.52.52 0 0 0 -.39.38 2.57 2.57 0 0 1 -.84-1.54 13.7 13.7 0 0 0 1.2.93c-.1-1.89.61-.77 1.87-.42.11-1.34-1.65-1.89-1.85-3.11a10.17 10.17 0 0 1 1.85.58c0-.87-1.1-1.77-.43-2.39a1.34 1.34 0 0 0 1.2.29 2.67 2.67 0 0 0 -.3-1.47.94.94 0 0 1 1.18-.11c.26-1.27-.59-1.86.33-3a2.84 2.84 0 0 0 .57 2c.57-1.29 0-4.7.15-6.15s-.27-3.56.23-5c.35 1 .8 3.68 1.92 4.16.85-.42.22-1.84.32-2.52.25-1.64.57 1 .34-.89.64.92.15 1.79.85 2.72q.65-1.37 1.47.21c.1-.77-.91-1-.9-1.73.71.54 4.82 4.19 4.69 3.18-.49 0-1.12-.44-.52-.86.16.25.78 1.17 1.14 1.09s-.32-1-.2-1.25c.6.62 1.1 1.55 2 1.72-.3-.43-.62-.84-.94-1.24 4 1.15 6.63 1.92 10.78.21 4.56-1.87 5.94-7 5.18-11.46-1-5.59-14.42-23.13-4-25.89-5 4.5 4.46 7.11 7.42 6.61 2.36-.46 11.17-3.57 9.3-7.04z" />
    </symbol>
    <symbol id="ooze" viewBox="0 0 200 200">
      <path d="m194 166.75a4.37 4.37 0 0 0 4-2.93c-9.14-7.81-34 8.75-43.66-.08.47.42 33.59-6.39 10.56-16.41 15.51-5.47 19.06-6.51 19.29-24.26.21-15.12 6.35-52.78-5.32-65-5.68-5.93-23.19-9.49-30.63-12.53-10.24-4.15-20.56-8.06-30.64-12.54-30.36-13.38-59-.16-86.84 15.08-19.08 10.46-15.08 26.53-18.76 46.73-.78 4.28-.52 44 1.94 40.75 0 3.77-.23 12.22 3.72 15.14-10.77-3.07-21.66-.57-13.54 10.49 5.47 7.4 31.49 3.65 32.59 6.83 2.49 7.18-11.28 2.21-.41 10.27 5.15 3.83 21.9 1.69 29 3 10.54 2 20.78 5.2 31.48 6.43 11.36 1.31 20.43-.33 31.32-2.95 9.36-2.25 18.2-.66 28.2-2 13.69-1.8 22.52-4.16 36.94-3.33 4.63-5.91-10.19-7.62.76-12.69zm-26.17-99.75c-8.65 7.88-20.67 13.28-30.53 19.55-8.19 5.21-23 9.69-29.3 16.76-5.28 5.91-5.23 14.38-4.89 21.82 0 1.06 2.13 32.82-2.85 29.54-5.81-3.83-4.66-22.11-5.91-28.57-2.35-12.38-5.7-21.17-15.8-29.1-7.42-5.81-16.55-9.76-24.32-15.12-5.23-3.62-21.23-9.88-24.44-15.59 1 1.76 23.42 9.26 26.79 10.9 6.74 3.29 13.13 6.63 19.57 10.4 5.58 3.28 15.42 12 22.58 11 3.33-.47 6.16-5.22 9.63-6.34 10.25-3.25 18.31-5.25 27.86-10.5 7.97-4.36 26.78-10.41 31.61-14.75zm-131.23-11.92c19.52-10.53 45.89-23.47 68.12-17.17 13.08 3.7 23.81 12.89 37.26 16 3.44.8 26.3.5 26.3 7.85 0-5.61-26-5.59-27.7-5.93-18.52-3.62-32.42-17.23-51.29-15.24-4.51.47-62 10.24-62 19.83-.03-1.25 8.24-4.76 9.31-5.34zm-4.46 97.48c13 6 28.44 5.69 42.22 12.1 20.25 9.42 26.48 12.06 46.6-.51 1.52-1 55.54-27.29 55.54-26.65 0 5.79-28.92 14.27-33.11 16.49-12.94 6.87-29.54 24.73-44.4 24.39-14.09-.33-28.12-13.71-41.2-18.28-2.95-1-37.85-5.07-37.85-12.83 0 .49 11.32 4.88 12.2 5.29zm2.92 5.86 10.55 4.16c-4.24-1.51-7.67-2.9-10.55-4.16z"/>
    </symbol>
    <symbol id="undead" viewBox="0 0 200 200">
      <path d="m42.9 87.56c4.76-8.93.73-20 4.71-29.1 2.23-5.09 6.75-9.44 9.79-14.07 2.67-4 5.86-7.79 11-8.43-1.7 3.2-4.29 5.74-6 8.91-1.62 3-2.49 6.32-4.55 9.07-2.85 3.85-5.51 6.21-6.69 11.06-1.22 5-1.48 10.34-1.92 15.49-.32 3.68.11 8.55-3.35 10.86-2.6 1.74-6.51.5-8.92 2.55-8.78 7.47 7.87 16.12 12.86 18.36 4.13 1.86 9 3.24 12.45 6.2 3.74 3.16 5.11 7.94 9 11 7.37 5.86 18.33 7 27.37 7.92s19.69 1.76 27.28-4.22c3.92-3.09 6.94-6.22 11.92-7.54s9.91-1.53 14.68-3.24c3.86-1.39 11.76-5.26 10.74-10.57-.71-3.7-4.83-4.06-7.64-5.63-8.23-4.62-2.33-16.7.15-23.63 3.24 3.37 2.12 4.34 1.85 9-.16 2.85 0 5.73 0 8.59 8.49-.35 10.27-8 11.73-14.85 1.73-8.21 3.8-16.66 3.06-25.12-1.76-20.13-20.72-35.9-38.73-42.07-8.41-2.88-18.51-3.87-27.36-4.07-10-.23-19.88-1.32-29.71 1.38s-18.91 8.33-26.44 15.34a43.61 43.61 0 0 0 -13.35 26.09c-1.36 9.5-1.83 23.79 6.07 30.72zm33.35-20c8.75.44 19.97 5.95 17.19 16.44-2.44 9.42-15.57 15.17-24.44 15.1-10-.1-12.09-7.79-10.31-16.1 2-9.36 8.04-14.38 17.56-15.43zm52.23 5.73c9.15 1 15.09 7.68 15.88 16.68.46 5.33 1 9.85-3.77 13.28a16.82 16.82 0 0 1 -13.34 2.75c-7.69-2-15.09-10.68-16.68-18.33-2.13-10.13 10.09-13.61 17.91-14.37zm-22 45.68c-3.14-.83-6.67-2.39-9.89-2.63-2.78-.21-6.08.91-8.85 1.36-.31-5.09 5.71-23.87 12.8-23 3.66.42 3.34 4.79 3.81 7.53.94 5.56 2.76 10.97 2.13 16.77z"/><path d="m140.56 135.33c-5.28.87-10.1.13-13.88 4.63-3.27 3.9-4 9.35-5.86 13.94-4.79 11.7-15.52 13.09-27 11.78-10-1.15-23.34-3-28.86-12.73-5.22-9.16 1.54-18.24-8.12-26-4.08-3.29-6.68-3.83-7.12 1.7-.26 3.26-.32 6.55-.48 9.82-.38 7.5-1.46 14.1 3.55 20.35 3.44 4.18 6.21 9.18 9.72 13.28 4.62 5.37 11.33 7.06 18.08 8.23 6.2 1.09 12.51 1.13 18.75 1.81 5.78.62 11.09.1 16.22-2.8 7.68-4.36 16.83-11.87 18.91-20.73 1.83-7.79 5.24-15.33 6.09-23.28z"/><path d="m71.68 152.22c-.25 2.3-.49 4.95 1.59 6.41.93.65 3.8 1.23 4.4.12 1.96-3.64-3.74-5.96-5.99-6.53z"/><path d="m79.06 153.82c.35 2.8.47 9.14 4.68 7 1.33-.66 2.44-3.57 2-4.92-1.01-2.74-4.35-1.83-6.68-2.08z"/><path d="m90.16 155.82c-4.46 1.89-3.1 8.94 2 7.32 5.65-1.76 2.45-7.24-2-7.32z"/><path d="m81 144.57c3.87 2.2 8.47 1.15 7-4-.57-2-2.31-4.39-4.7-3.21-1.96 1.04-2.07 5.23-2.3 7.21z"/><path d="m95.86 138.32c-2.54-.28-4.22-1-6 1.17-1.39 1.75-1.64 5.47.37 6.88 5.08 3.57 7.34-4.72 5.63-8.05z"/><path d="m102.45 164.27c3.08 1.51 8.1-6.43 2-7.52-4.33-.75-4.94 6.78-2 7.52z"/><path d="m78.92 135.67c-6.17-2.56-9.26 5.94-3.81 8 4.3 1.66 6.62-6.45 3.81-8z"/><path d="m99.59 138.72c-1 3.14-3.38 7.42-.22 8.94 3.53 1.7 5.11-.65 5.14-3.73.04-4.32-.85-4.26-4.92-5.21z"/><path d="m108.62 138.79c-.55 2.26-2.66 8.54.86 9.35 2.38.54 3-2.17 3.52-3.92 1.08-4.02-.34-4.65-4.38-5.43z"/>
    </symbol>
    <symbol id="fiend" viewBox="0 0 200 200">
      <path d="m44.33 130.65s-16.77-10.36-18.62-2.1-2.15 10-2.15 10l16.56 14.56 10.23-15.13z"/><path d="m75.77 137.89s-16.77-9.46-19.77-1.5c-2 5.11-.19 6.45-.19 6.45l15 13.57 8.45-11.76z"/><path d="m98.25 138.16s-15.5-6.76-17.37 1.49a13.87 13.87 0 0 0 -.09 3.72l13.9 15 4.72-13.87z"/><path d="m70.07 170.33s20.9 6.51 22.75-1.75-.32-9.66-.32-9.66l-12.29-14.63-9.43 15.27z"/><path d="m43.16 163.51s23.17 15.32 25 7.06.47-12.82.47-12.82l-17.39-19.32-9.14 14.81z"/><path d="m15.06 160.33s24.13 12.19 26 3.93.3-8.95.3-8.95l-18.55-16-7.13 14.06z"/><path d="m24.36 127.51-20.29-6.02 4.3 12.98 7.59 14.78 5.85-10.66z"/><path d="m126.07 137.58s13.93-9.52 17.63-2c2.3 4.69 1.13 5.4 1.13 5.4l-16.47 15-8.14-11.55z"/><path d="m100.46 138.13s10.54-5.33 17.31 0c2.67 2.08.93 4.09.93 4.09l-14.32 16.41-4.38-13.8z"/><path d="m128.69 169.91s-22.2 7.06-23.82-1.15 1.69-9.69 1.69-9.69l12.69-14.95 9 15z"/><path d="m104.05 170.77s-10 4-10.12-.05a31.27 31.27 0 0 1 1.74-11l3.55-11.59 4.54 11.87z"/><path d="m155.79 162.41s-23.57 13.82-25.19 5.59-.14-11.77-.14-11.77l17.91-17.68 8.76 13.53z"/><path d="m184 158.52s-24.84 10.54-26.46 2.33 4.38-10 4.38-10l14.93-13.14 6.75 13.87z"/><path d="m155.51 129.56s17.05-10.78 18.67-2.57 1.89 9.92 1.89 9.92l-17 15-9.78-14.91z"/><path d="m175.47 126.58 20.46-6.54-4.65 13.1-7.99 14.97-5.57-10.51z"/><path d="m97.45 117.78a10.42 10.42 0 0 1 -12.14-4.53 11.81 11.81 0 0 1 6.86.15 11.8 11.8 0 0 1 5.28 4.38z"/><path d="m103.67 118a10.41 10.41 0 0 0 12.14-4.54 10.41 10.41 0 0 0 -12.14 4.54z"/><path d="m177.77 61.43c4.4-15.92 20.51-19.29 13.75-39.17 3.58 10.49-7 28-16.77 31.45q.78-12.27 1.58-24.55c-7.14 9.54-16.93 17.1-26.64 23.84 1.46-6.71 3.17-19.31-3.57-24.46 1.39 10.62-3.28 19.34-8.45 27.79l-1.9-18.33c-3.06 10.4-4.8 21-11.14 30.11-.28-3.93-2-7.79-2.2-11.72-19.61 33.38 24.6 43.83 47.27 31.2 12.58-7 20-25 27.75-36.78zm-29.09 27.86c-13.69 0-13.69-22.78 0-22.78s14 22.78 0 22.78z"/><path d="m21.9 61.43c-4.41-15.92-20.52-19.29-13.76-39.17-3.58 10.49 7 28 16.78 31.45q-.8-12.27-1.58-24.55c7.14 9.54 16.93 17.1 26.66 23.84-1.46-6.71-3.17-19.31 3.57-24.46-1.42 10.63 3.26 19.35 8.43 27.8l1.89-18.34c3.11 10.35 4.81 21 11.11 30.06.28-3.93 2-7.79 2.2-11.72 19.6 33.38-24.6 43.83-47.28 31.2-12.58-7-20-25-27.74-36.78zm29.1 27.86c13.69 0 13.69-22.78 0-22.78s-14 22.78 0 22.78z"/>
    </symbol>
    <symbol id="plant" viewBox="0 0 200 200">
      <path d="m186 99.84c0-6.32-4.58-12.24-12.91-16.67a57.52 57.52 0 0 0 -15.21-5.26c9.19-13.14 10.27-26.5 2.61-33.37s-22.49-5.91-37.12 2.35c-3.84-15.13-13.61-25.25-24.44-25.25s-20.59 10.12-24.43 25.25c-14.63-8.26-29.5-9.22-37.16-2.35s-6.58 20.23 2.66 33.36c-16.9 3.45-28.18 12.22-28.18 21.94s11.28 18.49 28.18 21.94c-9.19 13.13-10.27 26.49-2.61 33.36 3.41 3.07 8.26 4.58 13.88 4.58 7 0 15.17-2.34 23.28-6.92 3.84 15.13 13.61 25.25 24.43 25.25s20.59-10.12 24.44-25.25c8.11 4.58 16.29 6.92 23.28 6.92 5.62 0 10.47-1.51 13.88-4.58 7.66-6.87 6.58-20.23-2.61-33.36 16.8-3.45 28.03-12.22 28.03-21.94z" fill="none" stroke="#000" stroke-miterlimit="10" stroke-width="4"/><path d="m98.93 179.94c-11.11 0-21.23-9.65-25.7-24.28-7.5 3.85-15.24 6-22 6-6.27 0-11.55-1.76-15.26-5.09-7.89-7.09-7.49-20.33.81-33.51-16.24-4.06-26.96-13.18-26.96-23.22s10.72-19.14 27-23.17c-8.3-13.17-8.7-26.42-.81-33.5s22.62-6.66 37.27.86c4.42-14.63 14.53-24.29 25.65-24.29s21.24 9.66 25.71 24.26c14.65-7.52 29.4-7.92 37.27-.86s7.49 20.33-.82 33.51a57.12 57.12 0 0 1 13 4.84c9.01 4.81 13.91 11.32 13.91 18.35 0 10-10.71 19.14-26.94 23.17 8.29 13.18 8.7 26.42.81 33.51-3.71 3.33-9 5.09-15.26 5.09-6.77 0-14.51-2.1-22-6-4.45 14.68-14.56 24.33-25.68 24.33zm-23.12-30.08.63 2.5c3.62 14.23 12.66 23.79 22.49 23.79s18.88-9.56 22.5-23.79l.63-2.5 2.33 1.32c7.6 4.28 15.5 6.64 22.26 6.64 5.23 0 9.55-1.4 12.5-4 6.89-6.19 5.73-18.62-2.9-30.94l-1.62-2.32 2.86-.58c15.88-3.3 26.51-11.37 26.51-20.14 0-5.6-4.22-10.94-11.89-15a55.26 55.26 0 0 0 -14.66-5.06l-2.86-.59 1.62-2.31c8.63-12.32 9.79-24.76 2.9-30.95s-20.92-5.2-34.75 2.6l-2.34 1.32-.63-2.5c-3.62-14.24-12.66-23.8-22.5-23.8s-18.87 9.56-22.49 23.8l-.63 2.5-2.34-1.32c-13.83-7.8-27.79-8.84-34.76-2.6s-5.72 18.62 2.91 31l1.62 2.31-2.87.58c-15.84 3.18-26.51 11.26-26.51 20.02s10.67 16.84 26.55 20.09l2.87.58-1.62 2.32c-8.63 12.32-9.8 24.75-2.91 30.94 3 2.65 7.28 4 12.51 4 6.76 0 14.66-2.36 22.25-6.64z"/><g stroke="#000" stroke-miterlimit="10"><path d="m138 104.8c2.83-2.79 4.42-4.72 4.42-4.72s-1.77-2-4.89-5a38 38 0 0 0 10.26-6.45 64.23 64.23 0 0 0 9.45-10.47 78 78 0 0 0 -14.93-1.41c-7.88 0-15.26 2.5-21.63 5.86-1-.55-2-1.08-3-1.59 4-5.87 7-12.74 7-20.09a56.65 56.65 0 0 0 -1.57-13.41 69 69 0 0 0 -11.71 8.48c-6 5.42-9.34 12.54-11.11 19.46-.92-.12-1.85-.21-2.78-.27-1.79-6.84-5.08-13.84-11-19.19a69.43 69.43 0 0 0 -11.71-8.46 57.18 57.18 0 0 0 -1.56 13.46 34.34 34.34 0 0 0 5.19 17.2c-1.9.71-3.73 1.51-5.5 2.38a44.13 44.13 0 0 0 -17.32-3.81 78.1 78.1 0 0 0 -14.93 1.41 64.23 64.23 0 0 0 9.45 10.47 34.53 34.53 0 0 0 5.23 3.85 81.42 81.42 0 0 0 -8.48 8.5 80.55 80.55 0 0 0 7.17 7 33.43 33.43 0 0 0 -3.92 3 64.23 64.23 0 0 0 -9.45 10.47 78.1 78.1 0 0 0 14.93 1.41 43 43 0 0 0 15.58-3.1 62.29 62.29 0 0 0 6.54 2.9 33.57 33.57 0 0 0 -4.49 16 57.1 57.1 0 0 0 1.56 13.4 69.43 69.43 0 0 0 11.67-8.48 37.56 37.56 0 0 0 10.66-17.79c1.18-.07 2.35-.2 3.51-.37a37.72 37.72 0 0 0 10.76 18.16 69 69 0 0 0 11.66 8.48 56.57 56.57 0 0 0 1.57-13.4c0-7-2.73-13.55-6.4-19.22 1.17-.63 2.32-1.27 3.43-1.94a46.13 46.13 0 0 0 20.6 5.33 78.1 78.1 0 0 0 14.93-1.41 64.23 64.23 0 0 0 -9.45-10.44 37.76 37.76 0 0 0 -9.74-6.2zm-36.1 16.89c-13.16 3.12-26.65-3.94-30.12-15.75s4.34-23.94 17.51-27.04 26.64 3.94 30.11 15.76-4.4 23.92-17.55 27.03z"/><ellipse cx="93.87" cy="97.91" rx="9.2" ry="8.26"/></g>
    </symbol>
    <symbol id="fey" viewBox="0 0 200 200">
      <path d="m176.81 32.08c.15-5.77-3.1-8.87-8.72-9.13-4.37-.2-10.62.26-13.91 3.49-7.73 7.58-3.15 23.85-.82 32.82-8.34-6.43-18.36-9.9-27-15.87 7.81.43 6.57-15.69 6-20.34-4.94 2.91-11 6.84-13 12.48-5-11 5-27.42 16-30.77 4.88-1.48 7.18 2.53 8.39 6.7.94 3.21 1.57 16.41-5 13 6 3.81 7.23-7.28 7-10.72 3.28 3.13 9.77-3 12-5.14-2.79-1.14-11.41-4.4-13.1-.12-2.38-6.78-7.75-8.25-14.06-5.08-8.68 4.35-15.82 13.37-17.6 23-4.26 23.07 25.14 29.65 37.68 42.72-4.88-1.76-9.9-2.36-14.93-3.39-2.25-.46-5.83-1.92-7.06.88-.9 2 .84 5.55 1.54 7.4-3.94-.36-4.54 3.27-2 5.56.94.84 5.39 3.87 6.77 3.42.91-.3 1.81-4.13 2-5 .72-2.76.71-7.29-3.41-5.75-2.15.8-2.12 2.89-3.51.66-.68-1.08-1.45-4.92-.83-6 1.58-2.77 9.72.73 12.27 1.37 3.86 1 9.52 2.15 12.55 4.85s5.1 8.21 6.46 11.94c-5.45-3.91-13.79 2.82-17.5 6.49a63.37 63.37 0 0 0 8.98 2.32c1.83.35 10.14 2 11-.61 3.17 16.66-3.54 32.73-13.86 45.56-.77-13.82-6.75-27.16-17.58-36q-1.74-1.42-3.62-2.67c-1.07-.71-3.64-1.57-4.4-2.59s0-2.7.1-4.21a17.56 17.56 0 0 0 -.62-5.49c-2.22-7.75-9.74-11.87-16.22-15.62 6.44-8 6.92-18.07 5-27.77-.84-4.28-3.43-9.33-2.7-13.58a26.59 26.59 0 0 0 -1.49-14.71c6.36.55 2.84-13.71 2.17-16.81a24.23 24.23 0 0 1 -.5 6.25 7.39 7.39 0 0 1 -1.6 3.5c-.76.78-2.87 1.31-2.37 2.79-1.12-1.71-6.13-5.7-1.85-6.46a2.7 2.7 0 0 0 -2.56 1.15 42.67 42.67 0 0 0 -3.9-3.45 19.74 19.74 0 0 1 2.78 3c1.41 2.23.38.35.52 2.75a69.3 69.3 0 0 0 .62 7.6c-3.23-2.6-9.72 2.62-12.13 4.56 3 .92 10.94 3.41 13-.22.66 3.12 1.39 6.23 2 9.35.77 3.6 0 5.24-1.78 8.37a99.71 99.71 0 0 1 -6.67 9.65c-2.07 2.74-4.48 5.5-5.86 8.66-2.36 5.38-.7 11.46 2.84 15.89-4.61 3.11-9.87 5.72-13.11 10.41a19.62 19.62 0 0 0 -3.21 8.83c-.18 1.48 0 3-.23 4.48-.29 2.19-1.44 2.24-3.42 3.55a48.57 48.57 0 0 0 -20.83 32.97 44.21 44.21 0 0 1 -6.25-28.52c1.36-10.27 4.55-22.74 12-30.18 1.81 3.55 7.27 4.88 10.83 5.7-1.29-3.41-3.06-7.56-6.3-9.53 11.35-8.42 30.66-16.47 33.4-32.2 1.54-8.88-4.35-16.61-12.19-20.1-9.07-4-17-1.81-23.63 5.18 1.79-9.65-12.7-10.48-19.1-10.58 1.29 5.14 7.09 22.64 15.24 15.93-4 7.79.64 14.23 8.56 16.08-3.69 2.51-1.59 6.14 2.26 6.32 1.55.07 7.57-.58 8.61-2.05 1.56-2.19-4.81-12.3-8.54-9.8-1.72 1.15-.64 4.3-1.66 5.13s-4.64-1.55-5.44-2.1c-4.13-2.81-5.14-7.33-3-11.78 4.33-9.11 14.57-14.06 23.94-9.85-5.1-1.66-2.59 8.18-1.58 10.27 2.43-1.92 5.22-5.06 5-8.38 10.33 7.03 7.93 18.18-.67 25.46-9.35 7.92-21.43 11.74-30.91 19.44-2.1-4-6.67-4.37-10.44-5.73a11.48 11.48 0 0 1 -7.71-8.92 16.77 16.77 0 0 1 1.72-11.14c1.8-3 3.65-2.46 4.63.84-1.34-6.46-5.51-1.81-7 2.1-2.15 5.79-1.58 12.81 3.16 17.15 2.57 2.35 12.44 4 12.44 8.16 0 1.55-3.89 5.25-4.88 6.83a58.94 58.94 0 0 0 -4.55 9.27c-2.81-3.81-9.57-1-13 .4 1.56 3.5 5.15 9.91 10 8.13-5.81 18.47-3.19 36.71 7.54 53.04a103.05 103.05 0 0 0 10.33 13.13c3.54 3.85 6.42 8.2 10.06 12a68.84 68.84 0 0 0 22.66 15.57c8.13 3.41 15 3.86 23.44 1 10-3.44 18.78-9.65 26.89-16.41 17.74-14.78 34-34.75 37.6-58.19a60.29 60.29 0 0 0 -6.81-38.22 53.31 53.31 0 0 0 -5.79-8.5c-1.43-1.72-3.43-3.31-4.49-5.23-2.94-5.32-4.06-13.38-4.83-19.36 3.45 2 8.74-3 11-5.21-3.3-1.11-8.13-2.58-11.36-.65 0-3.81.67-8.32 4-10.71s9-2.85 12.8-2.5c10.35 1 6.2 14.41 4.7 21 1.16-4.39 2.42-8.73 2.61-13.21zm-57.21 117.42c-1.42 0-10.9.15-11.85-1.67-.52-1 1.24-3.65 1.76-4.33 5-6.52 16.57-5 22.94-1.67-3.03 3.86-7.71 7.67-12.85 7.67zm-12.76-135.22.28.86c-.33-.69-.69-1.36-1.08-2zm-4.61-.51a19.63 19.63 0 0 1 -.88-5.63c4 5.37 6.16 11.75 5.18 18.46-1.53-4.25-3.12-8.47-4.3-12.83zm-5.5 44.31c2.53-5.82 6.44-11 9.06-16.78.85 6.57 1.21 13.92-1.75 20.06-.85 1.74-3.34 6.16-5.2 5.39-2.94-1.23-3.2-6.31-2.11-8.67zm-19.13 81.08c4.22 0 8.93 1.08 11.42 4.8.76 1.13 1.87 3.12 1 4s-4.67 1-5.94 1.19c-3.06.38-6.25.66-9.2-.36a20.85 20.85 0 0 1 -9.1-7 26.12 26.12 0 0 1 11.82-2.63zm11.12-45.95c-.19-3.57 1.58-5.51 4.09-7.75 1.5-1.33 4.4-4.71 6.28-5.3 1.47-.45 2.43.81 3.87 1.9 1.25 1 2.5 1.9 3.69 2.93 1.54 1.33 3.72 3.13 4.21 5.22.13.58.39 2.43-.18 2.85-.25.18-4.1-.66-4.48-.71a53.48 53.48 0 0 0 -17.48.86z"/>
    </symbol>
    <symbol id="close" viewBox="0 0 17 17">
      <rect width="20" height="3" x="-1.868" y="6.632" transform="rotate(45 8.132 8.132)"/>
      <rect width="20" height="3" x="-1.868" y="6.632" transform="scale(-1 1) rotate(45 0 -11.5)"/>
    </symbol>
    <symbol id="filters" viewBox="0 0 29 23">
      <path d="m0 3h29v2h-29z" fill="#fff"/><circle cx="7.5" cy="4.5" fill="#000" r="3.5" stroke="#fff" stroke-width="2"/><path d="m0 10h29v2h-29z" fill="#fff"/><circle cx="21.5" cy="11.5" fill="#000" r="3.5" stroke="#fff" stroke-width="2"/><path d="m0 17h29v2h-29z" fill="#fff"/><circle cx="4.5" cy="18.5" fill="#000" r="3.5" stroke="#fff" stroke-width="2"/>
    </symbol>
  </defs>
</svg>
