<svg xmlns="http://www.w3.org/2000/svg">
  <defs>
    <symbol id='card-frame'>
      <path d='m4.93 294.06h217.67v42h-217.67z' fill='#fff' stroke='#000' strokeMiterlimit='10' />
      <path d='m227.39 5v328.51a5 5 0 0 1 -5 5h-217.39a5 5 0 0 1 -5-5v-328.51a5 5 0 0 1 5-5h217.39a5 5 0 0 1 5 5zm-7 317.24v-304.49a12 12 0 0 0 -12-12h-189.39a12 12 0 0 0 -12 12v304.49a12 12 0 0 0 12 12h189.36a12 12 0 0 0 12-12zm-143.96-316.49c2.84 16 18.47 28.32 37.34 28.32s34.49-12.28 37.33-28.32z' />
      <path d='m15.12 14.68h197.05v273.55h-197.05z' fill='none' stroke='#000' strokeLinecap='round' strokeLinejoin='round' />
      <circle cx='25.8' cy='24.35' fill='#fff' r='15.25' stroke='#000' strokeMiterlimit='10' />
      <ellipse cx='17.03' cy='284.73' fill='#fff' rx='7.47' ry='7.5' stroke='#000' strokeMiterlimit='10' />
      <g>
        <path d='m197.21 15.08 9.79-5.58 10 5.65v11.5l-10 5.85-10-5.92z' fill='#f00' stroke='#000' strokeMiterlimit='10' />
        <text fontFamily='Alegreya-Medium,Alegreya' fill='#fff' fontSize='12' transform='matrix(1.1 0 0 1 203.97 23.83)'>5</text>
        <text fontFamily='Alegreya-Medium,Alegreya' fill='#fff' fontSize='5' transform='matrix(1.1 0 0 1 209.95 24.94)'>e</text>
      </g>
    </symbol>
    <symbol id="dragon" viewBox="0 0 200 200">
      <path d="M2,129.19c.64-2.11,1.12-4.54,2.2-6.43,1.28-2.25,3.57-4.09,5.29-5.89,3.72-3.91,7.33-8.41,11.37-11.82,3.33-2.84,8-2.57,12-3,5-.58,10-1.21,15-1.93-.72-1.53-1.64-3.1,0-4.68.56,2,1.08,3.46,3.09,3.78,1.6.27,3-1.12,3.48,1.66,2,.77,4,2.7,5.89,3.83,2.48,1.48,4.8,3.23,7.29,4.72,3.56,2.2,10.25,5.53,14.41,3.59-2.8-3.73,2.13-4.31,3.77-5.39s3.68-2.61,4.48-4.72c1.08-2.75,2.85-7.51,2.65-10.57C92.58,87.69,90.7,83,89.7,78.6c-.64-2.69-2.32-4.76-3.6-7.24a39.74,39.74,0,0,0-4.69-7.87c-2.72-3.1-5-3.82-8.77-4.13-3.36-.32-6.45,1.17-9.85,1.17.4-1.44,1.76-2.52,2.56-3.69,0,.45,0,.81,0,1.26.28-.45.48-.81.76-1.22A7.79,7.79,0,0,1,66.27,58a3.91,3.91,0,0,0,2.37-.81,2.87,2.87,0,0,0,.2.5,6,6,0,0,1,.44-.59,1.92,1.92,0,0,1,.44.36c.2-2.52-5-.76-6.13-1.44,1.4-.13,2.36-1.12,3.77-1.26s2.68,1.49,3.76,1.4c2-.18,2.52-2.88,5.17-1.89.48-1.53.32-1.84-1-1.66L75,51.35H74a5.3,5.3,0,0,0-.16-.63l-.56.32c.12-.41.2-.72.32-1.13-.24,0-.48,0-.72-.09-.12-.9-.28-1-1-.72-.12-.36-.2-.67-.36-1.17-.28.36-.44.59-.68.86-.44-.5.6-2.29-1-1.62-.08-.36-.16-.67-.24-1-.28.23-.52.5-.88.81,0-.4,0-.85-.08-1.53-.36.63-.6,1.13-.88,1.62h-.2c.08-1.17.76-3.19-.85-2.83-.4-1.35,1.49-2.12,2.37-2.25a5.57,5.57,0,0,1,4.76,1.93c1.2,1.31,1.77,3.15,3.29,4.27s1.52.63,3.08.23c.16,1.21,1.68,0,2.12,0-.12.23-.24.45-.4.72a4.52,4.52,0,0,0,2,.5c-.12,3.73,5.65,4.41,7.21,6.92-1.88-.13-2.72-1.3-4.6-1.3.36.45.64.85,1.08,1.44-1.2-.45-1.56.67-2.28,1.08H87.1c-.4.49-.68.85-1,1.21.24.45.24.45,2.44.09-.44.63-.8,1.17-1.28,1.89.64-.22,1.12-.4,1.56-.58l.12.13a13.37,13.37,0,0,0-1,1.17c.72,1,1.32-.49,2,0-.28.4-.6.85-1,1.39a8.17,8.17,0,0,0,1-.18c-.2.27-.32.5-.48.72.88,1.53,2.4.27,3.65-.22,0,.09.08.13.12.22-.72.68-1.45,1.31-2.17,2,.4.45.52.63.68.81.81-.49,1.61-.94,2.37-1.39,0,0,.08.13.12.18-.52.81-1,1.57-1.56,2.43.28.36.52.72.8,1.08.8-.45,1.56-.9,2.32-1.31l.08.09c-.88,1.53-1.88,3.55.4,4.36a89.28,89.28,0,0,0,5.93,10.57c2.68,3.87,4.4,4.32,8.57,5.26,3.12.72,6.48-1.93,9.85-2.11s7.85.76,10.77-2.07c5.65-5.53,2.68-16.23.64-22.75a27.86,27.86,0,0,0-2.72-6.21c-.72-1.12-2.2-2.38-2.28-3.78s1.24-1.93.24-3.37c-.81-1.17-4.33-1.26-5.57-1.48,2.56-.9,7.85-2.39,9.33,1.25,3.08-6.16,7.09-11.55,10.13-17.71,1.44-2.93,2.44-6.61,4.33-9.18,1.6-2.25,4.08-2.83,6.44-3.86,6-2.61,12.06-4.91,18.18-7.06,5.85-2.07,13.06-3.6,18.91-.72,0,.09,0,.18-.08.27-3.41-.41-4.69.81-5.61,4.72a21,21,0,0,0,.76,11.33c2.8,7.55,8.17,12.41,13.42,17.72,0,.09-.08.13-.12.22l-3.13-2.07c-4.36,6.43-8.21,13.4-8.37,21.81a28.16,28.16,0,0,0,2.37,10.93c.92,2.43,4.16,6.66,3.76,9.36-1.32-2.25-1.52-3.29-4-3.33a39.27,39.27,0,0,0-7.65.45,37.36,37.36,0,0,0-12.9,5.08,27.21,27.21,0,0,0-9.45,10.39,70.09,70.09,0,0,0-3.76,8.63c-1.37,3.64-1.85,4.86-.28,8.41a.26.26,0,0,1-.16.09c-1.73-2.79-2.57-3.69-5.49-4.63s-5.73-1.76-8.61-2.47c-5.61-1.4-11.41-2.52-17.18-1.71.44.31.68.49,1,.76-.68,1.08-2.8-.22-3.88,0,.4.4.76.72,1.12,1.07.16-.13.28-.26.48-.4.92,2.16,4.8,6.12,7.13,5.4a31.14,31.14,0,0,0,4.92,3.19c0,.09,0,.18,0,.27.12-.18.28-.36.52-.68,0,2.66,2.17,3.42,3.25,5.45.32-.59.52-1,.76-1.35.08,0,.2,0,.28,0-.64,2,1,2.39,1.72,3.46.4-.4.76-.71,1.2-1.16,0,3.55,3,6.16,5.45,8.49A8.63,8.63,0,0,0,149,131.8c.2-.13.4-.27.76-.54-.6,3.6,2.64,2.48,4.69,4s2,3.78-.76,3.24c1.08,1.17,0,1.57.32,2.74a18.65,18.65,0,0,0,1.76,3.33,62.36,62.36,0,0,1,3.56,8.09c1,2.79,2.32,5.53,3.13,8.37s.76,5.48,1.84,8.09c2.2,5.49,6.77,9.81,10.49,14,1.4,1.57,12,11.78,10.85,13.26h-.44c-7.17-7.37-15.94-13.44-22.34-21.72-3-3.82-4.49-8.27-6.49-12.72a107.47,107.47,0,0,0-15.86-25.55,61.87,61.87,0,0,0-5.37-5.62c-2-1.84-2.12-2.29-3.64-.49-.64.76-3.92,3.19-4,3.87-.12,1.25,2.2,4,2.8,5,1,1.62,2,3.55,3.4,4.31s3.49.23,4.21,2.34c-1.2-.9-2-.4-2.65.59.85,1.66,4.21,1.8,5.73,2.2-.08-.81-.16-1.62-.2-2.38a5.23,5.23,0,0,0,.76-.18c-.2-.54-.36-1-.56-1.53a.26.26,0,0,1,.16-.09c.72.9,1.48,1.8,2.2,2.7a.48.48,0,0,1,.24-.09c0-.63.12-1.22.16-2,1.21,2.57,1.49,6.61-.64,8.73-1.72,1.71-5.32.67-7.24-.14-5.25-2.29-6.37-11.46-12.22-12.23-4.44-.58-14.3,2.83-16.62-3.91-.6-1.76.6-5.62,1.44-7.24,1.57-3,4.89-4.63,7.73-5.58-5.4-1.12-10.29-3.42-13.89-8.36-3.17,4.22-4.49,8.32-6.17,13.44-1.72,5.36-4.41,10.12-2.68,15.7-1.21-1.53-1.65-2.88-3.25-4a30.11,30.11,0,0,0-5.2-2.61c-3.57-1.53-7.09-2.25-10.74-.54A21.17,21.17,0,0,0,66.47,145c-2.08,2.92-3.6,5-1,7.73-1.36-.18-1.88-1.35-2.72-2.38a35.66,35.66,0,0,0-4.32-4.45,20.64,20.64,0,0,0-9.54-4.72c-7.28-1.58-14.93.54-22.1,1.84.16,1,.32,1.84.48,2.7a2.34,2.34,0,0,0-.24.09C25,140.3,21,134,16.26,131a15.36,15.36,0,0,0-8.69-2.29c-1.24,0-3.45.13-4.49,1.08-.68.63-.24,1.44-1,1.84C2,130.68,2,129.91,2,129.19Zm73.24-72.4c-.44-1.21-.76-1.3-1.6-.4C74,57.42,74.64,57,75.24,56.79Zm9.18-.9c.08.09.12.18.2.27.4-.09.76-.18,1.4-.36C85.18,55.13,85.38,55,84.42,55.89Zm38.64,78.88c0,.09,0,.23,0,.31.72-.08,1.44-.17,2.16-.31,0-.09,0-.22,0-.31C124.5,134.55,123.78,134.68,123.06,134.77Z"/>
    </symbol>
    <symbol id="aberration" viewBox="0 0 200 200">
      <path d="m52.47 47.59s-11.47 9.25-23.69 7.41-16.58-18.61-16.58-18.61 4 1.15 19 2.82a47.15 47.15 0 0 1 21.27 8.38z"/><path d="m143.08 48.21s11.92 7.52 24.92 5.57 15.48-16.24 15.48-16.24-1.63.94-17.5 2.84a60.54 60.54 0 0 0 -22.9 7.83z"/><path d="m98.68 40.33a84.48 84.48 0 0 0 -34.27 7.73s15.34 16.42 34.27 16.42 34.32-16.42 34.32-16.42a84.54 84.54 0 0 0 -34.32-7.73zm-7 23.26a5.93 5.93 0 1 1 5.48-5.91 5.71 5.71 0 0 1 -5.43 5.91z"/><path d="m98.68 142.07c-27.75 0-50.25 17.56-50.25 17.56a93.81 93.81 0 0 0 17.26 14.86 14 14 0 0 1 -2.06-7.28c0-9 8.8-16.38 19.66-16.38s19.65 7.34 19.65 16.38c0 7.92-6.75 14.53-15.72 16a8.73 8.73 0 1 0 -14.85-6.21 8.24 8.24 0 0 0 .17 1.59c7.61 4.09 16.56 7.21 26.14 7.21 27.75 0 50.24-26.21 50.24-26.21s-22.49-17.52-50.24-17.52z"/><path d="m102.67 70.76c-35.73 0-68.67 23.57-68.67 23.57s29 31.59 64.7 31.59 64.69-31.59 64.69-31.59-24.98-23.57-60.72-23.57zm-13.79 53.24a8.53 8.53 0 0 0 2-5.43 8.63 8.63 0 0 0 -17.25-.19 20.42 20.42 0 1 1 15.25 5.62z"/><path d="m36.48 115.28c-11.31-3-25.06 12.23-25.06 12.23s4.59 20 15.9 22.91 25.06-12.23 25.06-12.23-4.59-19.96-15.9-22.91zm-8.14 25.72a8.34 8.34 0 1 1 8.34-8.34 8.34 8.34 0 0 1 -8.34 8.34z"/><path d="m158.48 116.23c-11.34 4.11-15.16 22.25-15.16 22.25s14.55 11.49 25.89 7.38 13.42-27.05 13.42-27.05-12.82-6.68-24.15-2.58zm3.31 22.93a8.34 8.34 0 1 1 8.34-8.34 8.33 8.33 0 0 1 -8.34 8.34z"/>
    </symbol>
    <symbol id="beast" viewBox="0 0 200 200">
      <path d="m173.17 76v114.33h-146.84v-183.33h146.84v65.55c-.23-1.82-.38-3.66-.72-5.46-.42-2.19-.94-4.37-1.56-6.5a11.1 11.1 0 0 0 -2.51-4.52 4.07 4.07 0 0 0 -3-1.4 36.48 36.48 0 0 1 .4 10.77 45.25 45.25 0 0 1 -2.72 11.56 9.71 9.71 0 0 1 -7.68.91 23.57 23.57 0 0 0 -8.75 6 57.38 57.38 0 0 0 -5.11 6.3 47.41 47.41 0 0 0 -5.11 10.22 36.15 36.15 0 0 0 -2.33 10.18 26.27 26.27 0 0 0 1 11.07 11 11 0 0 0 4.18 5.61c3 2.07 6.27 1.8 9.5.62a23.33 23.33 0 0 0 8.7-5.94 57.24 57.24 0 0 0 5.15-6.36 43.87 43.87 0 0 0 5.09-10.15 37.32 37.32 0 0 0 2.52-15.16 2.55 2.55 0 0 1 .21-1.09 40.34 40.34 0 0 0 2.46-10.21c.11-1 .19-2 .28-3zm-17.6 90.64c-.17-1.51-.26-3-.53-4.53a21.46 21.46 0 0 0 -3.2-8.13c-2.83-4.23-6.19-7.64-11.42-8.77a26.24 26.24 0 0 1 -9.1-3.58 20.8 20.8 0 0 1 -6.93-7.06c-1.28-2.31-2.26-4.78-3.33-7.2-.57-1.31-1.06-2.65-1.58-4-1-2.69-2-5.42-4.24-7.46a30.35 30.35 0 0 0 -4.55-3.75 22.37 22.37 0 0 0 -8-3.06 22.59 22.59 0 0 0 -6.62-.11 23 23 0 0 0 -5.41 1.46 13.52 13.52 0 0 0 -5.58 3.66 44.79 44.79 0 0 0 -5.55 8.6c-.8 1.53-1.38 3.18-2.12 4.75-.85 1.78-1.37 3.71-2.6 5.33a21.84 21.84 0 0 1 -5.6 5.54 26.06 26.06 0 0 1 -4.21 2.26c-2.5 1-5.12 1.71-7.64 2.68a24.1 24.1 0 0 0 -13.36 11.9 23.29 23.29 0 0 0 -2 15.2 21.84 21.84 0 0 0 3.07 7.81 23.9 23.9 0 0 0 6.8 7.11 35.81 35.81 0 0 0 7.47 3.5 10.31 10.31 0 0 0 5.6.68c1.4-.25 2.77-.65 4.15-1 3.28-.79 6.11-2.52 9-4.19a78.33 78.33 0 0 1 7.91-3.91 27.33 27.33 0 0 1 9.69-2.17 35.8 35.8 0 0 1 16.08 3.22 65.7 65.7 0 0 1 10 5.5 18.65 18.65 0 0 0 13.45 3 24.47 24.47 0 0 0 12-5.31 23 23 0 0 0 5.2-6.38 24.11 24.11 0 0 0 3.15-11.61zm-33.52-157.5c-.3 1.11-.62 2.09-.82 3.1q-2.17 10.83-4.29 21.66a2 2 0 0 1 -1 1.63 16.89 16.89 0 0 0 -5.68 5.47 21.59 21.59 0 0 0 -2.85 6.72 76.06 76.06 0 0 0 -2.41 9.61c-.37 2.74-.66 5.48-.92 8.22a43.07 43.07 0 0 0 -.28 5.07 37 37 0 0 0 .49 4.68 38.55 38.55 0 0 0 2.09 8.3c1.29 3.38 2.61 6.72 5 9.5a16.14 16.14 0 0 0 5.15 4.32 10 10 0 0 0 10.47-.86 18.69 18.69 0 0 0 5.19-5.56 45.81 45.81 0 0 0 6.07-20.9 49.07 49.07 0 0 0 -.26-10.58 44.61 44.61 0 0 0 -1.63-8 37.69 37.69 0 0 0 -10.2-16.9 2.85 2.85 0 0 1 -.8-1.23c-1.15-8.1-2.23-16.17-3.32-24.25zm-42.37-1.68h-.1c-.15 1-2.55 18.51-3 21.81-.18 1.26-.08 2.62-1.21 3.6-7.81 6.8-11.7 18.45-12 28.44-.21 6 .07 12 1.89 17.76 1.29 4.11 2.66 8.15 5.4 11.59a17.39 17.39 0 0 0 5.07 4.63 10 10 0 0 0 10.2-.11 17.55 17.55 0 0 0 5.07-4.87c2.43-3.12 3.7-6.83 4.95-10.5a31.76 31.76 0 0 0 1.75-12.55 67.13 67.13 0 0 0 -.63-11.68 55.37 55.37 0 0 0 -2.89-10.52 22.5 22.5 0 0 0 -3.89-7.37 15 15 0 0 0 -5.71-4.62.71.71 0 0 1 -.36-.32 31.75 31.75 0 0 1 -2.71-13.09q-1-6.09-1.83-12.2zm-45.54 47.23c-10.08-.55-8.14 28.31-5.23 33.88a48.76 48.76 0 0 1 1.24 10.5 42.37 42.37 0 0 0 4.31 12.07 48 48 0 0 0 5.45 8.31 38.24 38.24 0 0 0 5.52 5.35 18.11 18.11 0 0 0 8 3.77 9 9 0 0 0 8.32-2.49 15.25 15.25 0 0 0 3.31-6.44 13.83 13.83 0 0 0 .56-3.51 34 34 0 0 0 -.91-10.08 48.66 48.66 0 0 0 -5.24-13.38 41.05 41.05 0 0 0 -5.19-7.29 35.55 35.55 0 0 0 -5.28-4.9c-3.69-2.53-7.55-4.23-12.23-3.07-2.71-7.35-4.16-14.84-2.63-22.72z" fill="none"/><path d="m173.17 76c-.09 1-.14 2-.28 3a40.34 40.34 0 0 1 -2.47 10.26 2.55 2.55 0 0 0 -.21 1.09 37.32 37.32 0 0 1 -2.52 15.16 43.87 43.87 0 0 1 -5.09 10.15 57.24 57.24 0 0 1 -5.15 6.36 23.33 23.33 0 0 1 -8.7 5.94c-3.23 1.18-6.49 1.45-9.5-.62a11 11 0 0 1 -4.18-5.61 26.27 26.27 0 0 1 -1-11.07 36.15 36.15 0 0 1 2.33-10.18 47.41 47.41 0 0 1 5.11-10.22 57.38 57.38 0 0 1 5.11-6.3 23.57 23.57 0 0 1 8.75-6 9.71 9.71 0 0 0 7.68-.91 45.25 45.25 0 0 0 2.69-11.55 36.48 36.48 0 0 0 -.4-10.77 4.07 4.07 0 0 1 3 1.4 11.1 11.1 0 0 1 2.51 4.52c.62 2.13 1.14 4.31 1.56 6.5.34 1.8.49 3.64.72 5.46z"/><path d="m155.57 166.62a24.11 24.11 0 0 1 -3 11.63 23 23 0 0 1 -5.2 6.38 24.47 24.47 0 0 1 -12 5.31 18.65 18.65 0 0 1 -13.45-3 65.7 65.7 0 0 0 -10-5.5 35.8 35.8 0 0 0 -16.22-3.24 27.33 27.33 0 0 0 -9.7 2.17 78.33 78.33 0 0 0 -7.89 3.93c-2.89 1.67-5.72 3.4-9 4.19-1.38.33-2.75.73-4.15 1a10.31 10.31 0 0 1 -5.6-.68 35.81 35.81 0 0 1 -7.47-3.5 23.9 23.9 0 0 1 -6.8-7.11 21.84 21.84 0 0 1 -3.09-7.83 23.36 23.36 0 0 1 2-15.2 23.86 23.86 0 0 1 13.35-11.9c2.51-1 5.14-1.68 7.64-2.68a26.06 26.06 0 0 0 4.19-2.26 21.84 21.84 0 0 0 5.6-5.54c1.23-1.62 1.75-3.55 2.6-5.33.74-1.57 1.32-3.22 2.12-4.75a44.79 44.79 0 0 1 5.55-8.6 13.52 13.52 0 0 1 5.58-3.66 23 23 0 0 1 5.44-1.45 22.59 22.59 0 0 1 6.62.11 22.37 22.37 0 0 1 8 3.06 30.35 30.35 0 0 1 4.55 3.75c2.25 2 3.2 4.77 4.24 7.46.52 1.33 1 2.67 1.58 4 1.07 2.42 2 4.89 3.33 7.2a20.8 20.8 0 0 0 6.93 7.06 26.24 26.24 0 0 0 9.1 3.58c5.23 1.13 8.59 4.54 11.42 8.77a21.46 21.46 0 0 1 3.2 8.13c.27 1.47.36 2.99.53 4.5z"/><path d="m122.05 9.14q1.64 12.12 3.36 24.21a2.85 2.85 0 0 0 .8 1.23 36.29 36.29 0 0 1 10.2 16.9 40.38 40.38 0 0 1 1.63 8 49.07 49.07 0 0 1 .22 10.56 45.81 45.81 0 0 1 -6.07 20.96 18.69 18.69 0 0 1 -5.19 5.56 10 10 0 0 1 -10.41.86 16.14 16.14 0 0 1 -5.15-4.32c-2.42-2.78-3.74-6.12-5-9.5a38.55 38.55 0 0 1 -2.09-8.3 37 37 0 0 1 -.49-4.68 43.07 43.07 0 0 1 .28-5.07c.26-2.74.55-5.48.92-8.22a76.06 76.06 0 0 1 2.42-9.62 21.59 21.59 0 0 1 2.78-6.71 16.89 16.89 0 0 1 5.63-5.46 2 2 0 0 0 1-1.63q2.13-10.83 4.29-21.66c.25-1.02.57-2 .87-3.11z"/><path d="m79.68 7.46q.82 6.1 1.83 12.2a33.41 33.41 0 0 0 2.71 13.09.75.75 0 0 0 .36.32 15 15 0 0 1 5.71 4.62 22.5 22.5 0 0 1 3.89 7.37 55.37 55.37 0 0 1 2.89 10.52 67.13 67.13 0 0 1 .63 11.68 31.38 31.38 0 0 1 -1.7 12.55c-1.23 3.67-2.52 7.38-4.95 10.5a17.55 17.55 0 0 1 -5.15 4.86 10 10 0 0 1 -10.2.11 17.39 17.39 0 0 1 -5.07-4.63c-2.74-3.44-4.11-7.48-5.4-11.59-1.82-5.81-2.1-11.76-1.89-17.76.35-10.3 4.08-21.5 12-28.44 1.13-1 1-2.34 1.21-3.6.48-3.3 2.88-20.81 3-21.81z"/><path d="m34.14 54.69c-1.53 7.88-.08 15.37 2.6 22.72 4.68-1.16 8.54.54 12.23 3.07a35.55 35.55 0 0 1 5.36 4.9 41.05 41.05 0 0 1 5.19 7.29 48.66 48.66 0 0 1 5.24 13.38 34 34 0 0 1 .91 10.08 13.83 13.83 0 0 1 -.56 3.51 15.25 15.25 0 0 1 -3.31 6.44 9 9 0 0 1 -8.32 2.49 18.11 18.11 0 0 1 -8-3.77 38.24 38.24 0 0 1 -5.52-5.35 48 48 0 0 1 -5.45-8.31 42.37 42.37 0 0 1 -4.31-12.07 48.76 48.76 0 0 0 -1.24-10.5c-2.35-4.4-5.35-34.45 5.18-33.88z"/>
    </symbol>
    <symbol id="celestial" viewBox="0 0 200 200">
      <path d="m155.62 69.26a49.93 49.93 0 0 1 -11.42-1.16l-.84-.17a8.81 8.81 0 0 0 -1.31-1.35c10.76 1.51 23.81 1.52 33.34-4.79h.64a4.78 4.78 0 0 1 -.86 2.23c-2.38 3.81-13.77 4.76-17.76 5.1 1.68 1.41 4.17 1.8 5.19 3.49l-.31.24-.22-.28a16.65 16.65 0 0 1 -6.45-3.31z"/><path d="m153.76 72.41c-2.88 1-6.41-.75-9-1.71a4 4 0 0 0 -.09-.48 5.54 5.54 0 0 0 -.59-1.36c2.92 1.39 6.39 3.14 9.68 3.55z"/><path d="m146 78.3c1.36 4.87 3.38 5.9-1.62 6.07-4.66.17-10.69-4-13.9-7.12.35-.1.7-.2 1-.32.75.64 15.49 7.93 15.28 6-.47-1.49-.9-3-1.29-4.52z"/><path d="m139.14 75.65a37.36 37.36 0 0 1 4.54 4.72 48.46 48.46 0 0 1 -5.07-3.37 2.32 2.32 0 0 0 .53-1.35z"/><path d="m139.63 75.05c9 2.14 13.75.85 22.44-2.45l.22.28c-4.47 3.56-10.48 6.52-16.25 5.42l-.48.13a2.17 2.17 0 0 1 -.07-.24 14.81 14.81 0 0 1 -5.87-3z"/><path d="m110.27 86.36c3.69-1.37 7.44-5.1 11.41-4.83s6.75 4 9.44 6.61c6.25 6 13.94 11.32 19.66 17.72a6 6 0 0 1 -1.2.12v-.33a5.43 5.43 0 0 0 .56.09c-8.23-5.14-14.84-12-22-18.48s-9.83-2.85-17.64 0c-.02-.26-.12-.59-.23-.9z"/><path d="m114.19 51.93a6.93 6.93 0 0 1 .17 5.23c-.18-.27-.37-.53-.56-.79a31.35 31.35 0 0 1 .2-4.06c-.49 1-1 1.87-1.47 2.66-.52-.44-1-.87-1.58-1.3 5.1-8.83 4.68-17.73 16.28-18.1 9.29-.3 22.2 2.16 30.15-4.26l.16.13a11.1 11.1 0 0 1 -2.54 2.19c13.26-1.63 28.19-2.34 41.17 1.5-1.26 5.64-11.71 9.17-16 10.73 14.44 4.36-6.16 10.86-11.18 11.41 3.17 1.81 7.24 2 7.09 4.55h-.64c-2.17-1.84-5.31-2.76-7.67-4.4a93.77 93.77 0 0 1 -22.46-.48 149.82 149.82 0 0 0 22.23 5.81c-.78.05-1.57.08-2.36.08-7 0-14.45-2-20.8-4.6a67.58 67.58 0 0 0 3.86 7c-3.79 0-7.58.62-11.34.55a2.53 2.53 0 0 0 .91.17 8.43 8.43 0 0 0 -1 .54l-.29-.72c-6.13-.21-11.68-6-13.06-12.21-2.21 6.08 8.07 11.56 11 14.72l-.25.22c-4.7-3.86-9.61-4.22-11.41-11.55a9.46 9.46 0 0 1 -1.52 2.88c1.85 3.13 3.49 7.08 6.49 9.25q-2-1.15-4.06-2.19a20.05 20.05 0 0 1 -2.61-6.89 6.19 6.19 0 0 1 -1.1 1c.32 1.72.92 3.37 1.32 5.07a6.28 6.28 0 0 0 -1-.13 14.27 14.27 0 0 1 -1.08-6 25.65 25.65 0 0 0 -2.2-4.52 11.67 11.67 0 0 1 -1 4.23c-.19-.27-.38-.55-.56-.83a17.43 17.43 0 0 0 1.16-4.05 33.2 33.2 0 0 0 -2.25-3z"/><path d="m111 88.94c8.06-3.9 10.56-6.47 17.81.32 5.76 5.41 12.59 15 20.82 16.39v.33a8 8 0 0 1 -2-.28c10.06 8.11 20.28 17.63 27.34 28.74-3.32 3.07-12.19-1.86-15.38-3.51 7.65 12.16-8.18 3.7-12.37.23 1.38 3.31 5.58 7.44 1.6 8.78-3.42 1.15-12-6.36-14.41-8.48.55 2.09 2.07 4 2.06 5.86-5.1-.6-10.42-3-13.62-7.3-1.7 6.45-2.36 5.44-5.67-.13s-5.48-11.33-4.06-17.89c.24-1.11.45-2.22.61-3.35.61 5.54 5.92 9.23 6.06 14.78a72.38 72.38 0 0 0 1.79-8.4c-3.89-4.08-5.54-11.52-3.76-17.09-4.82 3.16 1.87 15.71 1.39 19.42-.2-6.59-5.44-10.17-3.23-17.54a5.17 5.17 0 0 1 -2.25.93v.69a.84.84 0 0 1 -.16-.49.55.55 0 0 1 0-.18l-.14-.66c2.19-.89 3.76-2 4.4-3.46-.4-2.79-1.43-5.52-1.62-8.34-.43.3-.85.62-1.27.91 1.63 3.51 1.8 6.6-.27 9 1.15-3.37.28-5.39-.32-8.66a15.06 15.06 0 0 1 -1.54.81 21.77 21.77 0 0 1 .27 8 11.29 11.29 0 0 1 -.39-3.57l-.28.38-.14-.68c.14-.14.28-.28.41-.43 0-1.2-.12-2.39-.26-3.57l-.18.08a6.46 6.46 0 0 1 -.44 1.68l-.23-1.07.39-.48-.45.19c-.15-.6-.32-1.28-.51-1.96z"/><path d="m110.22 69c.39.35 2.52 2.46 2.92 2.8a29.15 29.15 0 0 1 -5.06 7.2c0-.57 0-1.14 0-1.71.27-1.27.13-1.85.45-3.1 1.29-2.77.24-7.89 1.69-5.19z"/><path d="m110.7 48.21c3.21-6.78 4.66-14 13.06-15.55 4.85-.9 10.52-.22 15.47-.37 6.13-.18 12.7-1.86 18.75-1.4-.14.19-.28.37-.44.55l-.16-.13c-10.09 2.67-20.19 2.64-30.5 3-12.84.46-10.12 10-17.6 18.09a6.66 6.66 0 0 0 -.69-.38 31.13 31.13 0 0 0 2.11-3.81z"/><path d="m95.38 49.54c.28 1.08.12 2.9-3.63 3.18-2-.83-2.32-11.08-3-14.07-1.28-5.44.76-12.32 8.68-13.58 6.54-1.05 10.55 3.64 12 9.31.3 1.13 2.49 7.95 2.75 9 .11.48-.68 2.62-1.68 4.7-1.09 2.25-2.42 4.42-3.1 4.33-3.78-.54-3.21-5-3.21-.71 0 1.51 2.93 0 6.09 3 2.74 2.61 6.31 8.92 8 12.38 6.63-.36 9.65 5.31 16.19 2.78 1.9-.74 2.84-3.2 5.27-2.85 1.06.15 3.56 2 3.87 3.32a.86.86 0 0 1 -.09.69c0-.27-2-.44-3.73.48l-1.79 1.22c-3.9-.07-16.21-.06-20.32-.69-4.7-.73-5.56-2.78-7.9-5.19.12-3.93-.09-1.47-.14-6.59.09 9.8-2.24 10.83-1.88 20.12.78 2 1.48 4 2.08 6.1.48 1.63.9 3.27 1.26 4.9a76.78 76.78 0 0 1 1.6 10.4c.51 6.24-1.21 12.34-3 18.21-1.63 5.23-4.65 10.71-5.12 16.24-.53 6.29.14 11.36-1.4 17.89-1.36 5.76-2.11 10.68-1.08 16.6.31 1.75 4.32 17.57.46 14.27-.32.64-1 .76-1.31 0-.62.07-1-.17-1-.7a1.18 1.18 0 0 1 -1.09-1.28c-.56.07-1-.07-1.09-.67a1.08 1.08 0 0 1 -.88 0c-.16.6-.55.78-1.18.54-.11.93-.75 1-1.35.48-4.19 2-.17-9.45.14-10.77a36.45 36.45 0 0 0 .75-13.45c-.86-5.62-3.14-10.7-2.82-16.53.3-5.24.51-7.84-1-13-3.87-13.28-8-23.84-3.84-37.65 1.86-6.24 4.83-10.48 2.31-16.83a31.25 31.25 0 0 1 -2.48-15l-2.65-.34c1.82-2.94 3.79-5.73 7.28-7 3.67-.33 3.88-1.35 3-3.16a1.81 1.81 0 0 0 -.37-.78.69.69 0 0 0 .09.22c.13.12.23.3.31.48zm3.91 58.38a10.21 10.21 0 0 1 1.13-3 9.85 9.85 0 0 1 -2.42.08 24.16 24.16 0 0 1 1.22 4.23z"/><path d="m100.42 104.91a10.21 10.21 0 0 0 -1.13 3l-.09 1.33a24.16 24.16 0 0 0 -1.2-4.24 9.85 9.85 0 0 0 2.42-.09z" fill="none"/><g><path d="m95.38 49.54c-.08-.18-.18-.36-.28-.56a.69.69 0 0 1 -.09-.22 1.81 1.81 0 0 1 .37.78z"/><path d="m85.07 59.69 2.65.34a25.7 25.7 0 0 0 0 9 29.4 29.4 0 0 1 -16.56 7.35c-1.13.13-4.86-2.28-4.86-2.28-1.11-1-1.66-1.14-3.69-2.12-4.12-2-4.06 2.22-7.43-.22-1.44-1 2.48-4.06 3.44-4.25 2.37-.46 2.64 1 4.57 1.61 3.38 1.13 5.35 3.5 9.25 2.39.85-.24 2.19-1.35 6.27-3.94 2.86-1.86 4.54-4.95 6.36-7.88z"/><path d="m77.3 60a19.82 19.82 0 0 1 -2.81 7.28c-2.12 1.06-4.18 3.08-6.65 3.19 4.81-1.66 6.82-6.37 9.29-10.57z"/><path d="m54.72 80.37a37.58 37.58 0 0 1 4.6-4.77 2.5 2.5 0 0 0 .46 1.4 47.76 47.76 0 0 1 -5.06 3.37z"/><path d="m44.64 72.41c3.36-.42 6.89-2.23 9.94-3.65a4 4 0 0 0 -.89 1.93c-2.63.97-6.17 2.74-9.05 1.72z"/><path d="m54 84.37c-5-.17-3-1.2-1.61-6.07l.48.13c-.4 1.52-.82 3-1.29 4.52-.21 1.82 14.18-5.1 15-5.75l.94.45c-3.22 2.94-9.06 6.88-13.52 6.72z"/><path d="m48.1 105.74c8.48-1 15.49-10.95 21.38-16.48 7.38-6.92 9.86-4.05 18-.21-.19.67-.39 1.33-.61 2l-.56-.24.45.58-.3 1a6.88 6.88 0 0 1 -.44-1.68l-.18-.08c-.14 1.18-.23 2.37-.26 3.57l.26.28c0 .2-.11.4-.16.6l-.11-.15a5.69 5.69 0 0 1 -.5 2.68 20.88 20.88 0 0 1 .38-7.16 17.35 17.35 0 0 1 -1.45-.85c-.6 3.27-1.47 5.29-.32 8.66-2.07-2.44-1.9-5.53-.27-9-.42-.29-.84-.61-1.27-.92-.19 2.83-1.22 5.56-1.62 8.35.62 1.41 2.13 2.51 4.23 3.39 0 .32-.08.63-.12.95v-.24a5.22 5.22 0 0 1 -2.25-.93c2.21 7.36-3 11-3.23 17.54-.48-3.72 6.22-16.27 1.39-19.42 1.79 5.56.13 13-3.76 17.09a72.2 72.2 0 0 0 1.79 8.39 0 0 0 0 1 0 0c.15-5.84 5.73-9.67 6.13-15.66.15 1.33.36 2.64.63 3.94l-.09.3.05.06h.12c1.38 6.67-1.18 13.33-4.88 18.85s-3.5 4.8-5-.93c-3.2 4.29-8.51 6.7-13.62 7.3 0-1.83 1.51-3.77 2.06-5.86-2.45 2.12-11 9.63-14.4 8.48-4-1.34.22-5.47 1.59-8.78-4.19 3.46-20 11.93-12.37-.23-3.19 1.65-12.06 6.58-15.37 3.51 7.05-11.11 17.28-20.63 27.33-28.74a7.36 7.36 0 0 1 -2.64.24z"/><path d="m70.08 87.26c-7.14 6.52-13.75 13.34-22 18.48v.2a4.85 4.85 0 0 1 -.55-.08c5.72-6.41 13.4-11.76 19.65-17.72 2.69-2.58 5.53-6.34 9.44-6.61s7.86 3.55 11.62 4.9a8.46 8.46 0 0 0 -.27.95c-7.97-2.64-10.55-6.83-17.89-.12z"/><path d="m52.36 78.3c-5.77 1.11-11.79-1.86-16.26-5.42l.22-.28c8.69 3.3 13.45 4.59 22.44 2.45h.09a6.69 6.69 0 0 1 1.18-1.35 3.2 3.2 0 0 0 -.63 1.3c-.2.07-.39.15-.59.24a14.81 14.81 0 0 1 -5.87 3 2.17 2.17 0 0 1 -.07.24z"/><path d="m40.86 31.44c-.16-.18-.3-.36-.44-.55 10-.76 22.55.65 32.68 1.64 5.68.56 8.13 2 10.78 7.07 1.33 2.56 2 8.31 4.39 9.89.5.9 1 1.81 1.67 2.74l-.66.37c-7.75-7.93-4.74-17.8-17.76-18.27-10.32-.33-20.41-.33-30.52-3.02z"/><path d="m35.8 72.64c1-1.69 3.5-2.08 5.19-3.49-4-.33-15.38-1.29-17.77-5.1a4.86 4.86 0 0 1 -.87-2.23h.66c9.68 6.41 22.93 6.29 33.84 4.72a6.3 6.3 0 0 0 -1.51 1.36 51.09 51.09 0 0 1 -12.56 1.39 16.62 16.62 0 0 1 -6.46 3.34l-.22.28z"/><path d="m22.35 61.82c-.13-2.53 3.95-2.75 7.1-4.55-5-.55-25.61-7.05-11.17-11.41-4.28-1.56-14.77-5.09-16.03-10.73 13-3.83 27.91-3.13 41.17-1.5a10.67 10.67 0 0 1 -2.56-2.19l.16-.13c7.95 6.42 20.86 4 30.15 4.26 11.67.37 11.16 9.39 16.35 18.22a16.48 16.48 0 0 0 -1.52 1.33c-.5-.83-1-1.78-1.56-2.81a29.59 29.59 0 0 1 .2 4.26c-.18.21-.36.43-.53.65a6.94 6.94 0 0 1 .14-5.29l-.11-.23a31.73 31.73 0 0 0 -2.25 3 17.52 17.52 0 0 0 1.13 4c-.19.27-.37.55-.55.84a11.43 11.43 0 0 1 -1-4.18 24.64 24.64 0 0 0 -2.2 4.52c.17 1.89-.52 4.17-1.12 6.22a9.18 9.18 0 0 0 -1.15.2c.48-1.76 1-3.53 1.38-5.33a6.19 6.19 0 0 1 -1.11-1l-.17-.1a.21.21 0 0 0 0-.06 9.35 9.35 0 0 1 -1.52-2.88c-1.81 7.36-6.74 7.69-11.44 11.58l-.14-.22c2.89-3.19 13.23-8.64 11-14.76-1.38 6.16-6.93 12-13.06 12.21l-.37.91a1.71 1.71 0 0 0 -.23-.13l.09-.13-.11.12a5.45 5.45 0 0 0 -1.27-.51 4.24 4.24 0 0 0 1.5-.27c-1.43 0-3-.09-4.63-.21-2-.16-4.26-.34-6.71-.33a70.72 70.72 0 0 0 3.86-7c-6.35 2.58-13.79 4.6-20.8 4.6-.79 0-1.58 0-2.36-.08a149.82 149.82 0 0 0 22.23-5.81 93.77 93.77 0 0 1 -22.46.48c-2.37 1.62-5.5 2.62-7.68 4.41z"/></g><path d="m99.07 16.38c1.75 0 9.6.3 9.6 3.59s-7.85 3.6-9.6 3.6c-1.93 0-9-.21-9.35-3-.44-3.9 7.01-4.19 9.35-4.19z" fill="none" stroke="#000" stroke-miterlimit="10" stroke-width="2"/>
    </symbol>
    <symbol id="fiend" viewBox="0 0 200 200">
      <path d="m26.71 52.86 2 24.15c1.09 5.36 6 9.77 12.22 12.7-7.14 0-14-2.7-17.32-8.22l-19.47-29.7 19.06 10.34c-3.1-11.22-20.82-15.9-13.32-37.94-2.71 7.93 5.72 26.81 16.25 30.46l-.13-1.75z"/><path d="m62.05 57.2-.33 3.29c-1.13-2.25-2.38-5-3.55-8a22 22 0 0 1 3.88 4.71z"/><path d="m56.42 50.93 1.44 8c-1.86-1.19-4.46-2.93-7.45-4.93-2.17-10-2.06-19.47 3.46-23.69-.82 6.24 1.51 14.92 4.3 22.17a21.17 21.17 0 0 0 -1.75-1.55z"/><path d="m26 52.9-1.42-22c6.76 9 17.69 17.47 25.81 23.1a100.47 100.47 0 0 0 6.12 18.56l-29.8-19.7z"/><path d="m40.94 89.71c8 0 16.28-3.18 20.58-9.36a20.91 20.91 0 0 0 .53-23.15l1.84-17.81c3.44 11.67 4.19 19.69 10.8 29.17l2.13-11.36c6.16 10.5 3.9 25.26-4.75 32.6-6.63 5.64-20.75 4.82-31.13-.09z"/><path d="m57.86 59-1.44-8a21.17 21.17 0 0 1 1.75 1.52c1.17 3 2.42 5.79 3.55 8l.33-3.29a20.91 20.91 0 0 1 -.53 23.15c-4.3 6.18-12.62 9.38-20.58 9.36-6.23-2.96-11.13-7.37-12.22-12.74l-2-24.15 29.81 19.68a100.47 100.47 0 0 1 -6.12-18.53c2.99 2 5.59 3.74 7.45 5z"/><ellipse cx="51.38" cy="78.09" fill="#fff" rx="10.34" ry="11.04"/><path d="m48.79 138.07s-15.28-10.14-16.85-2.24-1.82 9.53-1.82 9.53l15.14 14.17 9.06-14.39z"/><path d="m77.3 145.4s-15.25-9.28-17.91-1.68c-1.72 4.88-.09 6.19-.09 6.19l13.7 13.2 7.5-11.18z"/><path d="m97.61 145.94s-14.09-6.68-15.68 1.21a14.48 14.48 0 0 0 0 3.57l12.74 14.57 4.1-13.24z"/><path d="m72.53 176.46s19 6.5 20.54-1.4-.4-9.27-.4-9.27l-11.29-14.19-8.33 14.53z"/><path d="m48.13 169.59s21.13 15 22.7 7.08.27-12.3.27-12.3l-16-18.75-8.08 14.1z"/><path d="m22.7 166.2s22 12 23.52 4.08.16-8.58.16-8.58l-17-15.6-6.27 13.4z"/><path d="m95.18 122a14.54 14.54 0 0 1 -8.47-.19 14.59 14.59 0 0 1 -6.52-5.41 14.59 14.59 0 0 1 8.47.18 14.58 14.58 0 0 1 6.52 5.42z"/><path d="m121.23 57.51c-6.17 10.49-3.91 25.27 4.77 32.61 6.63 5.63 20.76 4.81 31.13-.09-8 0-16.27-3.19-20.57-9.37a20.91 20.91 0 0 1 -.56-23.15l-1.85-17.81c-3.43 11.68-4.19 19.7-10.79 29.17z"/><path d="m136 57.51a20.91 20.91 0 0 0 .54 23.15c4.3 6.18 12.61 9.39 20.57 9.37 6.23-2.94 11.13-7.34 12.22-12.71l2-24.15-29.82 19.68a102.25 102.25 0 0 0 6.12-18.56c-3 2.06-5.58 3.77-7.45 5l1.45-8a19.79 19.79 0 0 0 -1.76 1.52c-1.17 3-2.41 5.8-3.54 8.05z"/><path d="m136 57.51.34 3.3c1.13-2.25 2.37-5 3.54-8.05a22.83 22.83 0 0 0 -3.88 4.75z"/><path d="m141.63 51.24-1.45 8c1.87-1.2 4.46-2.91 7.45-5 2.18-10 2.07-19.47-3.45-23.7.82 6.25-1.51 14.93-4.31 22.17a19.79 19.79 0 0 1 1.76-1.47z"/><path d="m141.51 72.85 29.83-19.68h.68l1.42-22c-6.76 9-17.69 17.47-25.81 23.11a102.25 102.25 0 0 1 -6.12 18.57z"/><path d="m169.32 77.32c-1.09 5.37-6 9.77-12.22 12.71 7.14 0 14-2.71 17.32-8.23l19.49-29.69-19.07 10.33c3.1-11.22 20.82-15.9 13.33-37.94 2.7 7.93-5.72 26.77-16.26 30.47l.11-1.75h-.68z"/><ellipse cx="146.66" cy="78.4" fill="#fff" rx="10.34" ry="11.04"/><path d="m149.25 138.38s15.29-10.14 16.85-2.24 1.82 9.54 1.82 9.54l-15.14 14.17-9.05-14.4z"/><path d="m167.26 135.76 18.41-6.02-4.04 12.51-7.04 14.27-5.16-10.16z"/><path d="m30.71 134.82-18.41-6.03 4.04 12.51 7.04 14.27 5.16-10.15z"/><path d="m122.75 145.71s12.47-9 15.91-1.68c2.13 4.53 1.08 5.19 1.08 5.19l-14.74 14.2-7.49-11.17z"/><path d="m99.61 145.94s9.46-5 15.64.16c2.44 2 .9 3.94.9 3.94l-12.75 15.57-4.1-13.25z"/><path d="m125.51 176.77s-20 6.51-21.54-1.39 1.4-9.28 1.4-9.28l11.29-14.19 8.34 14.54z"/><path d="m103.25 177.29s-9 3.7-9.14-.17a31.2 31.2 0 0 1 1.43-10.55l3.07-11.08 4.25 11.43z"/><path d="m149.91 169.9s-21.13 13-22.7 5.08-.27-11.3-.27-11.3l16-16.74 8.06 13.06z"/><path d="m175.34 166.51s-22.32 9.82-23.89 1.92 3.84-9.58 3.84-9.58l13.34-12.43 6.27 13.39z"/><path d="m102.87 122.31a14.54 14.54 0 0 0 8.47-.19 14.54 14.54 0 0 0 6.51-5.41 12.86 12.86 0 0 0 -15 5.6z"/>
    </symbol>
    <symbol id="plant" viewBox="0 0 200 200">
      <path d="m161.63 73.92c17.9 3.9 30.68 14.1 30.68 26.08s-12.78 22.18-30.68 26.08a75.19 75.19 0 0 0 -10.21-12.61c-8.83-8.83-21.42-12.27-32.08-13.47 10.66-1.2 23.25-4.64 32.08-13.47a75.19 75.19 0 0 0 10.21-12.61z" fill="none"/><path d="m164.89 33.79c8.47 8.47 6.65 24.72-3.26 40.13a76.53 76.53 0 0 0 -16.14-1.69c-12.47 0-23.82 6.48-32.21 13.16 6.72-8.39 13.17-19.73 13.17-32.21a75.63 75.63 0 0 0 -1.7-16.13c15.42-9.92 31.67-11.73 40.14-3.26z" fill="none"/><path d="m161.63 126.08c9.91 15.41 11.73 31.66 3.26 40.13s-24.72 6.66-40.14-3.26a75.63 75.63 0 0 0 1.7-16.13c0-12.48-6.47-23.82-13.17-32.21 8.39 6.68 19.74 13.16 32.21 13.16a76.53 76.53 0 0 0 16.14-1.69z" fill="none"/><path d="m161.63 73.92a75.19 75.19 0 0 1 -10.21 12.61c-8.83 8.83-21.42 12.27-32.08 13.47a92.09 92.09 0 0 0 -20.65 0 92.36 92.36 0 0 0 14.59-14.59c8.39-6.68 19.74-13.16 32.21-13.16a76.53 76.53 0 0 1 16.14 1.67z"/><path d="m151.42 113.47a75.19 75.19 0 0 1 10.21 12.61 76.53 76.53 0 0 1 -16.14 1.69c-12.47 0-23.82-6.48-32.21-13.16a92.36 92.36 0 0 0 -14.59-14.61 92.09 92.09 0 0 0 20.65 0c10.66 1.2 23.25 4.64 32.08 13.47z"/><path d="m124.75 37.05a75.63 75.63 0 0 1 1.7 16.13c0 12.48-6.47 23.82-13.17 32.21a91.85 91.85 0 0 0 -14.59 14.61 92 92 0 0 0 0-20.64c1.19-10.66 4.64-23.26 13.46-32.08a75.49 75.49 0 0 1 12.6-10.23z"/><path d="m126.45 146.82a75.63 75.63 0 0 1 -1.7 16.13 75.49 75.49 0 0 1 -12.61-10.21c-8.82-8.82-12.27-21.42-13.46-32.08a92 92 0 0 0 0-20.64 91.85 91.85 0 0 0 14.59 14.59c6.73 8.39 13.18 19.73 13.18 32.21z"/><path d="m98.68 6.37c12 0 22.18 12.77 26.07 30.68a75.49 75.49 0 0 0 -12.61 10.21c-8.82 8.82-12.27 21.42-13.46 32.08-1.2-10.67-4.68-23.26-13.47-32.08a75.49 75.49 0 0 0 -12.61-10.21c3.89-17.91 14.09-30.68 26.08-30.68z" fill="none"/><path d="m124.75 163c-3.89 17.91-14.09 30.68-26.07 30.68s-22.19-12.82-26.08-30.68a75.49 75.49 0 0 0 12.61-10.21c8.83-8.82 12.27-21.41 13.47-32.08 1.19 10.66 4.64 23.26 13.46 32.08a75.49 75.49 0 0 0 12.61 10.21z" fill="none"/><path d="m113.28 85.39a92.36 92.36 0 0 1 -14.59 14.61 91.85 91.85 0 0 1 14.59-14.61z" fill="none"/><path d="m98.69 100a92.36 92.36 0 0 1 14.59 14.59 91.85 91.85 0 0 1 -14.59-14.59z" fill="none"/><path d="m98.69 100a92.09 92.09 0 0 1 20.65 0 92.09 92.09 0 0 1 -20.65 0z" fill="none"/><path d="m98.68 79.34a92 92 0 0 1 0 20.64 90.59 90.59 0 0 1 0-20.64z" fill="none"/><path d="m98.68 100a92 92 0 0 1 0 20.64 90.59 90.59 0 0 1 0-20.64z" fill="none"/><path d="m98.68 100a91.85 91.85 0 0 0 -14.61-14.61c-6.7-8.39-13.17-19.73-13.17-32.21a75.63 75.63 0 0 1 1.7-16.13 75.49 75.49 0 0 1 12.61 10.21c8.79 8.82 12.27 21.41 13.47 32.08a90.59 90.59 0 0 0 0 20.66z"/><path d="m98.68 100a90.59 90.59 0 0 0 0 20.64c-1.2 10.67-4.64 23.26-13.47 32.08a75.49 75.49 0 0 1 -12.61 10.28 75.63 75.63 0 0 1 -1.7-16.13c0-12.48 6.47-23.82 13.17-32.21a91.85 91.85 0 0 0 14.59-14.66z"/><path d="m98.68 100a92.36 92.36 0 0 0 -14.59 14.59c-8.38 6.68-19.74 13.16-32.21 13.16a76.53 76.53 0 0 1 -16.14-1.69 75.19 75.19 0 0 1 10.21-12.61c8.81-8.81 21.4-12.25 32.05-13.45a92.09 92.09 0 0 0 20.65 0z"/><path d="m98.68 100a92.09 92.09 0 0 0 -20.68 0c-10.66-1.2-23.25-4.64-32.08-13.47a75.19 75.19 0 0 1 -10.2-12.61 76.53 76.53 0 0 1 16.14-1.69c12.47 0 23.83 6.48 32.21 13.16a92.36 92.36 0 0 0 14.59 14.61z"/><path d="m78 100a92.09 92.09 0 0 1 20.65 0 92.09 92.09 0 0 1 -20.65 0z" fill="none"/><path d="m84.07 85.39a91.85 91.85 0 0 1 14.59 14.61 92.36 92.36 0 0 1 -14.59-14.61z" fill="none"/><path d="m98.66 100a91.85 91.85 0 0 1 -14.59 14.59 92.36 92.36 0 0 1 14.59-14.59z" fill="none"/><path d="m70.9 53.18c0 12.48 6.47 23.82 13.17 32.21-8.38-6.68-19.74-13.16-32.21-13.16a76.53 76.53 0 0 0 -16.14 1.69c-9.91-15.41-11.72-31.66-3.26-40.13s24.72-6.66 40.14 3.26a75.63 75.63 0 0 0 -1.7 16.13z" fill="none"/><path d="m84.07 114.61c-6.7 8.39-13.17 19.73-13.17 32.21a75.63 75.63 0 0 0 1.7 16.18c-15.42 9.92-31.66 11.73-40.14 3.26s-6.65-24.72 3.26-40.13a76.53 76.53 0 0 0 16.14 1.69c12.47-.05 23.83-6.53 32.21-13.21z" fill="none"/><path d="m45.93 86.53c8.83 8.83 21.42 12.27 32.07 13.47-10.66 1.2-23.25 4.64-32.08 13.47a75.19 75.19 0 0 0 -10.21 12.61c-17.89-3.9-30.71-14.08-30.71-26.08s12.82-22.18 30.72-26.08a75.19 75.19 0 0 0 10.21 12.61z" fill="none"/><circle cx="95.04" cy="100.55" fill="#fff" r="26.64"/><circle cx="93.21" cy="97.68" r="9.95"/>
    </symbol>
    <symbol id="fey" viewBox="0 0 200 200">
      <path d="m138.23 142.16c0 29.43-34.8 49.3-49.23 49.3s-49.23-19.87-49.23-49.3 22.04-52.29 49.23-52.29 49.23 22.86 49.23 52.29z"/><path d="m56.84 50.59a24.57 24.57 0 0 1 -9.43-3 14.46 14.46 0 0 1 -4-3.47 12.56 12.56 0 0 1 -2.41-4.84 14.74 14.74 0 0 1 1.28-10 21.26 21.26 0 0 1 6-7.32 19.46 19.46 0 0 1 3.95-2.51 22.78 22.78 0 0 1 4.27-1.55 29.72 29.72 0 0 1 8.94-.71 27.75 27.75 0 0 1 8.63 1.94 17.26 17.26 0 0 1 7.14 5 11.21 11.21 0 0 1 2.51 8 18.76 18.76 0 0 1 -2.81 7.9 43.52 43.52 0 0 1 -5.2 6.66c-1 1-2 2-3 2.94l-.77.67-.82.61c-.53.42-1.12.77-1.69 1.14-4.7 2.87-10.27 3.95-15.89 5.75a43.81 43.81 0 0 0 -8.35 3.59 34.87 34.87 0 0 0 -7.41 5.67 46.67 46.67 0 0 0 -5.78 7.23 68.4 68.4 0 0 0 -4.37 8 109.22 109.22 0 0 0 -6.06 16.86 51.08 51.08 0 0 0 -1.64 18.92 55.09 55.09 0 0 0 5.41 18.38 75.79 75.79 0 0 0 10.41 15.7 108.3 108.3 0 0 0 13.17 13 147.22 147.22 0 0 0 14.75 10.78q3.84 2.46 7.82 4.71c1.33.74 2.67 1.48 4 2.19l2.08 1.06c.73.36 1.37.67 2.26 1.07.76-3 1.76-6 2.7-9s2-5.93 3-8.88a133 133 0 0 1 -14.35-7 123.33 123.33 0 0 1 -13.42-8.71c-8.44-6.34-15.92-13.83-20.64-22.47a40.64 40.64 0 0 1 -4.6-13.6 30 30 0 0 1 -.34-3.55 28.67 28.67 0 0 1 0-3.59l.12-1.81c0-.3 0-.6.06-.91l.15-.9.29-1.81a19 19 0 0 1 .35-1.88 95.49 95.49 0 0 1 4.51-15.3 50.2 50.2 0 0 1 3.28-6.84 31.66 31.66 0 0 1 4.2-5.8 26.42 26.42 0 0 1 5.28-4.43 38.19 38.19 0 0 1 6.58-3.28c2.46-1 5.19-1.87 8.09-3a38.74 38.74 0 0 0 8.8-4.72 30.44 30.44 0 0 0 4-3.49c1-1.19 2.09-2.29 3.07-3.53a44.76 44.76 0 0 0 5.35-8.14 22.7 22.7 0 0 0 2.69-10.65l-.08-1.51c-.07-.5-.17-1-.26-1.52a17.6 17.6 0 0 0 -.9-3 16.8 16.8 0 0 0 -3.39-5 8.28 8.28 0 0 0 -1.06-1c-.37-.31-.73-.63-1.1-.92a23.32 23.32 0 0 0 -2.32-1.49l-1.19-.65-1.25-.58a25.58 25.58 0 0 0 -2.45-.87 33.39 33.39 0 0 0 -19.63.07c-.8.29-1.6.54-2.39.91l-1.18.53-1.15.64a22.58 22.58 0 0 0 -2.24 1.46c-.68.53-1.33 1.06-1.94 1.64a23.46 23.46 0 0 0 -5.92 8.39 16.33 16.33 0 0 0 -.68 11 13.81 13.81 0 0 0 2.88 5.07 15.48 15.48 0 0 0 4.42 3.36 24.49 24.49 0 0 0 9.67 2.39z"/><path d="m143.92 31.5a4.51 4.51 0 0 0 2.24.82 2.28 2.28 0 0 0 .89-.12 3.35 3.35 0 0 0 .94-.6 7 7 0 0 0 1.73-2.52 14.49 14.49 0 0 0 1-3.46 21.14 21.14 0 0 0 -.16-7.6 20.4 20.4 0 0 0 -1.15-3.68c-.25-.59-.54-1.16-.84-1.73l-.25-.41-.21-.35c-.14-.24-.32-.47-.48-.71a9.06 9.06 0 0 0 -1-1.16 6 6 0 0 0 -1.29-.83 6.17 6.17 0 0 0 -1.46-.51 8.93 8.93 0 0 0 -1.55-.14 15.22 15.22 0 0 0 -6.49 1.77 34.65 34.65 0 0 0 -11.2 9.22 32.07 32.07 0 0 0 -6.55 13.27 23.52 23.52 0 0 0 -.38 7.59 22.23 22.23 0 0 0 2.29 7.37 19.92 19.92 0 0 0 4.84 6.2 32.26 32.26 0 0 0 6.56 4.25c4.57 2.3 9.12 4.13 12.93 6.84a30.73 30.73 0 0 1 9.18 10.11 52.56 52.56 0 0 1 5.06 13 43.28 43.28 0 0 1 1.28 13.55 43.8 43.8 0 0 1 -3 13.09c-3.31 8.4-8.94 15.9-15.55 22.43a117 117 0 0 1 -22.35 17 119.54 119.54 0 0 1 -12.39 6.43 65.91 65.91 0 0 1 -6.15 2.38 16.33 16.33 0 0 1 -2.49.64h-.16s0 0 0 .17l.07.43c0-.32.19 1.3-.1-.61s0 0 0 0a.25.25 0 0 1 0-.08c0 2.69-.26 5.61-.39 8.84a41.25 41.25 0 0 0 .86 9.78 14 14 0 0 0 1.89-.15 17.89 17.89 0 0 0 1.76-.34c1-.24 1.8-.49 2.57-.75 1.53-.53 2.86-1.08 4.16-1.65 2.59-1.14 5-2.36 7.34-3.64a137.11 137.11 0 0 0 13.42-8.42 129.88 129.88 0 0 0 23.66-21.15 90.92 90.92 0 0 0 9.47-13.18 67.94 67.94 0 0 0 6.67-15.24 55.22 55.22 0 0 0 2.27-16.84 54 54 0 0 0 -3-16.6c-.46-1.28-.87-2.55-1.42-3.81l-.78-1.9-.88-1.89c-.56-1.25-1.28-2.48-1.93-3.72s-1.46-2.44-2.31-3.61a40.69 40.69 0 0 0 -5.72-6.62 39.64 39.64 0 0 0 -7.07-5.19c-5-2.89-10.1-4.49-14.15-6.25a25 25 0 0 1 -5.18-2.93 14.11 14.11 0 0 1 -3.46-4 16.38 16.38 0 0 1 -2-10.9 27.7 27.7 0 0 1 4.82-11.45 31 31 0 0 1 9.26-8.76 19.24 19.24 0 0 1 2.64-1.27 8.2 8.2 0 0 1 2.14-.52 4 4 0 0 1 2 .24 3.82 3.82 0 0 1 .9.46 6.21 6.21 0 0 1 .74.71c.12.15.27.3.37.45l.15.2a4.15 4.15 0 0 1 .24.34 15.11 15.11 0 0 1 .86 1.46 17.46 17.46 0 0 1 1.29 3.22 19.67 19.67 0 0 1 .7 7 13.53 13.53 0 0 1 -.68 3.28 6.87 6.87 0 0 1 -1.32 2.42 3.8 3.8 0 0 1 -.72.62 2.23 2.23 0 0 1 -.72.22 3.89 3.89 0 0 1 -2.26-.51z"/><path d="m100.27 4.53a3.37 3.37 0 0 0 -1.16.19 1.13 1.13 0 0 0 -.61.6 7.42 7.42 0 0 0 -.3 3.59 52.37 52.37 0 0 0 2 8.89c1.78 6 3.87 12 5.47 18.06a75.53 75.53 0 0 1 1.89 9.23 31.33 31.33 0 0 1 0 9.17 13 13 0 0 1 -3.75 7.52 12.35 12.35 0 0 1 -3.41 2.22c-1.21.52-2.81 1-4.26 1.58l-17.84 6.23a144.89 144.89 0 0 0 -18 7.39 43.6 43.6 0 0 0 -8.85 5.86 23.8 23.8 0 0 0 -4 4.52 18.39 18.39 0 0 0 -1.61 2.86c-.24.5-.41 1-.61 1.59a10.28 10.28 0 0 0 -.48 1.64 19.62 19.62 0 0 0 -.4 6.76 27.44 27.44 0 0 0 1.49 6 46.55 46.55 0 0 0 5.23 9.81q5.24-4.69 10.61-9.18a28.68 28.68 0 0 1 -4-6.31 8.94 8.94 0 0 1 -.82-5.15 7.8 7.8 0 0 1 .94-2.34 15 15 0 0 1 2.06-2.54 35.79 35.79 0 0 1 6.35-4.86 150.13 150.13 0 0 1 16-8.27l17.06-7.77 2.15-1c.32-.14.78-.37 1.22-.59s.87-.46 1.3-.73a18.53 18.53 0 0 0 4.72-4 17.24 17.24 0 0 0 3.06-5.43 20.74 20.74 0 0 0 1.11-5.72 36.84 36.84 0 0 0 -1.07-10.45 81.55 81.55 0 0 0 -2.88-9.4c-2.2-6-4.82-11.76-7.11-17.45a53.45 53.45 0 0 1 -2.76-8.37 7.77 7.77 0 0 1 -.13-3.27 1 1 0 0 1 .31-.55 2.39 2.39 0 0 1 1.08-.33z"/><path d="m101.62.05a37.33 37.33 0 0 1 5.83 7 26 26 0 0 1 3.31 8.47 25.91 25.91 0 0 1 .11 8.91 37 37 0 0 1 -2.39 8.34 79.76 79.76 0 0 1 -8.48 14.75l-4.93 7c-.81 1.18-1.62 2.36-2.37 3.64a13.56 13.56 0 0 0 -1.85 4.36 15.77 15.77 0 0 0 .15 6.3 18.14 18.14 0 0 0 2.57 5.8 38.79 38.79 0 0 0 8.4 8.73c6.2 4.88 12.83 8.75 18.83 13a58.37 58.37 0 0 1 8.2 6.65c2.29 2.35 3.91 4.88 4.24 7.07a8 8 0 0 1 -.11 3.27 14.36 14.36 0 0 1 -1.47 3.53 35.44 35.44 0 0 1 -5.93 7.26q5.46 4.36 11.09 8.55a42.88 42.88 0 0 0 7-11.3 24.48 24.48 0 0 0 1.75-7.47 19.64 19.64 0 0 0 -1.14-8.11 23.24 23.24 0 0 0 -3.82-6.64 34.56 34.56 0 0 0 -4.82-4.79 73.16 73.16 0 0 0 -10.12-6.8c-6.72-3.86-13.43-7.06-19.21-10.9a30.91 30.91 0 0 1 -7.24-6.27 10 10 0 0 1 -2.4-7.16 2.3 2.3 0 0 0 0-.39 5.94 5.94 0 0 0 .18-.6c.2-.5.39-1 .67-1.57.52-1.1 1.18-2.29 1.85-3.48l4.28-7.34a84 84 0 0 0 7.48-16.13 39.24 39.24 0 0 0 1.79-9.1 27.93 27.93 0 0 0 -.89-9.48 27.11 27.11 0 0 0 -4.15-8.54 37.88 37.88 0 0 0 -6.41-6.56z"/><path d="m119.68 75.31c-.56-1.61-1.07-3.23-1.47-4.9a13.89 13.89 0 0 1 -.44-5.2 3.88 3.88 0 0 1 .47-1.32 2.93 2.93 0 0 1 1-1 5 5 0 0 1 2.61-.49 31 31 0 0 1 5 .79c6.58 1.26 13.13 3.17 18.68 6.77a33 33 0 0 1 7.37 6.39 31 31 0 0 1 4.92 8.26 34.71 34.71 0 0 1 2.24 9.3 38.21 38.21 0 0 1 .19 4.78c0 .79-.06 1.59-.13 2.37a22.56 22.56 0 0 1 -.3 2.24c1.55.15 3.12.15 4.68.16a40.59 40.59 0 0 0 -.47-10.58 38 38 0 0 0 -3.18-10.05 33.18 33.18 0 0 0 -6-8.67 35.48 35.48 0 0 0 -8.34-6.33c-6.08-3.42-13-4.94-19.56-5.81a30.7 30.7 0 0 0 -5.2-.49 5.69 5.69 0 0 0 -3 .8 3.74 3.74 0 0 0 -1.17 1.33 4.93 4.93 0 0 0 -.44 1.54 9.83 9.83 0 0 0 .14 2.79 23 23 0 0 0 .62 2.54c.54 1.63 1.1 3.22 1.78 4.78z"/><path d="m179.18 52.2a68.09 68.09 0 0 0 2.6-11.94 13.24 13.24 0 0 0 -.61-5.94 6.12 6.12 0 0 0 -1.71-2.41 7.86 7.86 0 0 0 -2.67-1.44 17.25 17.25 0 0 0 -6.12-.58 42.47 42.47 0 0 0 -6.15.83 12.63 12.63 0 0 0 -5.78 2.57 14.2 14.2 0 0 0 -3.74 5.21 32.7 32.7 0 0 0 -2.11 12.5 84.22 84.22 0 0 0 1.11 12.46 153.15 153.15 0 0 0 6 24.29c1.37-.76 2.76-1.48 4.15-2.2a148.64 148.64 0 0 1 -6.82-23.17 75 75 0 0 1 -1.51-11.86 29.36 29.36 0 0 1 1.47-11.41 11.76 11.76 0 0 1 3-4.43c.35-.26.68-.56 1-.81l1.17-.63a11.36 11.36 0 0 1 1.27-.47 10.84 10.84 0 0 1 1.38-.4 42.64 42.64 0 0 1 5.84-1 16.18 16.18 0 0 1 5.63.3 5.62 5.62 0 0 1 3.81 3.15 12.67 12.67 0 0 1 .79 5.53 67.92 67.92 0 0 1 -2 11.85z"/><path d="m26.28 39.5a11.31 11.31 0 0 0 -.55-1.9 5.12 5.12 0 0 0 -.42-.81 2 2 0 0 0 -.52-.57 1.42 1.42 0 0 0 -1.5-.12 4.52 4.52 0 0 0 -1.46 1.16 16.21 16.21 0 0 0 -3.28 7.62 16.68 16.68 0 0 0 .58 8.51 12.9 12.9 0 0 0 5.56 6.74 18.22 18.22 0 0 0 4.1 1.79 26.43 26.43 0 0 1 3.81 1.49c2.41 1.16 4.48 2.94 5 5.1s-.38 4.61-1.73 6.78a27.75 27.75 0 0 1 -5.14 5.92c1.12 1.08 2.33 2.08 3.52 3.09a31.86 31.86 0 0 0 5.38-7.38 16.23 16.23 0 0 0 1.59-4.58 10.11 10.11 0 0 0 -.4-5.23 9.55 9.55 0 0 0 -3.16-4.11 16.46 16.46 0 0 0 -4.15-2.32c-.71-.3-1.43-.51-2.15-.75l-2.14-.56a15.58 15.58 0 0 1 -3.57-1.37 10.9 10.9 0 0 1 -4.95-5.4 15.47 15.47 0 0 1 -1-7.67 18.28 18.28 0 0 1 .85-3.88 12.24 12.24 0 0 1 1.75-3.46 4.48 4.48 0 0 1 1.17-1.1 1.14 1.14 0 0 1 1.18 0 1.53 1.53 0 0 1 .48.44 4.38 4.38 0 0 1 .46.75 10.88 10.88 0 0 1 .69 1.82z"/><path d="m40.92 16.56c4.7 3.72 1.88 10.47.37 9.68-1 2.82-4.81 5.59-9.51 1.87s-7.5-15.33-7.5-15.33 11.94.06 16.64 3.78z"/><path d="m51.87 24.15a4.27 4.27 0 0 1 5.48-5c2.27-1 6.25-1 7 2.58s-4.45 10.48-4.45 10.48-7.32-4.45-8.03-8.06z"/><path d="m46.06 53.69c-3.33-1.55-2.22-4.81.69-6.31 0-3.75 1.31-6.74 4.64-5.19s5.91 9.72 5.91 9.72-7.9 3.33-11.24 1.78z"/><path d="m94.47 7.18c3.61-.68 4.06.68 4.38 2.4s.41 3.14-3.2 3.83-9.87-1.35-9.87-1.35 5.08-4.19 8.69-4.88z"/><path d="m79.91 29.59c3.68-.15 3.92 1.26 4 3s-.06 3.18-3.73 3.33-9.58-2.77-9.58-2.77 5.64-3.41 9.31-3.56z"/><path d="m50.88 75.14c-2.78-2.42-2-3.61-.84-4.93s2.22-2.27 5 .15 5 8.59 5 8.59-6.39-1.4-9.16-3.81z"/><path d="m115.71 13.41c-3.29 1.63-4.09.44-4.87-1.13s-1.24-2.92 2.06-4.55 9.88-1.35 9.88-1.35-3.78 5.4-7.07 7.03z"/><path d="m137.2 45.4c-2.63 5.29-5.23 4.33-8.28 2.82s-5.38-3-2.75-8.31 12.28-10.85 12.28-10.85 1.38 11.04-1.25 16.34z"/><path d="m154.37 21.27c-3.6.71-4.12-1-4.54-3.06s-.56-3.85 3-4.56 10 2 10 2-4.83 4.91-8.46 5.62z"/><path d="m113.92 75.81c-1.2-2.88 1.52-4.35 4.32-3.66 2.33-2.38 5-3.58 6.17-.7s-2.17 9.55-2.17 9.55-7.13-2.31-8.32-5.19z"/><path d="m161.08 50.4c-3.39.77-3.91-.67-4.32-2.51s-.59-3.36 2.8-4.14 9.44 1.34 9.44 1.34-4.53 4.54-7.92 5.31z"/><path d="m151.83 93.47c5.89-.46 6-3.24 5.71-6.63s-.79-6.11-6.68-5.65-14.65 7.33-14.65 7.33 9.73 5.41 15.62 4.95z"/><path d="m21.66 81.56a4.26 4.26 0 0 1 .88 7.37c-.54 2.42-2.81 5.68-6.15 4.15s-6-9.69-6-9.69 7.93-3.39 11.27-1.83z"/><g fill="#fff"><path d="m79.45 147.83a39.1 39.1 0 0 1 -11.85 1.67c-7.1 0-12.85-7.67-12.85-7.67a26.17 26.17 0 0 1 11.85-2.67c12.4 0 12.85 8.67 12.85 8.67z"/><path d="m96.75 147.83a39.1 39.1 0 0 0 11.85 1.67c7.1 0 12.85-7.67 12.85-7.67a26.17 26.17 0 0 0 -11.85-2.67c-12.43 0-12.85 8.67-12.85 8.67z"/></g>
    </symbol>
  </defs>
</svg>
